<?xml version="1.0" encoding="UTF-8" standalone="no"?>
<!-- Created with Inkscape (http://www.inkscape.org/) -->

<svg
   xmlns:dc="http://purl.org/dc/elements/1.1/"
   xmlns:cc="http://creativecommons.org/ns#"
   xmlns:rdf="http://www.w3.org/1999/02/22-rdf-syntax-ns#"
   xmlns:svg="http://www.w3.org/2000/svg"
   xmlns="http://www.w3.org/2000/svg"
   xmlns:sodipodi="http://sodipodi.sourceforge.net/DTD/sodipodi-0.dtd"
   xmlns:inkscape="http://www.inkscape.org/namespaces/inkscape"
   width="850.39368"
   height="1286.8484"
   id="svg2"
   version="1.1"
   inkscape:version="0.48.2 r9819"
   sodipodi:docname="velociraptor-workplace-preto.svg">
  <defs
     id="defs4" />
  <sodipodi:namedview
     id="base"
     pagecolor="#ffffff"
     bordercolor="#666666"
     borderopacity="1.0"
     inkscape:pageopacity="0.0"
     inkscape:pageshadow="2"
     inkscape:zoom="0.64576373"
     inkscape:cx="-16.75296"
     inkscape:cy="638.36932"
     inkscape:document-units="px"
     inkscape:current-layer="layer1"
     showgrid="false"
     fit-margin-top="0"
     fit-margin-left="0"
     fit-margin-right="0"
     fit-margin-bottom="0"
     inkscape:window-width="1920"
     inkscape:window-height="1011"
     inkscape:window-x="0"
     inkscape:window-y="0"
     inkscape:window-maximized="1" />
  <metadata
     id="metadata7">
    <rdf:RDF>
      <cc:Work
         rdf:about="">
        <dc:format>image/svg+xml</dc:format>
        <dc:type
           rdf:resource="http://purl.org/dc/dcmitype/StillImage" />
        <dc:title />
      </cc:Work>
    </rdf:RDF>
  </metadata>
  <g
     inkscape:label="Layer 1"
     inkscape:groupmode="layer"
     id="layer1"
     transform="translate(-2757.9805,-1077.7327)">
    <path
       id="path3002"
       style="fill:#020202"
       d="m 3559.1692,1163.3817 c -0.1094,-0.1771 -4.4791,-11.6213 -9.7104,-25.4314 -5.2313,-13.8102 -9.6306,-25.2359 -9.7761,-25.3906 -0.2079,-0.2208 -7.9704,19.8489 -19.0426,49.2341 l -0.7196,1.9099 19.7238,0 c 10.8482,0 19.6344,-0.1449 19.5249,-0.322 z m -85.8895,56.0149 c -0.6653,-0.9671 -1.2082,-1.9972 -1.2062,-2.2891 0,-0.2918 12.7192,-31.4705 28.2607,-69.2859 l 28.2574,-68.7552 10.972,0 10.972,0 28.3677,69.0418 28.3677,69.0418 -1.3036,2.0316 -1.3036,2.0315 -11.2918,-0.1067 -11.2917,-0.1067 -6.7983,-16.9904 -6.7983,-16.9904 -28.9864,0.1032 -28.9864,0.1031 -6.8015,16.998 -6.8016,16.9979 -11.2091,-0.033 -11.2092,-0.033 -1.2098,-1.7583 z m -209.131,0.2431 -1.5611,-1.561 0,-67.3812 0,-67.3813 1.2479,-1.4213 1.2479,-1.4212 9.9314,0 9.9314,0 1.2851,1.3259 1.2851,1.3258 0,67.5488 0,67.5488 -1.5247,1.4889 -1.5247,1.4888 -9.3787,0 -9.3787,0 z m -221.1426,0 -1.561,-1.561 0,-67.3812 0,-67.3813 1.2479,-1.4213 1.2478,-1.4212 9.9315,0 9.9314,0 1.2851,1.3259 1.2851,1.3258 0,67.5488 0,67.5488 -1.5248,1.4889 -1.5247,1.4888 -9.3787,0 -9.3786,0 z m -152.0574,0.036 -1.4889,-1.5247 0,-67.5537 0,-67.5537 1.3259,-1.2851 1.3259,-1.2851 9.8534,0 9.8534,0 1.2851,1.3259 1.2851,1.3258 0,25.6133 0,25.6133 35.7849,0 35.7849,0 0,-25.654 0,-25.6541 1.3259,-1.2851 1.3259,-1.2851 9.8534,0 9.8534,0 1.2851,1.3259 1.2851,1.3258 0,67.5488 0,67.5488 -1.5247,1.4889 -1.5248,1.4888 -9.4508,0 -9.4508,0 -1.4888,-1.5247 -1.4889,-1.5247 0,-30.4404 0,-30.4405 -35.7849,0 -35.7849,0 0,30.4763 0,30.4763 -1.5247,1.4889 -1.5248,1.4888 -9.4508,0 -9.4507,0 z m -88.787,-0.036 -1.561,-1.561 0,-57.3433 0,-57.3433 -20.025,0 -20.025,0 -1.2851,-1.3259 -1.2851,-1.3259 0,-8.8482 0,-8.8482 1.3259,-1.2851 1.3259,-1.2851 52.6747,0 52.6746,0 1.2851,1.3259 1.2851,1.3258 0,8.8483 0,8.8482 -1.3259,1.2851 -1.3259,1.2851 -20.1852,0 -20.1853,0 0,57.6564 0,57.6565 -1.4213,1.2479 -1.4212,1.2478 -9.4821,0 -9.4822,0 z m 558.0295,3.5278 c -17.7938,-1.3682 -31.3441,-9.2643 -40.9758,-23.8775 -2.3052,-3.4975 -7.1722,-12.5959 -7.1722,-13.4077 0,-0.2192 4.321,-3.1185 9.6023,-6.4428 l 9.6024,-6.0443 1.8383,0.6978 c 1.0111,0.3838 1.9584,0.8178 2.1051,0.9645 0.1467,0.1467 0.8367,1.6779 1.5334,3.4026 2.5922,6.4174 6.355,11.9448 10.4263,15.3157 2.4493,2.028 6.8089,4.2814 9.9248,5.13 3.2463,0.8842 9.8939,1.1979 12.9344,0.6105 6.3062,-1.2183 12.0204,-5.457 14.5,-10.7556 1.0457,-2.2346 1.3066,-3.3571 1.4429,-6.2086 0.2009,-4.2024 -0.4534,-6.509 -2.7602,-9.7305 -3.202,-4.4714 -8.4144,-7.6405 -24.0435,-14.6181 -15.3046,-6.8328 -21.0716,-10.1533 -26.7289,-15.39 -9.8088,-9.0794 -13.1927,-21.9002 -9.4995,-35.9918 1.7162,-6.5485 4.9899,-12.1502 9.9953,-17.1032 6.1288,-6.0646 13.8133,-9.8874 23.1543,-11.5185 4.5283,-0.7908 15.8941,-0.5357 19.9029,0.4467 12.0216,2.9459 21.1648,8.4734 28.4705,17.2118 2.746,3.2845 5.706,7.447 5.706,8.0241 0,0.1651 -3.7297,3.2886 -8.2884,6.9412 -6.2862,5.0367 -8.5444,6.6295 -9.3483,6.5934 -2.5714,-0.1154 -3.2133,-0.5296 -4.9122,-3.1691 -5.8609,-9.1056 -15.7497,-13.8789 -26.0575,-12.5778 -7.9685,1.0058 -12.9796,5.642 -13.6097,12.5917 -0.3226,3.5568 0.4357,5.6879 3.0153,8.4741 3.4933,3.7732 7.4268,5.9548 24.8869,13.8025 18.2314,8.1945 27.6927,15.6235 32.8041,25.7578 3.025,5.9975 4.4017,14.2266 3.5946,21.4856 -0.8292,7.4571 -2.8607,13.2736 -6.685,19.1406 -7.433,11.4033 -19.9774,18.7891 -34.4318,20.2724 -4.4537,0.457 -4.6307,0.4566 -10.9268,-0.028 z m -221.1425,0.022 c -17.9419,-1.4717 -31.31,-9.2696 -40.9713,-23.8997 -2.301,-3.4844 -7.1768,-12.5914 -7.1768,-13.4048 0,-0.2176 4.3234,-3.116 9.6077,-6.4408 l 9.6076,-6.0452 1.8331,0.6958 c 1.0081,0.3827 1.953,0.8159 2.0997,0.9625 0.1467,0.1467 0.8367,1.6779 1.5334,3.4027 3.6384,9.0073 8.7653,15.177 15.3252,18.4424 3.785,1.884 6.4576,2.5579 11.326,2.8555 5.0162,0.3067 8.1473,-0.2407 12.0615,-2.1089 4.0839,-1.9491 7.0146,-4.7652 8.8755,-8.5287 1.3275,-2.6845 1.5282,-3.4779 1.649,-6.5173 0.1699,-4.2749 -0.2967,-6.0808 -2.3759,-9.1944 -3.1888,-4.7753 -8.6436,-8.2078 -23.4059,-14.7287 -16.5638,-7.3167 -22.5669,-10.8369 -28.459,-16.6884 -1.8929,-1.8798 -4.1451,-4.4975 -5.0049,-5.817 -4.0056,-6.1475 -5.8707,-14.4085 -5.0412,-22.3286 1.0272,-9.808 4.5582,-17.465 11.046,-23.9528 5.0219,-5.0219 11.7078,-8.7852 19.3289,-10.8797 3.7592,-1.0332 4.557,-1.1066 12.2633,-1.1292 8.8436,-0.026 10.2184,0.1594 16.8873,2.2779 7.6552,2.4317 14.2442,6.4755 20.1284,12.353 4.3406,4.3359 9.4872,11.2348 8.8035,11.8011 -0.1008,0.083 -3.8648,3.0948 -8.3644,6.6916 l -8.181,6.5397 -2.1299,-0.2661 c -2.0909,-0.2613 -2.158,-0.3117 -3.6641,-2.7555 -1.918,-3.112 -6.5177,-7.703 -9.4478,-9.4299 -8.7638,-5.165 -20.7498,-4.8219 -26.5001,0.7586 -3.3875,3.2875 -4.9087,9.1593 -3.3977,13.1157 0.4011,1.0503 1.629,2.8609 2.7287,4.0236 3.2982,3.4874 7.3621,5.7805 21.1787,11.9503 10.0467,4.4863 15.4255,7.2444 19.921,10.2149 10.831,7.1568 16.237,14.1764 19.1613,24.8803 0.7028,2.5725 0.8492,4.2298 0.8433,9.5461 -0.01,5.5903 -0.1406,6.9365 -1.0253,10.2733 -2.5571,9.6454 -7.5294,17.3423 -15.0924,23.3624 -9.8023,7.8027 -21.8089,11.1299 -35.9714,9.9683 z m 247.6421,59.9998 c -0.8233,-0.9097 -0.9694,-7.6455 -0.1829,-8.432 0.3562,-0.3562 4.0248,-0.4825 14.0104,-0.4825 16.0321,0 14.8587,-0.3865 14.8587,4.8948 0,2.8066 -0.1326,3.5442 -0.7352,4.0896 -0.653,0.5909 -2.2221,0.6654 -14.0105,0.6654 -12.35,0 -13.3214,-0.051 -13.9405,-0.7353 z m 182.5432,16.8873 c -0.6055,-0.669 -0.6655,-3.1987 -0.6655,-28.065 0,-20.7204 0.1167,-27.4464 0.4825,-27.8122 0.694,-0.694 34.9301,-0.694 35.6241,0 0.3046,0.3046 0.4825,1.8317 0.4825,4.1414 0,2.3097 -0.1779,3.8368 -0.4825,4.1414 -0.355,0.355 -3.86,0.4825 -13.2686,0.4825 l -12.786,0 0,6.2322 0,6.2322 9.7885,0 c 11.7478,0 11.1195,-0.2756 11.1195,4.8767 0,2.113 -0.1831,3.5892 -0.4825,3.8885 -0.3493,0.3494 -3.2345,0.4825 -10.454,0.4825 l -9.9715,0 0,8.2426 0,8.2426 12.786,0 c 9.4086,0 12.9136,0.1275 13.2686,0.4825 0.3049,0.3049 0.4825,1.8357 0.4825,4.1595 0,3.0516 -0.1251,3.7902 -0.7353,4.3424 -0.6596,0.597 -2.4735,0.6655 -17.6291,0.6655 -15.8558,0 -16.9347,-0.045 -17.5592,-0.7353 z m -46.641,0 c -0.6055,-0.669 -0.6654,-3.1987 -0.6654,-28.065 0,-20.7204 0.1166,-27.4464 0.4825,-27.8122 0.3603,-0.3604 4.8736,-0.4825 17.8301,-0.4825 20.3468,0 18.6785,-0.4193 18.6785,4.6937 0,4.8601 0.9546,4.5541 -14.2049,4.5541 l -12.7343,0 0,6.2322 0,6.2322 9.9715,0 c 7.2196,0 10.1047,0.1331 10.454,0.4825 0.3046,0.3045 0.4825,1.8316 0.4825,4.1414 0,2.3097 -0.1779,3.8368 -0.4825,4.1413 -0.3493,0.3494 -3.2344,0.4825 -10.454,0.4825 l -9.9715,0 0,8.2426 0,8.2426 12.8041,0 c 15.1661,0 14.1351,-0.3469 14.1351,4.7561 0,5.3003 1.548,4.8938 -18.6343,4.8938 -15.9839,0 -17.0667,-0.045 -17.6914,-0.7353 z m -32.0154,-34.346 c 2.5077,-1.2669 3.607,-3.0627 3.6051,-5.8896 0,-4.7249 -2.5358,-6.4906 -9.7489,-6.7964 l -4.3223,-0.1832 0,6.8869 0,6.887 4.3377,0 c 3.6996,0 4.601,-0.1331 6.1284,-0.9047 z m -20.2547,34.346 c -0.6054,-0.669 -0.6654,-3.1987 -0.6654,-28.065 0,-20.7204 0.1167,-27.4464 0.4825,-27.8122 0.3486,-0.3486 3.1694,-0.4825 10.1611,-0.4825 10.6124,0 13.1203,0.3779 16.794,2.5309 2.6495,1.5527 5.7263,5.1148 6.7579,7.8239 2.8943,7.6005 0.07,15.4278 -7.0836,19.6321 -0.6669,0.3919 0.098,1.6227 7.8454,12.6189 10.539,14.959 10.3898,14.2296 2.9464,14.4009 l -4.8995,0.1128 -1.4223,-1.9222 c -0.7823,-1.0571 -4.6501,-6.5359 -8.595,-12.175 l -7.1727,-10.253 -2.6801,-0.1189 -2.6801,-0.1189 0,11.4776 c 0,13.9426 0.3513,13.0859 -5.3657,13.0859 -3.1295,0 -3.8686,-0.1229 -4.4229,-0.7353 z m -44.2285,0 c -0.6054,-0.669 -0.6654,-3.1987 -0.6654,-28.065 0,-20.7204 0.1167,-27.4464 0.4825,-27.8122 0.6937,-0.6937 34.1262,-0.6937 34.8199,0 0.3046,0.3046 0.4825,1.8317 0.4825,4.1414 0,2.3097 -0.1779,3.8368 -0.4825,4.1414 -0.3544,0.3544 -3.7706,0.4825 -12.8665,0.4825 l -12.384,0 0,6.2322 0,6.2322 9.3865,0 c 11.2881,0 10.7174,-0.2597 10.7174,4.8767 0,2.113 -0.1832,3.5892 -0.4825,3.8885 -0.3482,0.3483 -3.1451,0.4825 -10.0519,0.4825 l -9.5695,0 0,12.4021 c 0,14.7926 0.3932,13.733 -5.0958,13.733 -3.0015,0 -3.7398,-0.1265 -4.2907,-0.7353 z m -68.8335,-34.4776 c 3.1876,-1.6721 4.414,-6.5535 2.3485,-9.3472 -1.6175,-2.1876 -3.7893,-2.9756 -8.811,-3.1972 l -4.5787,-0.2021 0,6.9251 0,6.925 4.7244,-0.1342 c 3.8272,-0.1087 5.0269,-0.2928 6.3168,-0.9694 z m -20.4277,34.4776 c -0.6054,-0.6691 -0.6654,-3.2009 -0.6654,-28.0962 0,-23.3507 0.085,-27.4315 0.5802,-27.8425 0.4279,-0.355 3.3052,-0.4437 10.9566,-0.3377 9.6106,0.1332 10.5428,0.2101 12.6302,1.0425 6.9349,2.7656 10.8137,8.1997 10.8137,15.1496 0,5.6334 -2.7581,10.5252 -7.5419,13.3761 l -1.3096,0.7805 8.6846,12.3404 c 8.5871,12.2016 8.6773,12.3514 8.0352,13.3314 -0.6301,0.9618 -0.7916,0.9912 -5.444,0.9912 l -4.7946,0 -8.5652,-12.2566 -8.5652,-12.2566 -2.714,-0.01 -2.7141,-0.01 0,11.5979 c 0,13.8707 0.3713,12.9288 -5.0958,12.9288 -3.0014,0 -3.7397,-0.1265 -4.2907,-0.7353 z m -105.3442,0 c -0.603,-0.6663 -0.6655,-2.9109 -0.6655,-23.9236 l 0,-23.1883 -8.1621,0 c -5.8123,0 -8.3011,-0.1389 -8.6447,-0.4825 -0.3046,-0.3046 -0.4825,-1.8317 -0.4825,-4.1414 0,-2.3097 0.1779,-3.8368 0.4825,-4.1414 0.3631,-0.3632 5.7631,-0.4825 21.8328,-0.4825 16.0697,0 21.4696,0.1193 21.8328,0.4825 0.3046,0.3046 0.4825,1.8317 0.4825,4.1414 0,2.3097 -0.1779,3.8368 -0.4825,4.1414 -0.3436,0.3436 -2.8324,0.4825 -8.6447,0.4825 l -8.1621,0 0,23.2581 c 0,22.0215 -0.039,23.2936 -0.7353,23.9236 -1.118,1.0118 -7.7206,0.9585 -8.6512,-0.07 z m -37.4056,-31.7378 c 3.3075,-1.7235 4.4435,-4.0519 4.0851,-8.3731 -0.4133,-4.9844 -3.9844,-7.001 -12.3974,-7.001 l -4.001,0 0,8.2891 0,8.2892 5.3275,-0.1701 c 4.4531,-0.1421 5.5997,-0.3119 6.9858,-1.0341 z m -22.1019,31.7378 c -0.6054,-0.669 -0.6654,-3.1987 -0.6654,-28.065 0,-20.7204 0.1166,-27.4464 0.4825,-27.8122 0.7637,-0.7638 20.2621,-0.6513 23.6029,0.1362 9.0086,2.1235 14.1067,8.7903 13.6152,17.8048 -0.256,4.6955 -1.3657,7.4736 -4.2141,10.5503 -1.6038,1.7322 -3.0342,2.7903 -5.0924,3.7668 -3.8565,1.8297 -6.1525,2.2401 -12.5319,2.2401 l -5.4082,0 0,10.253 c 0,12.5354 0.3049,11.8613 -5.3657,11.8613 -3.1295,0 -3.8687,-0.1229 -4.4229,-0.7353 z m -27.6046,-22.7179 c 0,-0.2697 -7.3233,-19.3896 -7.6493,-19.9712 -0.3006,-0.5361 -0.3624,-0.5361 -0.5564,0 -0.1199,0.3317 -1.851,4.9168 -3.8467,10.1892 -1.9958,5.2723 -3.6286,9.6599 -3.6286,9.7503 0,0.09 3.5282,0.1644 7.8405,0.1644 4.3123,0 7.8405,-0.06 7.8405,-0.1327 z m -34.6805,22.5429 c -0.561,-0.8561 0.08,-2.5578 10.7765,-28.5946 6.2552,-15.2264 11.5394,-27.8507 11.7427,-28.0541 0.2034,-0.2034 2.2539,-0.3179 4.5567,-0.2544 l 4.1869,0.1153 11.4998,27.9443 c 13.4967,32.7968 12.8836,29.7538 5.9936,29.7538 -2.9852,0 -4.4487,-0.1559 -4.7187,-0.5026 -0.2151,-0.2765 -1.5491,-3.4411 -2.9642,-7.0327 l -2.5731,-6.53 -11.6602,0 -11.6603,0 -2.573,6.53 c -1.4152,3.5916 -2.7491,6.7562 -2.9643,7.0327 -0.2699,0.3467 -1.7334,0.5026 -4.7186,0.5026 -4.0519,0 -4.3654,-0.058 -4.9238,-0.9103 z m -26.8001,-34.2011 c 3.1001,-1.6355 4.5152,-5.7431 2.9928,-8.6871 -1.5006,-2.9018 -4.4717,-4.0487 -10.4883,-4.0487 l -3.3979,0 0,6.8353 0,6.8353 4.5607,0 c 3.997,0 4.7796,-0.1155 6.3327,-0.9348 z m -20.2798,34.3761 c -0.6055,-0.669 -0.6655,-3.1987 -0.6655,-28.065 0,-20.7204 0.1167,-27.4464 0.4825,-27.8122 0.348,-0.348 3.1264,-0.4825 9.9675,-0.4825 10.0611,0 12.3029,0.2938 16.0871,2.1082 2.2533,1.0804 5.6583,4.4304 6.8223,6.7119 2.1495,4.2133 2.3359,9.6486 0.4753,13.8548 -0.9615,2.1737 -3.6805,5.2166 -5.9647,6.6754 l -1.6827,1.0746 6.9164,9.8169 c 3.804,5.3992 7.7111,10.9512 8.6823,12.3376 1.6307,2.3279 1.725,2.5972 1.2321,3.5182 -0.5237,0.9784 -0.6272,0.9974 -5.459,0.9974 l -4.9251,0 -8.5684,-12.2634 -8.5685,-12.2633 -2.7226,0 -2.7226,0 0,11.5979 c 0,13.8707 0.3713,12.9288 -5.0958,12.9288 -3.0014,0 -3.7397,-0.1265 -4.2906,-0.7353 z m -22.5164,0 c -0.6054,-0.669 -0.6654,-3.1987 -0.6654,-28.065 0,-20.7204 0.1167,-27.4464 0.4825,-27.8122 0.6595,-0.6596 8.4274,-0.6596 9.0869,0 0.3659,0.3658 0.4825,7.1074 0.4825,27.882 0,26.0337 -0.037,27.4328 -0.7353,28.065 -1.118,1.0118 -7.7205,0.9585 -8.6512,-0.07 z m -172.0891,0 c -0.6055,-0.669 -0.6654,-3.1987 -0.6654,-28.065 0,-20.7204 0.1166,-27.4464 0.4824,-27.8122 0.6596,-0.6596 8.4275,-0.6596 9.087,0 0.3642,0.3641 0.4825,6.183 0.4825,23.7225 l 0,23.2401 12.384,0 c 9.0958,0 12.5121,0.1281 12.8664,0.4825 0.305,0.3049 0.4825,1.8357 0.4825,4.1595 0,3.0516 -0.125,3.7902 -0.7352,4.3424 -0.6591,0.5965 -2.4456,0.6655 -17.227,0.6655 -15.4663,0 -16.5331,-0.046 -17.1572,-0.7353 z m -46.641,0 c -0.6054,-0.669 -0.6654,-3.1987 -0.6654,-28.065 0,-20.7204 0.1167,-27.4464 0.4825,-27.8122 0.6941,-0.6941 35.332,-0.6941 36.0261,0 0.3046,0.3046 0.4825,1.8317 0.4825,4.1414 0,2.3097 -0.1779,3.8368 -0.4825,4.1414 -0.355,0.355 -3.8599,0.4825 -13.2686,0.4825 l -12.786,0 0,6.2322 0,6.2322 9.7886,0 c 11.7027,0 11.1194,-0.2462 11.1194,4.6937 0,4.7727 0.5374,4.554 -11.1893,4.554 l -9.7187,0 0,8.2426 0,8.2426 12.786,0 c 9.4087,0 12.9136,0.1275 13.2686,0.4825 0.3049,0.3049 0.4825,1.8357 0.4825,4.1595 0,3.0516 -0.1251,3.7902 -0.7353,4.3424 -0.6599,0.5973 -2.4874,0.6655 -17.8301,0.6655 -16.0506,0 -17.1355,-0.045 -17.7603,-0.7353 z m -39.386,0.8491 c -0.1017,-0.1732 -5.2098,-12.7807 -11.3513,-28.0167 -8.5408,-21.1881 -11.071,-27.8533 -10.7606,-28.3464 0.3282,-0.5214 1.3204,-0.6661 5.1878,-0.7565 l 4.7819,-0.1118 8.2199,21.1204 c 4.521,11.6162 8.3206,21.1177 8.4436,21.1145 0.1231,0 2.6474,-6.2907 5.6096,-13.9722 2.9622,-7.6815 6.6408,-17.178 8.1747,-21.1032 l 2.7889,-7.1369 4.5108,0 c 4.5782,0 5.4967,0.2673 5.4572,1.5882 -0.01,0.3428 -5.0312,13.0172 -11.1577,28.1655 l -11.139,27.5423 -4.2904,0.1138 c -2.3597,0.063 -4.3736,-0.028 -4.4754,-0.201 z m 518.1838,-9.5759 c 8.7815,-2.2873 14.2878,-9.72 14.2878,-19.2865 0,-4.605 -0.9617,-7.9868 -3.2426,-11.4025 -8.1832,-12.2544 -27.0024,-10.93 -33.4748,2.3558 -6.5149,13.3726 2.5829,28.8249 17.0317,28.9279 1.6673,0.012 4.0965,-0.2557 5.3979,-0.5947 z m -12.4503,9.5038 c -6.6296,-1.809 -11.0206,-4.3777 -15.1997,-8.8914 -2.909,-3.142 -4.9881,-6.8123 -6.375,-11.2542 -0.8085,-2.589 -0.9403,-3.8403 -0.9316,-8.8457 0.01,-5.4872 0.083,-6.0373 1.2604,-9.3528 0.6877,-1.9375 1.8592,-4.5293 2.6034,-5.7595 5.6517,-9.343 16.2923,-14.7648 27.682,-14.105 4.8738,0.2823 7.9023,1.0114 11.8685,2.8571 9.7622,4.5429 15.938,13.8231 16.5648,24.8911 0.7953,14.0447 -7.3519,25.7001 -20.9877,30.0248 -4.0719,1.2915 -12.5295,1.5149 -16.4851,0.4356 z m -285.8542,-0.056 c -8.5582,-2.1673 -15.9813,-8.0439 -19.516,-15.4501 -3.5897,-7.5214 -3.8821,-17.4199 -0.7348,-24.8714 2.6342,-6.2365 7.6779,-11.5776 13.7411,-14.5515 4.5675,-2.2403 7.4117,-2.996 12.4022,-3.2953 6.3845,-0.3829 13.2265,1.1632 19.2559,4.3512 l 2.5721,1.36 0.1131,4.7035 c 0.1508,6.271 0.1637,6.2643 -6.0589,3.1462 -11.6065,-5.8158 -20.8563,-5.2525 -27.7925,1.6927 -7.9634,7.9736 -7.8066,21.1642 0.3419,28.768 4.056,3.7848 7.9119,5.2873 13.6152,5.3051 5.363,0.017 10.8711,-1.6447 16.0825,-4.8513 1.6867,-1.0379 2.1709,-1.1708 2.9583,-0.812 0.9083,0.4138 0.9414,0.5927 0.9414,5.0869 l 0,4.658 -3.7192,1.758 c -5.8458,2.7632 -8.8516,3.4778 -15.3795,3.6566 -4.6709,0.1279 -6.1726,0.016 -8.8228,-0.6546 z m -54.776,-10.0256 c 5.2253,-2.0007 9.8583,-6.9584 11.5149,-12.322 0.9123,-2.9536 1.0926,-8.3307 0.3827,-11.4129 -1.9689,-8.5489 -10.229,-14.9443 -19.1847,-14.8537 -9.7097,0.098 -17.6075,7.1952 -19.0544,17.1226 -1.4359,9.8519 4.6363,19.3621 14.1133,22.1039 2.8196,0.8157 9.317,0.4768 12.2282,-0.6379 z m -14.6374,10.0604 c -11.083,-2.8171 -18.9841,-10.713 -21.735,-21.7206 -1.1739,-4.6974 -0.9191,-11.5989 0.6015,-16.2965 2.999,-9.2645 10.4701,-16.3698 20.1605,-19.1733 2.7145,-0.7853 4.0954,-0.9258 8.8457,-0.8999 5.1646,0.028 5.937,0.1328 9.3604,1.2681 8.8075,2.9208 15.105,8.725 18.4488,17.0035 2.5086,6.2108 2.7281,14.0698 0.5719,20.4764 -1.7021,5.0572 -3.5616,8.0467 -7.2822,11.7076 -3.3863,3.332 -7.3404,5.6619 -12.2532,7.22 -4.0714,1.2913 -12.4519,1.4992 -16.7184,0.4147 z m 615.2807,114.0427 -0.8742,-0.9306 0,-45.6403 0,-45.6403 0.9306,-0.8742 0.9305,-0.8743 28.9541,0 28.9541,0 0.8743,0.9306 c 0.8146,0.8672 0.8742,1.3282 0.8742,6.7601 l 0,5.8295 -1.1277,1.0804 -1.1277,1.0805 -21.1876,0 -21.1876,0 0,10.2529 0,10.253 16.41,0 16.4099,0 1.0804,1.1277 c 1.0678,1.1146 1.0804,1.1937 1.0804,6.7811 0,5.1106 -0.08,5.7551 -0.8333,6.7128 l -0.8333,1.0594 -16.6571,0 -16.657,0 0,13.6707 0,13.6706 21.4411,0 21.441,0 0.8743,0.9306 c 0.8174,0.8701 0.8742,1.3227 0.8742,6.9662 0,5.7892 -0.038,6.0714 -0.9306,6.91 l -0.9306,0.8742 -28.9541,0 -28.9541,0 z m -143.7122,-38.1714 c -5.6771,-15.2989 -12.9848,-34.0107 -13.1927,-33.7809 -0.1533,0.1694 -2.9459,7.3644 -6.2058,15.989 -3.26,8.6245 -6.1679,16.269 -6.4622,16.9877 l -0.5349,1.3068 13.2911,0 c 10.4642,0 13.2513,-0.1069 13.1045,-0.5026 z m -57.9993,37.7478 -0.7382,-1.3708 19.1386,-46.5852 19.1386,-46.5853 7.2406,-0.1193 c 7.069,-0.1166 7.2515,-0.099 7.7057,0.7497 0.2558,0.478 8.9455,21.5087 19.3103,46.7349 l 18.8452,45.8658 -0.8233,1.3322 -0.8233,1.3322 -7.7073,0 -7.7071,0 -4.5638,-11.4582 -4.5638,-11.4582 -19.54,0.1043 -19.54,0.1043 -4.5035,11.2582 -4.5035,11.2581 -7.8135,0.1088 -7.8134,0.1088 -0.7383,-1.3708 z m -65.4638,0.2265 -1.0804,-1.1277 0,-45.258 c 0,-45.1775 0,-45.2599 0.8333,-46.3174 l 0.8334,-1.0595 6.736,0 c 6.5212,0 6.7639,0.03 7.6103,0.9306 l 0.8742,0.9306 0,38.6741 0,38.674 20.6369,0 20.6369,0 0.8743,0.9306 c 0.8174,0.8701 0.8742,1.3227 0.8742,6.9662 0,5.7892 -0.038,6.0714 -0.9306,6.91 l -0.9306,0.8742 -27.9437,0 -27.9438,0 z m -44.5394,-51.1648 c 4.8842,-0.7925 8.6562,-3.2646 10.5647,-6.9241 1.3384,-2.5664 1.5231,-8.8938 0.3505,-12.0085 -1.0896,-2.8942 -3.8116,-5.5089 -7.0812,-6.8021 -2.2053,-0.8722 -3.0908,-0.9579 -11.3383,-1.0975 l -8.9462,-0.1514 0,13.7041 0,13.704 6.9358,0 c 3.8147,0 8.0963,-0.1913 9.5147,-0.4215 z m -32.2574,51.1648 -1.0804,-1.1277 0,-45.258 c 0,-45.1775 0,-45.2599 0.8333,-46.3174 l 0.8334,-1.0595 16.4033,0 c 18.0533,0 20.6567,0.234 26.5534,2.386 8.5205,3.1096 14.36,9.0616 17.1859,17.5169 0.9746,2.916 1.075,3.7801 1.075,9.2478 0,5.4591 -0.1016,6.3362 -1.071,9.2477 -3.2794,9.8485 -11.4489,16.7511 -22.8466,19.3036 -2.1032,0.471 -5.7922,0.7314 -12.5301,0.8845 l -9.5493,0.2169 0,17.1692 0,17.1692 -0.9307,0.8743 c -0.8753,0.8224 -1.312,0.8742 -7.3632,0.8742 l -6.4326,0 z m -89.0653,0.1971 -0.8742,-0.9306 0,-45.6403 0,-45.6403 0.9306,-0.8742 c 0.8783,-0.8252 1.3055,-0.8743 7.6103,-0.8743 l 6.6797,0 0.8333,1.0595 c 0.8093,1.0288 0.8333,1.4928 0.8333,16.0831 0,8.263 0.098,15.0236 0.2171,15.0236 0.1194,0 7.8544,-7.2339 17.1888,-16.0753 l 16.9718,-16.0753 9.3483,-0.01 c 5.1415,0 9.3483,0.061 9.3483,0.1442 0,0.084 0.2694,0.7968 0.5987,1.5849 l 0.5987,1.433 -21.2885,19.1831 -21.2886,19.1831 3.7021,3.8894 c 2.0361,2.1391 12.7488,13.3332 23.8059,24.8758 11.0571,11.5425 20.16,21.2421 20.2287,21.5545 0.069,0.3124 -0.1622,1.123 -0.513,1.8013 l -0.6377,1.2332 -9.338,-0.013 -9.3379,-0.013 -19.7018,-21.4309 -19.7018,-21.431 -0.2011,20.5978 c -0.1906,19.5353 -0.2405,20.6414 -0.9669,21.4438 -0.7203,0.7956 -1.166,0.8461 -7.4689,0.8461 -6.4866,0 -6.7311,-0.03 -7.5772,-0.9306 z m -54.3186,-56.5016 c 4.8458,-1.8911 7.303,-5.4731 7.3539,-10.7199 0.047,-4.8615 -2.189,-8.0429 -6.9837,-9.9364 -1.9219,-0.759 -3.1983,-0.8945 -9.7504,-1.0347 l -7.5389,-0.1614 0,11.541 0,11.5409 7.3379,-0.177 c 6.3136,-0.1523 7.651,-0.2992 9.5812,-1.0525 z m -32.726,56.3045 -1.0804,-1.1277 0,-45.258 c 0,-45.1775 0,-45.2599 0.8333,-46.3174 l 0.8334,-1.0595 15.4154,0 c 16.5365,0 18.7294,0.1941 24.0269,2.1259 5.5743,2.0328 9.9699,5.4279 13.1146,10.1298 8.4524,12.6373 5.2102,28.6596 -7.4182,36.6593 -1.9252,1.2196 -2.8474,2.0328 -2.6261,2.3158 0.5622,0.7188 28.0245,39.8003 28.3289,40.3148 0.1546,0.2612 -0.027,1.1206 -0.4031,1.9098 l -0.6842,1.4349 -8.4697,-0.01 -8.4697,-0.01 -14.1939,-20.298 -14.1939,-20.298 -4.6032,0 -4.6032,0 0,19.4306 0,19.4307 -0.9306,0.8742 c -0.8754,0.8224 -1.3121,0.8743 -7.3632,0.8743 l -6.4327,0 -1.0804,-1.1277 z m -234.6347,-2.5915 c -0.8923,-2.709 -7.7113,-23.7386 -15.1534,-46.7324 l -13.5311,-41.807 0.7086,-1.3158 0.7086,-1.3159 7.7583,0 7.7583,0 0.3654,1.3068 c 1.2514,4.4748 20.7235,67.2998 20.9299,67.5285 0.1395,0.1545 4.4034,-13.8679 9.4754,-31.161 5.0719,-17.2931 9.6473,-32.8443 10.1676,-34.5582 l 0.946,-3.1161 7.3281,0 7.3281,0 9.9975,34.0761 c 5.4986,18.7418 10.1238,34.3141 10.2783,34.605 0.1589,0.2993 1.1901,-2.406 2.3756,-6.2322 1.1521,-3.7186 5.944,-19.2456 10.6485,-34.5045 l 8.5538,-27.7433 7.634,-0.1089 7.6338,-0.1089 0.8728,1.1803 0.8726,1.1804 -15.0704,46.522 c -8.2887,25.5871 -15.169,46.6814 -15.2894,46.8763 -0.1204,0.1948 -3.8197,0.3542 -8.2206,0.3542 l -8.0016,0 -0.7732,-2.5129 c -0.4253,-1.3822 -4.8103,-15.974 -9.7443,-32.4264 -6.4016,-21.3452 -9.0649,-29.6949 -9.2984,-29.1506 -0.1799,0.4195 -4.5788,14.8498 -9.7754,32.0672 -5.1965,17.2175 -9.5481,31.4661 -9.6702,31.6636 -0.122,0.1975 -3.8149,0.3591 -8.2064,0.3591 l -7.9845,0 z m 698.7579,5.4502 c -3.4404,-0.3684 -8.5261,-1.4755 -11.8167,-2.5723 -17.2053,-5.7345 -29.4973,-19.931 -32.5961,-37.6462 -0.7879,-4.5045 -0.8008,-13.4437 -0.026,-17.8875 2.2938,-13.1535 9.6836,-24.5588 20.6323,-31.8433 5.8852,-3.9156 12.7133,-6.6538 19.7856,-7.9345 4.8588,-0.8798 15.7903,-0.6752 20.7664,0.3887 6.7436,1.4417 15.8012,4.9457 20.9578,8.1076 l 1.3155,0.8065 -0.1092,7.7185 -0.1092,7.7185 -1.2548,0.7324 -1.2547,0.7324 -2.5662,-1.559 c -11.4953,-6.9837 -23.9031,-10.3099 -33.3216,-8.9327 -12.3394,1.8043 -22.1274,10.0813 -26.1801,22.1387 -1.1099,3.302 -1.3098,4.5345 -1.4748,9.0935 -0.2237,6.1831 0.2405,9.388 2.0621,14.2379 4.733,12.6005 16.8793,20.8884 30.6176,20.8917 3.4643,8e-4 9.4499,-0.8935 13.4696,-2.0126 3.6,-1.0022 10.9482,-4.4534 14.4876,-6.8044 l 2.5431,-1.6891 1.5366,0.6929 1.5366,0.693 0,7.7475 0,7.7475 -4.7244,2.4059 c -10.8747,5.538 -23.6787,8.1634 -34.2771,7.0284 z m -528.2057,-16.2511 c 7.6843,-1.189 15.3008,-5.5314 19.9445,-11.371 5.7176,-7.1902 8.2785,-16.172 7.2473,-25.4194 -1.3315,-11.9411 -7.8087,-21.2384 -18.3612,-26.3551 -8.5666,-4.1538 -19.9513,-4.1048 -28.3865,0.1222 -12.0693,6.0482 -19.009,18.1959 -18.2283,31.9076 1.1483,20.1682 18.1341,34.1562 37.7842,31.1157 z m -10.5781,16.2798 c -18.0424,-2.3006 -32.3224,-11.8585 -39.7712,-26.6195 -3.1154,-6.1736 -5.2614,-15.3858 -5.2614,-22.5853 0,-10.463 3.6908,-21.7737 9.7157,-29.7746 14.1686,-18.8156 40.8621,-24.9667 63.4155,-14.6133 11.538,5.2967 21.0176,15.98 24.9371,28.1037 2.9127,9.0098 3.4295,16.3266 1.7996,25.4813 -2.3298,13.0865 -9.6127,24.2825 -20.513,31.5349 -5.881,3.9129 -11.3871,6.1642 -18.854,7.709 -3.1356,0.6488 -12.6761,1.1199 -15.4683,0.7638 z m 511.725,470.0209 c -0.1554,-0.1553 -0.2825,-9.4438 -0.2825,-20.641 0,-15.2983 0.1199,-20.4785 0.4825,-20.841 0.2916,-0.2916 1.7056,-0.4825 3.5738,-0.4825 l 3.0914,0 11.8056,14.8793 11.8056,14.8794 0.2011,-14.4577 c 0.1346,-9.6819 0.3464,-14.6028 0.6412,-14.8973 0.2663,-0.2661 1.6959,-0.3929 3.6187,-0.3212 l 3.1785,0.1185 0,20.9081 0,20.908 -3.4317,0.1149 -3.4317,0.1149 -11.8472,-14.9443 -11.8473,-14.9443 -0.201,14.8294 -0.2011,14.8294 -3.4367,0.115 c -1.8902,0.063 -3.5638,-0.012 -3.7192,-0.1676 z m -34.3733,-0.2235 c -0.76,-0.76 -0.6994,-40.6628 0.063,-41.2953 0.3921,-0.3255 4.2975,-0.4264 13.5702,-0.3508 l 13.0195,0.1061 0.1189,2.9523 c 0.074,1.8304 -0.06,3.1673 -0.3509,3.5182 -0.3792,0.457 -2.2791,0.5659 -9.8692,0.5659 l -9.3996,0 0,4.4228 0,4.4229 7.4243,0 c 8.4935,0 8.2567,-0.1038 8.2567,3.6187 0,3.7225 0.2368,3.6187 -8.2567,3.6187 l -7.4243,0 0,6.024 0,6.024 9.7504,0.1077 9.7504,0.1076 0,3.2167 0,3.2166 -13.0823,0.1059 c -9.8389,0.08 -13.2031,-0.015 -13.5701,-0.382 z m -34.5786,0 c -0.76,-0.76 -0.6995,-40.6628 0.063,-41.2953 0.3921,-0.3255 4.2974,-0.4264 13.5701,-0.3508 l 13.0195,0.1061 0.1189,2.9523 c 0.074,1.8304 -0.06,3.1673 -0.3508,3.5182 -0.3793,0.457 -2.2792,0.5659 -9.8692,0.5659 l -9.3997,0 0,4.4228 0,4.4229 7.4243,0 c 8.4936,0 8.2568,-0.1038 8.2568,3.6187 0,3.7225 0.2368,3.6187 -8.2568,3.6187 l -7.4243,0 0,6.024 0,6.024 9.7504,0.1077 9.7504,0.1076 0,3.2167 0,3.2166 -13.0822,0.1059 c -9.8389,0.08 -13.2032,-0.015 -13.5701,-0.382 z m -22.3925,-25.89 c 1.3775,-0.6536 2.6049,-2.619 2.6049,-4.171 0,-1.4202 -1.1349,-3.1783 -2.5198,-3.9034 -0.7895,-0.4134 -2.6025,-0.7516 -4.6171,-0.8614 l -3.3171,-0.1807 0,4.8753 0,4.8754 3.2563,0 c 2.1325,0 3.7176,-0.2189 4.5928,-0.6342 z m 3.3263,18.5942 c 1.7646,-0.9456 2.8939,-2.8855 2.8958,-4.9741 0,-2.2845 -0.6633,-3.5853 -2.3795,-4.6527 -1.2498,-0.7773 -2.1122,-0.9133 -6.5653,-1.0357 l -5.1264,-0.1409 0,5.9118 0,5.9119 4.9254,-0.1552 c 3.7124,-0.117 5.2517,-0.3301 6.25,-0.8651 z m -18.3123,7.3141 c -0.7137,-0.7187 -0.7331,-40.5639 -0.02,-41.2768 0.6194,-0.6195 13.1091,-0.6634 15.9408,-0.056 3.1587,0.6774 6.0881,2.6603 7.5538,5.1132 2.3431,3.921 2.1409,8.2053 -0.535,11.3314 -0.7829,0.9146 -1.3567,1.7134 -1.2752,1.775 0.082,0.062 0.8049,0.5065 1.6074,0.9886 3.988,2.3961 6.2593,6.6564 5.8652,11.0016 -0.424,4.676 -2.9986,8.2204 -7.5069,10.335 -2.1735,1.0195 -2.4682,1.049 -11.6786,1.17 -7.1965,0.095 -9.5686,0 -9.9514,-0.3819 z m -41.2464,0.1908 c -0.1475,-0.1473 -0.2681,-4.5013 -0.2681,-9.6755 l 0,-9.4076 -7.0492,-10.6741 c -5.0498,-7.6465 -6.9809,-10.8895 -6.8083,-11.4334 0.2137,-0.6731 0.6681,-0.7593 4.0021,-0.7593 l 3.7611,0 4.756,7.8377 c 2.6158,4.3107 4.8472,7.8389 4.9588,7.8405 0.1115,0 2.36,-3.5316 4.9965,-7.8514 l 4.7938,-7.8543 3.8445,0.1143 c 3.365,0.1 3.8621,0.2066 3.9864,0.8554 0.086,0.4493 -2.5653,4.808 -6.7302,11.0649 l -6.872,10.3236 0,9.4612 c 0,6.8226 -0.1346,9.5958 -0.4825,9.9437 -0.5104,0.5103 -6.4094,0.694 -6.8889,0.2144 z m -43.4189,0.01 c -0.1505,-0.1504 -0.2736,-9.4348 -0.2736,-20.6321 0,-15.2982 0.12,-20.4784 0.4825,-20.841 0.2847,-0.2846 1.653,-0.4824 3.3373,-0.4824 1.6842,0 3.0525,0.1978 3.3372,0.4824 0.3602,0.3603 0.4825,4.8412 0.4825,17.6841 l 0,17.2014 9.3483,0.108 9.3483,0.1079 0,3.2166 0,3.2166 -12.8945,0.106 c -7.092,0.058 -13.0176,-0.017 -13.168,-0.1675 z m -27.8153,-7.0044 c 5.2126,-0.9077 9.3884,-4.4089 10.8677,-9.1118 1.016,-3.2301 0.6775,-8.0647 -0.7615,-10.8758 -2.918,-5.7006 -8.1446,-8.1534 -16.6405,-7.8091 l -2.9151,0.1182 0,14.0551 0,14.0551 3.4853,0 c 1.9168,0 4.6007,-0.1943 5.9641,-0.4317 z m -16.6064,6.7845 c -0.6954,-0.6954 -0.6954,-40.5577 0,-41.2532 0.7307,-0.7306 14.9999,-0.6368 18.6162,0.1224 8.531,1.7911 15.403,8.3227 17.046,16.2017 2.3482,11.2599 -4.437,21.8349 -15.8978,24.7773 -3.1452,0.8075 -18.987,0.9292 -19.7644,0.1518 z m -121.2062,-25.4561 c 0.846,-0.4997 1.5382,-1.3788 1.9643,-2.4944 0.5812,-1.5218 0.5912,-1.8977 0.086,-3.2241 -0.3219,-0.8457 -1.162,-1.8994 -1.9234,-2.4126 -1.1519,-0.7763 -1.8785,-0.9111 -4.9112,-0.9111 l -3.5592,0 0,5.0752 0,5.0751 3.5183,-0.1682 c 2.5125,-0.1201 3.8919,-0.3888 4.8248,-0.9399 z m -15.4854,25.4708 c -0.3817,-0.3817 -0.4972,-5.1848 -0.4972,-20.6725 0,-17.2226 0.086,-20.2467 0.5887,-20.6637 0.4304,-0.3573 2.6725,-0.4512 8.3431,-0.3496 7.3534,0.1318 7.8688,0.1928 9.9659,1.1792 3.1405,1.4772 4.6004,2.8555 6.0078,5.6719 1.027,2.0552 1.2296,2.9338 1.2296,5.333 0,4.2778 -1.7414,7.3641 -5.5677,9.8675 l -0.9247,0.6051 6.4468,9.1542 c 3.9333,5.5853 6.3578,9.3859 6.2187,9.7485 -0.1798,0.4685 -1.0649,0.5942 -4.1847,0.5942 l -3.9566,0 -6.3321,-9.0468 -6.3322,-9.0467 -1.9239,0 -1.9238,0 -0.1082,8.9462 -0.1082,8.9462 -3.2221,0.1153 c -2.1613,0.077 -3.3856,-0.048 -3.7192,-0.382 z m -17.5311,-23.5205 c 3.901,-1.9948 3.9667,-8.2394 0.1074,-10.2084 -1.2218,-0.6233 -2.3649,-0.7841 -5.5738,-0.7841 l -4.0368,0 0,6.085 0,6.0849 3.9746,-0.1914 c 2.8734,-0.1384 4.4051,-0.4115 5.5286,-0.986 z m -16.6455,23.5205 c -0.7087,-0.7088 -0.7229,-40.5596 -0.015,-41.2679 0.6344,-0.6344 13.9302,-0.658 16.8875,-0.03 6.3992,1.3589 10.1954,5.4253 10.6781,11.438 0.5241,6.5299 -2.897,11.5251 -9.2469,13.5014 -1.7065,0.5311 -3.6368,0.7431 -6.7662,0.7431 l -4.3785,0 -0.109,7.9411 -0.1091,7.941 -3.222,0.1152 c -2.1614,0.077 -3.3856,-0.048 -3.7192,-0.382 z m -70.9057,-18.9325 c -0.4606,-1.161 -1.6424,-4.2679 -2.6262,-6.9043 -2.2238,-5.9588 -2.3434,-6.1869 -2.7277,-5.202 -0.1605,0.4112 -1.2572,3.2807 -2.4371,6.3767 -1.1799,3.096 -2.3376,6.1267 -2.5727,6.7348 l -0.4275,1.1058 5.8143,0 5.8143,0 z m -25.0326,18.7883 c -0.1427,-0.3719 3.2326,-9.1109 8.0422,-20.822 4.5585,-11.0995 8.3758,-20.4072 8.483,-20.6836 0.134,-0.3457 1.2301,-0.5026 3.5115,-0.5026 l 3.3166,0 8.4968,20.6865 c 4.9045,11.9407 8.3934,20.9564 8.2521,21.3246 -0.2033,0.5295 -0.8591,0.6184 -3.8592,0.523 l -3.6144,-0.115 -1.9229,-4.8249 -1.923,-4.8249 -8.7311,0 -8.731,0 -1.923,4.8249 -1.923,4.8249 -3.6143,0.115 c -3.0067,0.096 -3.6557,0.01 -3.8603,-0.5259 z m -41.9742,0.1442 c -0.7088,-0.7088 -0.723,-40.5596 -0.015,-41.2679 0.2847,-0.2846 1.653,-0.4824 3.3373,-0.4824 1.6842,0 3.0526,0.1978 3.3372,0.4824 0.3411,0.3411 0.4825,2.6984 0.4825,8.0416 l 0,7.559 10.6551,0 10.655,0 0,-7.559 c 0,-5.3432 0.1415,-7.7005 0.4825,-8.0416 0.6931,-0.693 6.1238,-0.6398 6.7094,0.066 0.3286,0.396 0.4261,6.2341 0.3508,21.0086 l -0.1043,20.4602 -3.1542,0.1182 c -1.9794,0.074 -3.3646,-0.057 -3.7192,-0.3508 -0.4545,-0.3772 -0.565,-2.229 -0.565,-9.4664 l 0,-8.9976 -10.6476,0 -10.6477,0 -0.1079,9.3483 -0.1079,9.3483 -3.222,0.1153 c -2.1614,0.077 -3.3857,-0.048 -3.7193,-0.382 z m -40.6098,0 c -0.3792,-0.3792 -0.4972,-4.533 -0.4972,-17.5051 l 0,-17.0079 -5.7678,0 c -6.8421,0 -7.0987,-0.1328 -7.0987,-3.674 0,-3.8421 -1.2472,-3.589 17.0883,-3.4682 l 16.0831,0.1059 0.1189,2.9522 c 0.074,1.8305 -0.06,3.1673 -0.3508,3.5182 -0.3652,0.4401 -1.799,0.5659 -6.4473,0.5659 l -5.9777,0 -0.1048,17.3899 -0.1048,17.3898 -3.222,0.1153 c -2.1614,0.077 -3.3857,-0.048 -3.7192,-0.382 z m -26.5371,0 c -0.7088,-0.7088 -0.723,-40.5596 -0.015,-41.2679 0.6931,-0.693 6.1238,-0.6398 6.7094,0.066 0.3286,0.396 0.4261,6.2341 0.3508,21.0086 l -0.1043,20.4602 -3.222,0.1153 c -2.1613,0.077 -3.3856,-0.048 -3.7192,-0.382 z m 341.5893,0.5166 c -6.2395,-2.0522 -10.567,-6.5786 -12.1688,-12.7283 -0.8033,-3.0842 -0.9193,-28.2707 -0.1339,-29.0562 0.6404,-0.6403 6.0341,-0.6403 6.6745,0 0.3556,0.3556 0.4825,3.936 0.4825,13.6107 0,8.8957 0.1502,13.5687 0.4659,14.4949 0.9472,2.7791 2.6334,4.6762 5.3411,6.0092 2.39,1.1766 2.8368,1.2615 5.9394,1.1295 2.6184,-0.1115 3.793,-0.3684 5.3499,-1.17 2.2458,-1.1563 4.378,-3.6806 4.9996,-5.9189 0.2472,-0.89 0.4169,-6.8199 0.4182,-14.6164 0,-10.7753 0.1032,-13.2026 0.5673,-13.5877 0.3545,-0.2943 1.7397,-0.4249 3.7192,-0.3508 l 3.1542,0.1181 0,14.4748 c 0,14.1137 -0.023,14.531 -0.9118,16.7285 -2.0325,5.0239 -5.5505,8.5413 -10.457,10.4552 -3.2557,1.27 -10.1795,1.4799 -13.4403,0.4074 z m -37.5474,-7.3078 c 3.0815,-1.153 5.9496,-3.8592 7.5611,-7.1345 1.2245,-2.4885 1.3191,-2.9695 1.3191,-6.7085 0,-3.6366 -0.114,-4.2601 -1.1737,-6.4184 -1.4949,-3.0446 -4.0728,-5.6225 -6.9899,-6.9898 -1.9997,-0.9374 -2.7752,-1.07 -6.1101,-1.0448 -4.649,0.035 -6.6667,0.8149 -9.8174,3.7947 -3.124,2.9546 -4.4217,6.0089 -4.44,10.4502 -0.017,4.0953 0.7527,6.5904 2.9141,9.4488 1.515,2.0034 4.8297,4.3319 7.1214,5.0025 2.3402,0.6848 7.2629,0.4799 9.6154,-0.4002 z m -12.5119,7.089 c -9.4358,-3.0561 -15.0894,-10.8023 -15.1357,-20.738 -0.03,-6.5773 2.0331,-11.5435 6.5788,-15.8317 4.7911,-4.5197 10.6347,-6.6065 17.2497,-6.16 11.5291,0.778 19.9339,8.9835 20.8077,20.3143 0.8133,10.546 -6.0022,20.0375 -16.3692,22.7964 -3.4771,0.9253 -9.6513,0.7461 -13.1313,-0.381 z m -127.1755,0.4212 c -2.979,-0.8658 -4.9172,-2.0574 -7.0988,-4.364 -1.7687,-1.8702 -4.479,-6.2 -4.0859,-6.5274 1.0166,-0.8468 5.6068,-3.4325 6.0935,-3.4325 0.3644,0 1.0306,0.7538 1.5103,1.7088 2.1383,4.2575 4.4555,5.9058 8.3253,5.9218 3.7678,0.016 6.1071,-2.0858 6.1102,-5.4888 0,-2.4625 -1.542,-3.7642 -8.2606,-6.9625 -8.6937,-4.1388 -10.8101,-6.503 -10.8273,-12.095 -0.01,-2.6048 0.1658,-3.3863 1.2041,-5.4166 3.2046,-6.2661 11.9695,-8.4929 19.037,-4.8365 1.5586,0.8064 4.5729,3.4947 5.7118,5.0941 l 0.7795,1.0946 -2.5718,2.0464 c -1.4144,1.1255 -2.8324,2.0464 -3.151,2.0464 -0.3187,0 -1.1769,-0.7435 -1.9072,-1.6522 -2.2434,-2.7917 -5.6889,-3.8359 -8.618,-2.6121 -2.5684,1.0732 -3.3985,3.6105 -1.8324,5.6013 0.481,0.6115 3.372,2.2899 6.9841,4.0546 8.7634,4.2813 11.0786,6.7911 11.4191,12.3789 0.2336,3.8342 -0.7418,6.6682 -3.2333,9.3944 -2.8573,3.1263 -5.5659,4.315 -10.1606,4.4588 -2.1373,0.067 -4.3593,-0.1019 -5.428,-0.4125 z m 462.8715,365.9609 c -0.3603,-0.3603 -0.4825,-4.8428 -0.4825,-17.6914 l 0,-17.2089 -5.9507,0 c -4.0923,0 -6.1015,-0.1507 -6.4333,-0.4825 -0.6827,-0.6827 -0.63,-5.3278 0.067,-5.9062 0.3941,-0.3271 5.0824,-0.4262 16.5857,-0.3508 l 16.0363,0.1052 0,3.2166 0,3.2166 -6.3327,0.1108 -6.3327,0.1107 0,17.1987 c 0,12.8406 -0.1223,17.321 -0.4825,17.6812 -0.2847,0.2846 -1.653,0.4825 -3.3373,0.4825 -1.6842,0 -3.0525,-0.1979 -3.3372,-0.4825 z m -67.0636,-19.5209 c -0.5696,-1.4927 -1.8625,-4.9327 -2.8731,-7.6444 -1.0107,-2.7118 -1.8951,-4.8729 -1.9654,-4.8026 -0.07,0.07 -1.2905,3.1937 -2.7114,6.9408 -1.4209,3.7471 -2.7119,7.1296 -2.8687,7.5166 -0.2638,0.651 0.1538,0.7036 5.5845,0.7036 l 5.8697,0 z m -24.6917,19.3988 c -0.4151,-0.5002 0.9593,-4.1612 7.9623,-21.2096 l 8.464,-20.605 3.3765,-0.1152 c 3.182,-0.1084 3.4005,-0.062 3.7929,0.8042 0.2291,0.5056 4.0796,9.8343 8.5568,20.7304 6.6638,16.2179 8.0509,19.9189 7.6471,20.4055 -0.3624,0.4367 -1.3751,0.5943 -3.8181,0.5943 l -3.3249,0 -2.0975,-5.227 -2.0975,-5.227 -8.5575,0 -8.5576,0 -2.0975,5.227 -2.0975,5.227 -3.3249,0 c -2.4684,0 -3.454,-0.1558 -3.8266,-0.6046 z m -29.27,0.1221 c -0.3624,-0.3625 -0.4825,-5.502 -0.4825,-20.6578 0,-16.8381 0.093,-20.2528 0.565,-20.6441 0.3546,-0.2943 1.7398,-0.425 3.7192,-0.3508 l 3.1542,0.1181 0.1048,17.3898 0.1048,17.3899 9.0138,0 c 7.6582,0 9.1088,0.095 9.6456,0.6318 0.7719,0.7719 0.8845,5.3879 0.1493,6.1231 -0.3546,0.3546 -3.7974,0.4825 -12.9871,0.4825 -9.1897,0 -12.6325,-0.1279 -12.9871,-0.4825 z m -48.2842,-0.066 c -0.3286,-0.3959 -0.426,-6.2341 -0.3508,-21.0085 l 0.1043,-20.4603 13.4696,0 13.4695,0 0.1197,2.7502 c 0.073,1.6814 -0.063,2.9705 -0.3507,3.3171 -0.3803,0.4583 -2.2721,0.567 -9.8701,0.567 l -9.3996,0 0,4.615 0,4.615 7.5389,0.1094 7.539,0.1094 0,3.2166 0,3.2166 -7.539,0.1094 -7.5389,0.1094 0,6.0223 0,6.0223 9.3684,0 c 6.7504,0 9.5032,0.1348 9.8509,0.4825 0.2778,0.2778 0.4825,1.6083 0.4825,3.1362 0,1.5279 -0.2047,2.8584 -0.4825,3.1362 -0.7472,0.7472 -25.7882,0.6848 -26.4112,-0.066 z m -45.8019,0.066 c -0.3624,-0.3625 -0.4825,-5.502 -0.4825,-20.6578 0,-16.8381 0.093,-20.2528 0.565,-20.6441 0.3546,-0.2943 1.7397,-0.425 3.7192,-0.3508 l 3.1542,0.1181 0.109,7.941 0.1091,7.941 10.6465,0 10.6466,0 0,-7.5902 c 0,-6.0288 0.1162,-7.6867 0.565,-8.0591 0.3545,-0.2943 1.7397,-0.425 3.7192,-0.3508 l 3.1542,0.1181 0.1042,20.4603 c 0.075,14.7744 -0.022,20.6126 -0.3507,21.0085 -0.5856,0.7056 -6.0164,0.7588 -6.7094,0.066 -0.3471,-0.3471 -0.4825,-3.0558 -0.4825,-9.6499 l 0,-9.1673 -10.6551,0 -10.655,0 0,9.1673 c 0,6.5941 -0.1354,9.3028 -0.4825,9.6499 -0.2847,0.2846 -1.653,0.4825 -3.3373,0.4825 -1.6842,0 -3.0525,-0.1979 -3.3372,-0.4825 z m -26.5371,0 c -0.3603,-0.3603 -0.4825,-4.8428 -0.4825,-17.6914 l 0,-17.2089 -5.982,0 c -4.657,0 -6.0861,-0.1256 -6.4524,-0.567 -0.2876,-0.3466 -0.424,-1.6357 -0.3507,-3.3171 l 0.1197,-2.7502 16.4851,0 16.4852,0 0.1197,2.7502 c 0.073,1.6814 -0.063,2.9705 -0.3508,3.3171 -0.3663,0.4414 -1.7954,0.567 -6.4524,0.567 l -5.9819,0 0,17.2089 c 0,12.8486 -0.1223,17.3311 -0.4825,17.6914 -0.2847,0.2846 -1.653,0.4825 -3.3373,0.4825 -1.6842,0 -3.0525,-0.1979 -3.3372,-0.4825 z m -58.3361,-0.066 c -0.3286,-0.3959 -0.4261,-6.2341 -0.3508,-21.0085 l 0.1042,-20.4603 13.4696,0 13.4696,0 0,3.2166 0,3.2166 -9.7504,0.1077 -9.7504,0.1077 0,4.6078 0,4.6079 7.539,0.1094 7.5389,0.1094 0,3.2166 0,3.2166 -7.5389,0.1094 -7.539,0.1094 0,6.0223 0,6.0223 9.3684,0 c 6.7505,0 9.5033,0.1348 9.8509,0.4825 0.2778,0.2778 0.4825,1.6083 0.4825,3.1362 0,1.5279 -0.2047,2.8584 -0.4825,3.1362 -0.7472,0.7472 -25.7882,0.6848 -26.4111,-0.066 z m -91.2716,0 c -0.3286,-0.3959 -0.426,-6.2341 -0.3508,-21.0085 l 0.1042,-20.4603 3.6052,0 3.6052,0 11.6737,14.7141 11.6738,14.7141 0.1057,-14.2771 c 0.074,-9.9615 0.2443,-14.4441 0.5645,-14.8298 0.3362,-0.4052 1.3287,-0.522 3.714,-0.4371 l 3.2553,0.1158 0,20.908 0,20.908 -3.4177,0.099 -3.4176,0.099 -11.8613,-14.9934 -11.8613,-14.9934 -0.1056,14.4573 c -0.072,9.8544 -0.2477,14.6285 -0.5518,14.995 -0.6216,0.7489 -6.1123,0.7403 -6.7355,-0.01 z m -16.9101,-0.2135 c -0.2819,-0.5266 -0.4248,-7.4824 -0.4248,-20.6737 0,-16.5846 0.094,-19.9578 0.565,-20.3489 0.3546,-0.2943 1.7398,-0.425 3.7193,-0.3508 l 3.1542,0.1181 0,20.908 0,20.908 -3.2945,0.1164 c -2.9353,0.1038 -3.3408,0.03 -3.7192,-0.6771 z m -112.5239,0.2793 c -0.3474,-0.3474 -0.4851,-3.1336 -0.4917,-9.9514 l -0.01,-9.469 -7.0079,-10.637 c -5.3038,-8.0502 -6.9029,-10.7635 -6.5758,-11.1576 0.2967,-0.3575 1.5976,-0.5207 4.1515,-0.5207 l 3.7195,0 4.7636,7.8095 c 2.6199,4.2952 4.8593,7.7492 4.9764,7.6754 0.1172,-0.074 2.2937,-3.5808 4.8369,-7.7934 l 4.6239,-7.6595 3.8772,-0.016 c 3.2726,-0.014 3.9177,0.09 4.137,0.6609 0.1792,0.467 -1.926,3.956 -6.7923,11.2569 l -7.0521,10.5802 0,9.3696 c 0,6.7514 -0.1348,9.5045 -0.4824,9.8522 -0.2847,0.2846 -1.653,0.4825 -3.3373,0.4825 -1.6842,0 -3.0526,-0.1979 -3.3372,-0.4825 z m -31.2395,-17.5106 c -0.1569,-0.387 -1.4478,-3.7695 -2.8688,-7.5166 -1.4209,-3.7471 -2.641,-6.8705 -2.7114,-6.9408 -0.07,-0.07 -0.9547,2.0908 -1.9653,4.8025 -1.0107,2.7118 -2.3036,6.1518 -2.8731,7.6445 l -1.0356,2.714 5.8697,0 c 5.4307,0 5.8483,-0.053 5.5845,-0.7036 z m -25.5216,17.4045 c -0.3973,-0.4786 1.0288,-4.285 7.6454,-20.4054 4.4735,-10.8993 8.3219,-20.2307 8.5519,-20.7363 0.3939,-0.8662 0.613,-0.9127 3.7946,-0.8042 l 3.3765,0.1152 8.464,20.605 c 7.003,17.0484 8.3774,20.7094 7.9622,21.2096 -0.3725,0.4488 -1.3581,0.6045 -3.8266,0.6045 l -3.3248,0 -2.0976,-5.227 -2.0975,-5.227 -8.5575,0 -8.5575,0 -2.0976,5.227 -2.0975,5.227 -3.3249,0 c -2.4279,0 -3.4565,-0.1587 -3.8131,-0.5884 z m -20.8319,-7.7711 c 2.5448,-1.1388 5.3812,-3.8238 6.6555,-6.3002 0.8333,-1.6192 1.0762,-2.7537 1.2084,-5.6452 0.2235,-4.8853 -0.741,-7.5289 -3.8993,-10.6872 -3.1843,-3.1843 -5.61,-4.0536 -11.994,-4.2987 l -4.9255,-0.189 0,14.1669 0,14.1668 5.5286,-0.1821 c 4.4898,-0.1479 5.8851,-0.3416 7.4263,-1.0313 z m -20.0917,7.9083 c -0.7136,-0.7295 -0.733,-40.5715 -0.02,-41.2844 0.7582,-0.7582 16.355,-0.6566 19.4363,0.1267 10.0684,2.5593 16.6702,10.6778 16.6702,20.4999 0,9.0544 -5.5064,16.5648 -14.5227,19.8081 -2.8152,1.0127 -3.4323,1.0751 -12.0144,1.2155 -6.9705,0.114 -9.1621,0.03 -9.5493,-0.3658 z m 582.9117,0.839 c -2.6695,-0.5583 -6.4286,-2.543 -8.1169,-4.2856 -1.3784,-1.4226 -4.3475,-5.9331 -4.3475,-6.6045 0,-0.1631 1.3327,-1.1273 2.9617,-2.1426 3.0914,-1.9267 4.0429,-2.0294 4.5045,-0.4859 0.5504,1.8408 2.6372,4.5681 4.1428,5.4143 3.4,1.9109 7.0899,1.5265 9.2789,-0.9667 0.9885,-1.1259 1.2263,-1.7569 1.2263,-3.2543 0,-1.63 -0.1884,-2.0369 -1.5379,-3.3206 -0.9267,-0.8815 -3.2839,-2.2382 -5.9307,-3.4133 -7.3519,-3.264 -9.9055,-5.3236 -11.2201,-9.0495 -1.8278,-5.1807 0.798,-11.3276 5.9737,-13.9843 2.6756,-1.3734 7.8626,-1.7327 11.163,-0.7733 2.7399,0.7965 6.1865,3.2365 7.8505,5.5578 l 1.2725,1.775 -2.3816,1.9058 c -3.1042,2.484 -3.3526,2.5536 -4.4597,1.2502 -2.4855,-2.9263 -4.072,-3.7951 -6.93,-3.7951 -3.1771,0 -5.0578,1.5692 -5.0578,4.2201 0,1.6564 1.574,2.8277 7.8819,5.8653 8.8241,4.2492 11.4178,7.2686 11.4178,13.2916 0,5.2273 -3.3994,10.1592 -8.2546,11.9757 -2.7355,1.0235 -6.7822,1.3751 -9.4368,0.8199 z m -291.7072,0.032 c -6.5966,-1.4331 -12.3403,-5.546 -15.2748,-10.9376 -1.4082,-2.5873 -2.6176,-7.5643 -2.6176,-10.7722 0,-9.9429 6.7607,-18.5966 16.5173,-21.1421 3.9486,-1.0302 10.8623,-0.6556 14.8447,0.8043 1.6586,0.608 3.6941,1.481 4.5234,1.9399 l 1.5078,0.8344 0,3.5573 c 0,2.7963 -0.1295,3.607 -0.6051,3.7895 -0.3328,0.1277 -2.0065,-0.4936 -3.7192,-1.3807 -4.1754,-2.1626 -6.8669,-2.8975 -10.6105,-2.8975 -5.9111,0 -10.6618,2.9584 -13.0477,8.1254 -1.0429,2.2585 -1.1681,2.9606 -1.1681,6.5504 0,3.5173 0.1344,4.3076 1.0736,6.3112 1.3695,2.9218 4.1681,5.7204 7.0899,7.09 2.0485,0.9602 2.7365,1.07 6.5123,1.0393 4.5721,-0.037 7.6517,-0.9056 11.2369,-3.1689 2.7003,-1.7046 3.0177,-1.4187 3.1516,2.8402 l 0.1147,3.6485 -2.7282,1.2414 c -1.5006,0.6827 -3.7234,1.5398 -4.9397,1.9045 -2.5601,0.7677 -9.5134,1.1328 -11.8613,0.6227 z m -105.5453,0.1314 c -3.7969,-0.7295 -6.9327,-2.3209 -9.1213,-4.6287 -1.2297,-1.2967 -4.1472,-5.814 -4.1472,-6.4213 0,-0.1611 1.2864,-1.0996 2.8586,-2.0853 3.0064,-1.8849 4.1562,-2.0235 4.5298,-0.546 0.1205,0.4767 0.7709,1.7353 1.4454,2.797 2.0415,3.2134 6.4849,4.734 9.7939,3.3514 2.1362,-0.8926 3.4865,-2.8185 3.4865,-4.9727 0,-1.6141 -0.1915,-2.023 -1.5557,-3.3207 -0.9564,-0.9098 -3.2194,-2.2085 -5.8739,-3.371 -5.2805,-2.3126 -8.2095,-4.146 -9.6584,-6.0455 -4.209,-5.5184 -2.1097,-13.6861 4.373,-17.0137 1.619,-0.831 2.8062,-1.0954 5.5457,-1.2348 4.1426,-0.2109 7.0039,0.5353 9.8724,2.5747 1.7783,1.2643 4.5343,4.3161 4.5343,5.0209 0,0.3676 -4.8552,4.3845 -5.2995,4.3845 -0.1569,0 -1.0642,-0.8383 -2.0163,-1.863 -2.0294,-2.1842 -3.6368,-2.9619 -6.1219,-2.9619 -3.1771,0 -5.0579,1.5692 -5.0579,4.2201 0,1.6525 1.5718,2.8266 7.7962,5.824 6.9721,3.3574 9.7112,5.6752 10.8857,9.2112 0.9021,2.716 0.6865,6.7049 -0.5085,9.4064 -1.1931,2.6971 -4.3711,5.6595 -7.2116,6.7223 -2.2784,0.8524 -6.5768,1.3311 -8.5493,0.9521 z m -50.9075,-0.3211 c -1.3515,-0.3074 -3.1932,-0.9344 -4.0927,-1.3933 -2.2614,-1.1537 -5.3549,-4.4054 -6.8377,-7.1875 l -1.2417,-2.3296 2.9696,-1.8934 c 1.6478,-1.0505 3.2339,-1.7919 3.5632,-1.6655 0.3266,0.1253 1.0678,1.1968 1.6472,2.3811 2.2924,4.6856 6.7162,6.5639 10.9413,4.6455 2.1116,-0.9587 3.1474,-2.5072 3.1474,-4.7052 0,-2.5706 -1.4369,-3.8109 -8.1319,-7.0187 -8.4631,-4.0551 -11.0247,-6.8269 -11.0733,-11.9821 -0.048,-5.151 2.8803,-9.518 7.5602,-11.2725 1.9787,-0.7419 3.0309,-0.8753 6.0266,-0.7645 4.7408,0.1755 8.0182,1.678 11.0292,5.0562 1.1152,1.2513 2.0277,2.3874 2.0277,2.5247 0,0.6131 -5.2335,4.387 -5.7884,4.174 -0.3315,-0.1272 -1.075,-0.8504 -1.6523,-1.6073 -1.4582,-1.9118 -3.7213,-2.9769 -6.3255,-2.9769 -2.5094,0 -3.7666,0.7284 -4.5681,2.6468 -1.1023,2.638 0.3921,4.2164 6.674,7.0484 6.6689,3.0066 10.0677,5.6931 11.5715,9.1463 0.9663,2.2187 0.8616,7.0308 -0.2042,9.3912 -2.7957,6.1919 -9.9797,9.4344 -17.2421,7.7823 z m 460.2924,106.9981 -0.8743,-0.9306 0,-39.0761 0,-39.0761 -13.5481,0 -13.5481,0 -1.1277,-1.0804 -1.1277,-1.0805 0,-5.8807 0,-5.8807 1.1277,-1.0804 1.1277,-1.0804 35.7933,0 35.7934,0 0.8742,0.9306 c 0.8174,0.8701 0.8742,1.3228 0.8742,6.9611 l 0,6.0305 -1.1277,1.0805 -1.1277,1.0804 -13.5481,0 -13.5481,0 0,39.3413 c 0,37.6025 -0.033,39.3706 -0.7353,40.0067 -0.6235,0.5642 -1.7744,0.6654 -7.5694,0.6654 -6.6237,0 -6.861,-0.029 -7.7083,-0.9306 z m -131.4793,0 -0.8743,-0.9306 0,-46.2434 0,-46.2434 0.9306,-0.8743 c 0.8824,-0.8289 1.2956,-0.8742 7.9795,-0.8742 l 7.0488,0 27.3029,34.392 27.3028,34.3921 0.1029,-33.2668 0.1028,-33.2668 1.0781,-1.1253 1.0781,-1.1252 6.4838,0 6.4838,0 1.0805,1.1277 1.0804,1.1277 0,46.0463 0,46.0463 -0.9306,0.8743 c -0.8844,0.8307 -1.2905,0.8742 -8.1714,0.8742 l -7.2409,0 -27.3119,-34.4102 -27.3119,-34.4102 -0.1028,33.6775 c -0.094,30.6359 -0.1627,33.7436 -0.7659,34.4101 -0.5926,0.6548 -1.3981,0.7328 -7.5671,0.7328 -6.6968,0 -6.9302,-0.028 -7.7782,-0.9306 z m -78.8072,0 -0.8742,-0.9306 0,-46.0372 0,-46.0373 1.1277,-1.0804 1.1277,-1.0804 29.159,0 29.1591,0 0.8742,0.9306 c 0.8174,0.8701 0.8743,1.3228 0.8743,6.9611 l 0,6.0305 -1.1277,1.0805 -1.1278,1.0804 -21.3886,0 -21.3886,0 0,10.454 0,10.454 16.6161,0 16.6162,0 0.8742,0.9306 c 0.8175,0.8702 0.8742,1.3227 0.8742,6.9663 0,5.7891 -0.038,6.0714 -0.9306,6.9099 -0.9243,0.8684 -1.0414,0.8742 -17.4903,0.8742 l -16.5598,0 0,13.8717 0,13.8717 21.6421,0 21.6421,0 0.8742,0.9306 c 0.8175,0.8701 0.8743,1.3227 0.8743,6.9662 0,5.7892 -0.038,6.0714 -0.9306,6.91 l -0.9306,0.8742 -29.3562,0 -29.3562,0 z m -60.7838,-15.918 c 1.8797,-0.475 5.1366,-1.7104 7.2374,-2.7454 3.1893,-1.5712 4.4246,-2.4819 7.4846,-5.5182 3.1226,-3.0983 3.9403,-4.2015 5.5262,-7.4561 2.4965,-5.1232 3.1148,-7.6828 3.3509,-13.8716 0.2836,-7.4375 -0.9134,-12.4222 -4.3578,-18.1471 -4.3722,-7.2669 -13.0742,-13.1559 -21.9492,-14.854 -2.0462,-0.3915 -5.904,-0.5724 -12.2043,-0.5724 l -9.2124,0 0,32.21 0,32.21 10.3535,-0.1957 c 8.8293,-0.167 10.8566,-0.323 13.7711,-1.0595 z m -40.5147,15.9445 -0.8992,-0.9572 0,-46.0373 0,-46.0372 1.1617,-1.113 1.1617,-1.113 18.0375,0.1813 c 19.9101,0.2001 21.3254,0.3415 28.9516,2.8919 16.4318,5.4952 28.1424,17.4754 32.2358,32.9779 3.715,14.0697 0.7656,29.429 -7.81,40.6712 -6.8602,8.9933 -16.1312,14.8902 -28.5046,18.1306 l -4.0208,1.053 -19.7072,0.1545 -19.7072,0.1545 z m -37.8203,-0.026 -0.8742,-0.9306 0,-46.2434 0,-46.2434 0.9306,-0.8743 c 0.8778,-0.8247 1.3065,-0.8742 7.5693,-0.8742 6.4196,0 6.6677,0.03 7.5131,0.9306 l 0.8742,0.9306 0,46.2434 0,46.2434 -0.9306,0.8743 c -0.8778,0.8247 -1.3065,0.8742 -7.5693,0.8742 -6.4196,0 -6.6677,-0.031 -7.5131,-0.9306 z m -207.874,0 -0.8742,-0.9306 0,-46.0372 0,-46.0373 1.1277,-1.0804 1.1277,-1.0804 6.8886,0 6.8886,0 24.6568,31.0605 c 13.5613,17.0832 25.831,32.5518 27.266,34.3746 l 2.6092,3.3141 0.1028,-33.2494 0.1029,-33.2493 1.078,-1.1253 1.0781,-1.1252 6.4839,0 6.4838,0 1.0804,1.1277 1.0804,1.1277 0,46.0463 0,46.0463 -0.9305,0.8743 c -0.8845,0.8309 -1.2879,0.8739 -8.1421,0.8694 l -7.2115,0 -27.1402,-34.1996 -27.1403,-34.1996 -0.201,33.3581 c -0.1934,32.0865 -0.2302,33.3904 -0.967,34.2044 -0.722,0.7976 -1.1621,0.8462 -7.6699,0.8462 -6.6967,0 -6.9302,-0.028 -7.7782,-0.9306 z m -38.2382,-0.1288 c -0.8321,-1.0577 -0.8334,-1.1324 -0.8334,-46.9679 l 0,-45.9084 1.1278,-1.0804 c 1.1271,-1.0798 1.1309,-1.0804 7.5169,-1.0804 6.386,0 6.3898,0 7.5169,1.0804 l 1.1277,1.0804 0,46.0936 0,46.0936 -0.9305,0.8743 c -0.8807,0.8272 -1.3001,0.8742 -7.8113,0.8742 l -6.8808,0 z m 188.5451,2.8845 c -0.3317,-0.079 -1.9602,-0.3616 -3.6187,-0.6271 -17.3101,-2.7711 -32.4597,-15.2814 -38.3419,-31.6619 -1.9609,-5.4607 -2.8005,-10.5687 -2.8243,-17.1823 -0.024,-6.7435 0.4765,-10.2658 2.2574,-15.882 7.8566,-24.7753 33.5539,-38.8071 60.7226,-33.157 5.1923,1.0798 10.8341,3.1235 16.5846,6.0079 l 5.629,2.8234 0.1092,7.7274 0.1092,7.7274 -1.6058,0.8192 -1.6059,0.8193 -2.7251,-1.6765 c -8.953,-5.5075 -20.4187,-9.1846 -28.6387,-9.1846 -16.1798,0 -29.4322,11.0704 -32.4734,27.1265 -0.8339,4.4027 -0.5112,12.1673 0.6768,16.2823 3.9145,13.5594 15.2982,22.8159 29.4737,23.9661 9.1172,0.7397 20.1229,-2.2371 29.5665,-7.9972 2.0584,-1.2555 3.9219,-2.2827 4.1413,-2.2827 0.2193,0 0.9363,0.278 1.5934,0.6178 l 1.1947,0.6178 -0.109,7.9036 -0.1089,7.9037 -4.4752,2.2853 c -9.2456,4.7214 -17.4801,6.793 -27.8921,7.0168 -3.87,0.083 -7.3077,0.086 -7.6394,0.01 z" />
  </g>
</svg>
