<?xml version="1.0" encoding="UTF-8" standalone="no"?>
<!-- Created with Inkscape (http://www.inkscape.org/) -->

<svg
   xmlns:dc="http://purl.org/dc/elements/1.1/"
   xmlns:cc="http://creativecommons.org/ns#"
   xmlns:rdf="http://www.w3.org/1999/02/22-rdf-syntax-ns#"
   xmlns:svg="http://www.w3.org/2000/svg"
   xmlns="http://www.w3.org/2000/svg"
   xmlns:sodipodi="http://sodipodi.sourceforge.net/DTD/sodipodi-0.dtd"
   xmlns:inkscape="http://www.inkscape.org/namespaces/inkscape"
   width="850.39368"
   height="1286.8484"
   id="svg2"
   version="1.1"
   inkscape:version="0.48.2 r9819"
   sodipodi:docname="velociraptor-workplace-vermelho.svg">
  <defs
     id="defs4" />
  <sodipodi:namedview
     id="base"
     pagecolor="#ffffff"
     bordercolor="#666666"
     borderopacity="1.0"
     inkscape:pageopacity="0.0"
     inkscape:pageshadow="2"
     inkscape:zoom="0.64576373"
     inkscape:cx="755.90259"
     inkscape:cy="538.7701"
     inkscape:document-units="px"
     inkscape:current-layer="layer1"
     showgrid="false"
     fit-margin-top="0"
     fit-margin-left="0"
     fit-margin-right="0"
     fit-margin-bottom="0"
     inkscape:window-width="1920"
     inkscape:window-height="1011"
     inkscape:window-x="0"
     inkscape:window-y="0"
     inkscape:window-maximized="1" />
  <metadata
     id="metadata7">
    <rdf:RDF>
      <cc:Work
         rdf:about="">
        <dc:format>image/svg+xml</dc:format>
        <dc:type
           rdf:resource="http://purl.org/dc/dcmitype/StillImage" />
        <dc:title></dc:title>
      </cc:Work>
    </rdf:RDF>
  </metadata>
  <g
     inkscape:label="Layer 1"
     inkscape:groupmode="layer"
     id="layer1"
     transform="translate(-2757.9805,-1077.7327)">
    <path
       inkscape:connector-curvature="0"
       id="path3002"
       d="m 3122.7073,2354.5341 c -0.3317,-0.1143 -0.965,-0.3618 -1.4073,-0.5502 -1.8882,-0.8039 -7.8437,-1.3887 -19.7018,-1.9346 -6.9483,-0.3199 -8.3122,-0.8181 -9.6148,-3.512 -0.423,-0.8748 -0.9206,-1.9048 -1.1057,-2.2888 -0.1851,-0.384 -0.3366,-0.9742 -0.3366,-1.3116 0,-0.6829 -4.5325,-5.4286 -5.1848,-5.4286 -0.2277,0 -1.3846,0.363 -2.5706,0.8068 -1.8145,0.6789 -3.0764,0.8013 -7.9561,0.7716 -3.1898,-0.019 -6.3623,0.1403 -7.05,0.3551 -1.2394,0.387 -3.5437,-0.011 -6.3148,-1.0905 -0.6225,-0.2425 -2.07,-0.4454 -3.2166,-0.4508 -2.3267,-0.011 -5.2378,-0.5705 -6.6041,-1.2694 -1.5405,-0.788 -2.517,-3.4245 -2.517,-6.7961 0,-2.905 -0.049,-3.0562 -1.6131,-4.9486 -0.8872,-1.0736 -1.7123,-2.4273 -1.8335,-3.0082 -0.1213,-0.5809 -0.3256,-1.418 -0.454,-1.8603 -0.1284,-0.4423 -0.381,-4.061 -0.5614,-8.0416 -0.4143,-9.1428 -0.8044,-12.0704 -2.1428,-16.083 -2.7527,-8.2524 -2.864,-10.0162 -0.8804,-13.9543 0.7469,-1.4828 1.9224,-3.4087 2.6123,-4.2796 0.6898,-0.871 1.2542,-1.7434 1.2542,-1.9387 0,-0.1952 1.2666,-1.6118 2.8146,-3.1479 1.548,-1.5362 2.8145,-2.9828 2.8145,-3.2148 0,-0.232 0.5354,-1.0713 1.1898,-1.8652 1.4935,-1.8119 3.6907,-6.4096 5.066,-10.6011 0.5805,-1.7691 1.4649,-4.0308 1.9653,-5.0259 1.8123,-3.6041 3.534,-6.6492 4.1546,-7.3481 0.9266,-1.0436 7.0021,-4.9733 9.5649,-6.1867 3.0502,-1.4443 3.6691,-2.3673 4.0073,-5.9767 0.3296,-3.5169 0.031,-4.1855 -3.1239,-6.9912 -2.3528,-2.0924 -6.5287,-4.8594 -7.3338,-4.8594 -0.3113,0 -0.6599,-0.1521 -0.7748,-0.3381 -0.2963,-0.4794 -8.4235,-2.4764 -10.0784,-2.4764 -0.5392,0 -1.4866,-0.2196 -2.1051,-0.488 -1.4935,-0.6482 -5.2013,-3.4911 -6.9547,-5.3325 -1.6421,-1.7244 -5.6152,-4.6017 -7.6508,-5.5406 -0.7802,-0.3598 -2.9731,-1.1766 -4.8732,-1.8151 -1.9001,-0.6385 -4.3376,-1.6862 -5.4168,-2.3282 -1.0791,-0.642 -2.6858,-1.3754 -3.5704,-1.6298 -0.8846,-0.2543 -2.6939,-0.871 -4.0208,-1.3703 -1.3268,-0.4993 -3.0457,-1.0533 -3.8197,-1.2311 -0.774,-0.1778 -3.1262,-0.8011 -5.227,-1.3851 -2.1009,-0.584 -4.2721,-1.1612 -4.8249,-1.2827 -0.5529,-0.1215 -1.1862,-0.3449 -1.4073,-0.4966 -0.2211,-0.1516 -1.2163,-0.5102 -2.2114,-0.7968 -0.9952,-0.2866 -2.2617,-0.6761 -2.8146,-0.8655 -2.8718,-0.9839 -12.3109,-3.181 -13.666,-3.181 -0.8583,0 -2.0699,-0.2043 -2.6925,-0.454 -0.6225,-0.2497 -2.5793,-0.7803 -4.3485,-1.1792 -1.7691,-0.3988 -3.9403,-0.9249 -4.8249,-1.1692 -2.9438,-0.8127 -11.0047,-2.1266 -17.4904,-2.8509 -2.1008,-0.2346 -4.9958,-0.6044 -6.4332,-0.8218 -1.4374,-0.2174 -4.1697,-0.5231 -6.0716,-0.6793 -4.6178,-0.3793 -5.3161,-0.9963 -4.385,-3.8742 2.9079,-8.9875 4.113,-12.6277 4.4021,-13.2971 0.191,-0.4423 0.8553,-2.0707 1.4763,-3.6187 1.5503,-3.865 2.23,-5.0381 3.4444,-5.9448 1.0511,-0.7847 2.1747,-0.9397 17.2169,-2.3747 6.5338,-0.6233 62.1754,-0.8856 63.5898,-0.2997 1.0992,0.4553 3.0037,2.3963 12.4028,12.6408 2.9855,3.254 8.3093,8.9274 11.8308,12.6076 9.3954,9.8189 13.4722,14.152 19.5313,20.7594 2.9854,3.2557 8.6386,9.2059 12.5626,13.2227 3.924,4.0169 7.4349,7.7523 7.8018,8.3008 0.3669,0.5486 2.6749,3.0782 5.1288,5.6213 2.4538,2.5431 4.8925,5.1667 5.4192,5.8301 0.5267,0.6634 3.4216,3.7393 6.4332,6.8353 3.0116,3.096 6.2696,6.5338 7.2401,7.6395 0.9704,1.1057 3.1869,3.481 4.9254,5.2784 3.9756,4.1102 4.0636,4.7494 1.1131,8.0864 -4.357,4.928 -9.5144,10.7303 -11.8238,13.3022 -1.3268,1.4777 -3.0457,3.5715 -3.8197,4.6528 -0.774,1.0814 -2.709,3.3374 -4.3,5.0134 -4.7522,5.0061 -8.5517,13.6971 -7.4143,16.9598 0.2509,0.7197 0.4561,1.9783 0.4561,2.7969 0,0.8187 0.4524,2.3392 1.0052,3.379 0.5529,1.0397 1.0092,2.5594 1.0141,3.377 0.01,0.8527 0.3442,1.915 0.7953,2.4917 0.4324,0.5528 0.7903,1.6242 0.7952,2.3808 0,0.7566 0.3031,1.7007 0.6627,2.098 0.8168,0.9025 1.4979,0.5845 4.5443,-2.1222 3.0952,-2.75 7.1369,-4.367 10.9154,-4.367 2.5038,0 3.3116,0.1976 5.9025,1.4437 3.8939,1.8729 6.649,4.2026 7.9909,6.7567 1.8515,3.5245 2.18,4.3698 1.9631,5.0531 -0.483,1.5216 -1.4298,1.2604 -3.9554,-1.0915 -1.365,-1.2711 -2.5725,-2.4197 -2.6833,-2.5525 -1.05,-1.2581 -4.2463,-1.4421 -6.5162,-0.3752 -1.6602,0.7804 -3.5361,3.0966 -3.5361,4.3661 0,0.2329 0.7392,1.2775 1.6426,2.3213 1.8432,2.1296 2.336,3.1763 2.7218,5.7803 0.3055,2.0623 1.3011,2.809 3.7587,2.8188 1.8191,0.01 3.0474,0.5193 6.0666,2.5291 2.1296,1.4176 3.0323,2.4375 7.8622,8.8838 1.5488,2.0671 2.1547,3.7716 1.6657,4.6853 -0.5626,1.0513 -1.4599,1.0026 -3.8472,-0.2085 -2.7404,-1.3903 -6.4474,-1.4185 -8.0788,-0.062 -0.6251,0.52 -1.4984,1.1323 -1.9407,1.3606 -1.0248,0.5291 -3.8363,0.9288 -4.6239,0.6575 z M 3072.502,2315.54 c 4.9206,-1.4778 5.1597,-1.7778 3.362,-4.2182 -3.4527,-4.6868 -5.7176,-12.5395 -4.6513,-16.1261 0.8246,-2.7739 2.3622,-5.4932 4.7939,-8.4784 3.5856,-4.4017 4.0214,-5.0688 6.0953,-9.33 3.6624,-7.5249 3.1249,-8.9767 -1.9139,-5.1693 -7.478,5.6505 -10.3915,8.4363 -13.3955,12.8088 l -1.3812,2.0104 0,9.6498 c 0,10.4798 0.4215,13.6869 2.3518,17.8925 0.8396,1.829 1.4409,1.9509 4.7389,0.9605 z m 107.4628,-24.334 c -2.2708,-1.1893 -11.2522,-10.231 -12.2308,-12.3128 -0.7703,-1.6387 -0.7782,-1.818 -0.164,-3.696 1.0832,-3.3114 3.2807,-4.3679 3.8034,-1.8283 0.4073,1.9793 1.1445,3.0132 2.1485,3.0132 1.2758,0 2.0157,-1.0138 2.6408,-3.6187 0.9365,-3.9026 2.161,-5.7351 4.4949,-6.7265 1.5729,-0.6681 1.9789,-0.013 1.6923,2.7291 -0.2183,2.0881 -0.1629,2.3261 0.5965,2.5671 1.7576,0.5579 3.8757,-0.4839 6.3393,-3.1177 4.1099,-4.394 5.7286,-6.5426 6.9154,-9.1793 2.7035,-6.0062 2.6926,-6.1879 -0.546,-9.1478 -3.0498,-2.7874 -4.1896,-2.7013 -4.7454,0.3588 -0.1406,0.774 -0.5261,1.9255 -0.8566,2.5589 -0.3305,0.6335 -0.6049,1.3572 -0.6097,1.6083 -0.018,0.9341 -4.2338,4.8083 -6.5945,6.0599 -4.0668,2.1561 -6.1476,2.4515 -11.7346,1.6658 -9.8526,-1.3855 -10.1787,-1.4763 -11.8726,-3.3083 -1.4162,-1.5316 -2.3583,-3.4696 -2.3556,-4.8454 0.01,-4.3573 3.4518,-8.058 4.2795,-4.5995 0.4105,1.7153 1.3254,3.2727 1.9227,3.2727 0.4316,0 0.508,-0.5138 0.3446,-2.3165 -0.1688,-1.861 -0.033,-2.6937 0.6915,-4.2346 1.4876,-3.1648 3.6155,-3.5568 3.6155,-0.666 0,2.0251 1.0734,2.7943 3.8989,2.7943 1.8596,0 2.2598,-0.156 3.3531,-1.3068 1.4698,-1.5469 4.4083,-6.8888 4.4083,-8.0136 0,-1.161 -2.198,-4.1521 -3.761,-5.1181 -0.9317,-0.5758 -2.031,-0.8404 -3.4909,-0.8404 -2.5631,0 -7.274,-0.7556 -7.8059,-1.2519 -0.2101,-0.1961 -0.7401,-0.3565 -1.1777,-0.3565 -0.8723,0 -2.8526,-0.5801 -5.1426,-1.5064 -0.8114,-0.3282 -2.5692,-1.7519 -3.9064,-3.1638 -1.3371,-1.4119 -2.7541,-2.5624 -3.1487,-2.5567 -1.4225,0.021 -6.6664,1.9951 -7.9994,3.0119 l -1.3627,1.0394 0,4.4562 c 0,5.696 -1.0691,9.5903 -3.2863,11.9702 -1.7093,1.8347 -2.2077,1.438 -13.3999,-10.6633 -1.9903,-2.152 -6.3327,-6.7571 -9.6499,-10.2336 -3.3171,-3.4765 -8.5642,-9.0792 -11.6602,-12.4505 -10.2246,-11.1334 -14.2531,-15.4504 -17.3851,-18.6299 -1.7027,-1.7285 -3.8957,-4.0807 -4.8734,-5.227 -0.9777,-1.1464 -5.1448,-5.6039 -9.2603,-9.9056 -16.2293,-16.9636 -19.7238,-20.7971 -20.2573,-22.223 -0.3813,-1.0189 1.1665,-1.9209 3.2962,-1.9209 2.611,0 10.4145,-0.8085 12.2929,-1.2737 0.8846,-0.219 2.3321,-0.5406 3.2167,-0.7145 1.582,-0.3111 2.3271,-0.5398 4.1213,-1.2649 0.4975,-0.201 1.3117,-0.5251 1.8093,-0.7201 1.1315,-0.4434 6.5927,-2.4136 7.941,-2.8649 0.9099,-0.3045 7.0516,-1.8077 11.6603,-2.8539 2.9823,-0.6769 4.5119,-1.0685 6.7809,-1.7359 1.1864,-0.3489 2.7244,-0.6365 3.4177,-0.6392 0.6933,0 2.2557,-0.2865 3.472,-0.631 1.2163,-0.3444 2.8447,-0.8073 3.6187,-1.0285 0.774,-0.2212 2.6738,-0.5519 4.2218,-0.7348 1.548,-0.1829 4.6239,-0.6539 6.8353,-1.0467 3.4305,-0.6093 6.7576,-0.7226 22.663,-0.7716 l 18.6421,-0.057 2.2141,1.3332 c 1.2177,0.7334 2.3683,1.3333 2.5568,1.3333 0.1885,0 1.6046,0.6141 3.147,1.3648 1.5424,0.7506 3.7636,1.5786 4.9361,1.8402 1.1724,0.2614 2.6874,0.6424 3.3665,0.8466 1.9779,0.5947 4.07,0.4334 5.9715,-0.4605 3.2879,-1.5455 5.0453,-5.4259 5.0528,-11.1565 0,-3.7723 0.4139,-4.899 1.7787,-4.899 0.7317,0 1.6957,1.0092 4.3208,4.5234 3.2052,4.2906 9.1838,13.2766 9.1838,13.8035 0,0.135 0.3474,0.7334 0.7719,1.3297 0.771,1.0827 6.4655,12.235 6.4655,12.6622 0,0.1241 0.4347,1.1809 0.966,2.3485 2.1976,4.8288 3.5109,8.7574 3.2289,9.6587 -0.4061,1.2978 -6.7892,7.7419 -9.5132,9.604 -1.2665,0.8657 -3.4465,2.1035 -4.8444,2.7505 -3.5894,1.6614 -4.5192,2.5073 -7.1364,6.4931 -2.6637,4.0567 -3.5028,6.5011 -3.7792,11.0097 -0.1084,1.7691 -0.3859,4.257 -0.6166,5.5285 -0.2307,1.2716 -0.5779,3.2619 -0.7717,4.4229 -0.1938,1.161 -0.6689,3.7393 -1.0557,5.7296 -0.3868,1.9903 -0.7168,4.1668 -0.7333,4.8366 -0.041,1.6475 1.9627,4.4702 5.0445,7.1082 3.273,2.8017 4.392,3.95 7.7519,7.9549 1.548,1.8451 4.3126,4.9435 6.1435,6.8852 5.0528,5.3586 5.2485,6.3433 2.5076,12.6187 -0.3863,0.8845 -0.9229,2.332 -1.1925,3.2166 -0.2695,0.8846 -0.6735,2.1511 -0.8977,2.8145 -0.2242,0.6635 -0.5389,1.8395 -0.6993,2.6135 -0.1605,0.774 -0.7761,2.2732 -1.3679,3.3315 -0.5918,1.0582 -1.0761,2.2657 -1.0761,2.6831 0,0.4175 -0.4963,1.3489 -1.1029,2.0698 -0.6066,0.7209 -1.6615,2.4085 -2.3443,3.7501 -3.0755,6.0433 -3.4987,6.6613 -6.0555,8.844 -1.4432,1.232 -2.8356,2.2404 -3.0944,2.2409 -0.2587,0 -1.0824,0.524 -1.8305,1.1633 -0.7709,0.6589 -2.0685,1.2758 -2.9956,1.424 -0.8996,0.1439 -1.883,0.4669 -2.1854,0.7179 -0.3024,0.251 -1.8666,0.5066 -3.4761,0.568 -2.3196,0.089 -3.2518,-0.059 -4.4961,-0.7105 z m -415.2069,-86.6171 c -0.7437,-0.7601 -0.1972,-1.8097 1.4426,-2.7707 0.9593,-0.5622 1.9499,-1.0221 2.2014,-1.0221 0.2514,0 1.6496,-0.5462 3.1071,-1.2138 3.7589,-1.7216 7.4804,-3.2091 8.0287,-3.2091 0.2573,0 2.533,-0.7905 5.0571,-1.7567 2.5241,-0.9661 5.4035,-1.9843 6.3986,-2.2625 0.9952,-0.2783 2.9893,-0.9353 4.4314,-1.46 1.4421,-0.5247 2.9241,-0.954 3.2934,-0.954 0.3693,0 0.7832,-0.181 0.9199,-0.4021 0.1367,-0.2212 0.6329,-0.4021 1.1027,-0.4021 0.4698,0 1.8613,-0.3383 3.0923,-0.7517 1.2311,-0.4134 3.4143,-1.0604 4.8517,-1.4377 3.5347,-0.9279 7.0004,-1.963 12.1913,-3.6413 2.393,-0.7737 4.8446,-1.4067 5.4481,-1.4067 0.6036,0 1.2693,-0.1495 1.4794,-0.3321 0.2101,-0.1827 1.1057,-0.5449 1.9903,-0.8047 3.3034,-0.9705 7.6853,-2.166 9.0467,-2.4682 0.774,-0.1718 2.2215,-0.5833 3.2167,-0.9145 1.7286,-0.5753 4.7734,-1.455 8.2425,-2.3816 0.8846,-0.2362 2.0607,-0.5685 2.6135,-0.7384 4.0952,-1.2581 9.28,-2.3341 17.6915,-3.6717 1.4374,-0.2286 3.2467,-0.5702 4.0207,-0.759 4.6129,-1.1256 8.0781,-1.8136 12.0623,-2.3948 3.0691,-0.4477 6.3176,-1.0398 8.8457,-1.6124 0.9952,-0.2254 2.7141,-0.5799 3.8198,-0.7878 3.9062,-0.7345 8.8679,-1.6993 10.655,-2.0718 2.8158,-0.587 6.6834,-1.1356 10.8561,-1.5401 2.1009,-0.2036 4.1052,-0.4816 4.4541,-0.618 0.3488,-0.1363 1.1178,-0.064 1.7088,0.1607 1.46,0.5551 1.4099,1.8061 -0.2787,6.9562 -1.5209,4.6387 -3.4717,11.6688 -3.4717,12.5111 0,0.305 -0.3708,1.0259 -0.824,1.6021 l -0.824,1.0475 -17.9731,0.1948 c -25.2789,0.274 -38.0631,1.0673 -48.7321,3.0239 -1.4374,0.2636 -5.1466,0.7392 -8.2426,1.0568 -3.096,0.3176 -6.6242,0.7406 -7.8405,0.9402 -4.4253,0.7257 -7.0738,1.1976 -8.8457,1.5759 -9.6466,2.0596 -10.9487,2.3261 -13.0675,2.6735 -0.8846,0.1451 -3.0558,0.5928 -4.8249,0.995 -1.7692,0.4022 -4.6641,1.0412 -6.4332,1.42 -1.7692,0.3788 -3.6323,0.8516 -4.1402,1.0505 -0.508,0.1989 -1.3102,0.3617 -1.7826,0.3617 -0.4725,0 -1.8662,0.3438 -3.0972,0.7639 -1.231,0.4202 -3.2334,0.869 -4.4496,0.9974 -1.2163,0.1284 -3.2971,0.5815 -4.6239,1.0069 -1.3269,0.4254 -3.5886,1.0768 -5.026,1.4475 -4.6946,1.2109 -9.4129,2.5402 -11.271,3.1753 -2.2128,0.7564 -6.106,1.2488 -6.5209,0.8247 z m 466.2074,-55.1428 c -0.2771,-0.1011 -1.4754,-2.1136 -2.6629,-4.4722 -1.1874,-2.3586 -2.5722,-5.0122 -3.0773,-5.8967 -0.5051,-0.8846 -1.1371,-2.0189 -1.4046,-2.5207 -1.3849,-2.5982 -7.9132,-12.5543 -10.4062,-15.8703 -4.4676,-5.9422 -6.5829,-8.4648 -13.0056,-15.5095 -3.1783,-3.4863 -3.7192,-4.2805 -3.7192,-5.4616 0,-1.3552 2.3993,-9.1181 3.4303,-11.0986 1.4722,-2.8282 9.2076,-11.5664 11.7042,-13.2215 0.9157,-0.6071 2.7251,-1.3331 4.0208,-1.6133 1.2957,-0.2802 3.0796,-0.6827 3.9642,-0.8945 0.8845,-0.2118 4.5937,-0.5583 8.2426,-0.7701 3.6488,-0.2118 8.3531,-0.5987 10.454,-0.8598 5.3383,-0.6636 11.9838,-0.5798 16.4851,0.2079 4.8794,0.8539 10.4403,1.468 17.2894,1.9092 6.4378,0.4148 10.7865,0.9243 13.2685,1.5547 0.9952,0.2528 2.714,0.6242 3.8198,0.8253 1.1057,0.201 2.8246,0.5644 3.8197,0.8075 5.3715,1.3117 4.9246,1.1761 7.6395,2.3177 0.5528,0.2326 2.4518,0.9174 4.2198,1.522 3.5206,1.2039 5.4693,2.3172 6.2609,3.5772 1.5926,2.5347 5.6024,10.854 5.6024,11.6236 0,0.4978 -0.5245,1.4076 -1.1654,2.0217 -0.641,0.6141 -1.4691,1.9597 -1.8403,2.9903 -1.4196,3.9413 -2.7992,6.1337 -4.8338,7.6813 -2.6888,2.0453 -3.2948,2.3265 -6.0714,2.8168 -1.3053,0.2306 -3.1875,0.6056 -4.1826,0.8333 -2.681,0.6137 -6.1849,1.1613 -10.253,1.6024 -15.7603,1.7089 -21.9812,3.2547 -30.8062,7.6547 -0.3577,0.1783 -1.4433,0.5349 -2.4125,0.7923 -1.6526,0.439 -2.3032,0.6887 -5.7304,2.1991 -2.2188,0.9779 -5.9832,3.9479 -8.0083,6.3181 -1.0422,1.2201 -1.895,2.3309 -1.895,2.4686 0,0.1378 -0.5999,1.2039 -1.3331,2.3692 -1.8584,2.9536 -4.2678,8.6759 -4.984,11.8373 -0.2485,1.0968 -1.7606,2.5026 -2.4294,2.2586 z"
       style="fill:#020202"
       sodipodi:nodetypes="ccssssscccscssccsscccscsscccccsscscccscccscccccscccsscccccscsscsccsscscccsssccsccssccssccscccsscccccccccsssscscccsccssccccsscccssccssccsscscscssccccsssccscscscccscccccssccccscccccscscsccccsccsscscscccccsscccccsccccsscsccsscsccssccccccccssscccsssccssscsccccscsccccccccccsccscscscccccscscscccsccccsscc" />
  </g>
</svg>
