<?xml version="1.0" encoding="UTF-8" standalone="no"?>
<!-- Created with Inkscape (http://www.inkscape.org/) -->

<svg
   xmlns:dc="http://purl.org/dc/elements/1.1/"
   xmlns:cc="http://creativecommons.org/ns#"
   xmlns:rdf="http://www.w3.org/1999/02/22-rdf-syntax-ns#"
   xmlns:svg="http://www.w3.org/2000/svg"
   xmlns="http://www.w3.org/2000/svg"
   xmlns:sodipodi="http://sodipodi.sourceforge.net/DTD/sodipodi-0.dtd"
   xmlns:inkscape="http://www.inkscape.org/namespaces/inkscape"
   width="850.39368"
   height="1286.8484"
   id="svg2"
   version="1.1"
   inkscape:version="0.48.2 r9819"
   sodipodi:docname="velociraptor-workplace-vermelho.svg">
  <defs
     id="defs4" />
  <sodipodi:namedview
     id="base"
     pagecolor="#ffffff"
     bordercolor="#666666"
     borderopacity="1.0"
     inkscape:pageopacity="0.0"
     inkscape:pageshadow="2"
     inkscape:zoom="0.64576373"
     inkscape:cx="-16.75296"
     inkscape:cy="638.36932"
     inkscape:document-units="px"
     inkscape:current-layer="layer1"
     showgrid="false"
     fit-margin-top="0"
     fit-margin-left="0"
     fit-margin-right="0"
     fit-margin-bottom="0"
     inkscape:window-width="1920"
     inkscape:window-height="1011"
     inkscape:window-x="0"
     inkscape:window-y="0"
     inkscape:window-maximized="1" />
  <metadata
     id="metadata7">
    <rdf:RDF>
      <cc:Work
         rdf:about="">
        <dc:format>image/svg+xml</dc:format>
        <dc:type
           rdf:resource="http://purl.org/dc/dcmitype/StillImage" />
        <dc:title></dc:title>
      </cc:Work>
    </rdf:RDF>
  </metadata>
  <g
     inkscape:label="Layer 1"
     inkscape:groupmode="layer"
     id="layer1"
     transform="translate(-2757.9805,-1077.7327)">
    <path
       inkscape:connector-curvature="0"
       id="path3004"
       d="m 2925.172,2360.985 c -0.3317,-0.097 -3.4981,-0.3688 -7.0364,-0.6045 -9.8722,-0.6575 -16.2481,-1.5561 -25.5319,-3.5982 -7.6717,-1.6875 -19.8764,-5.5661 -26.0431,-8.2763 -0.8246,-0.3624 -1.8611,-0.8101 -2.3034,-0.9948 -0.4422,-0.1848 -3.4277,-1.5996 -6.6342,-3.1442 -17.5275,-8.4425 -30.9873,-18.1661 -45.2561,-32.6938 -11.0179,-11.2179 -18.0032,-20.4808 -26.0244,-34.5098 -1.7356,-3.0354 -7.5267,-14.9196 -7.5267,-15.4457 0,-0.1342 -0.3799,-1.1015 -0.8442,-2.1495 -1.3402,-3.025 -1.4455,-3.2952 -2.9526,-7.5812 -0.7866,-2.2371 -1.4302,-4.3524 -1.4302,-4.7007 0,-0.3483 -0.1601,-0.7322 -0.3557,-0.8531 -0.1957,-0.121 -0.4522,-0.7197 -0.5701,-1.3305 -0.1178,-0.6109 -0.394,-1.7439 -0.6137,-2.5179 -0.7998,-2.8178 -2.4281,-9.4909 -3.2867,-13.4696 -2.4162,-11.1969 -3.59,-29.5818 -2.6954,-42.2181 0.3417,-4.8259 0.6114,-7.0575 1.9288,-15.9563 0.4807,-3.2474 0.7637,-6.192 0.6289,-6.5434 -0.1349,-0.3515 -0.6564,-0.8042 -1.1589,-1.006 -0.9121,-0.3664 -0.9121,-0.367 -0.038,-0.3925 0.9189,-0.026 2.5422,-1.75 2.5422,-2.6988 0,-0.8423 1.9508,-7.8724 3.4717,-12.5111 1.6251,-4.9565 1.7191,-6.4065 0.4486,-6.9173 -0.843,-0.3388 -0.8491,-0.3653 -0.09,-0.3891 1.4378,-0.045 2.617,-1.2435 3.8308,-3.8936 0.6513,-1.4219 1.1841,-2.6906 1.1841,-2.8193 0,-0.4946 5.842,-12.4486 7.5884,-15.5274 0.4704,-0.8292 1.1888,-2.0958 1.5965,-2.8145 10.644,-18.7648 29.1543,-38.7866 47.6313,-51.5207 2.7362,-1.8858 7.0413,-4.6748 9.5668,-6.1979 4.731,-2.8531 16.9562,-9.0308 20.8678,-10.5449 1.2163,-0.4708 2.7542,-1.0954 3.4177,-1.388 0.6634,-0.2926 2.6537,-1.014 4.4228,-1.6032 1.7692,-0.5892 3.5785,-1.222 4.0208,-1.4063 1.4905,-0.621 10.8875,-3.272 14.2737,-4.0268 8.8778,-1.9788 14.7854,-2.8409 25.3309,-3.6966 16.2326,-1.3172 33.9971,0.2395 50.9633,4.4658 0.8293,0.2066 2.322,0.5728 3.3172,0.8138 0.9951,0.241 2.2616,0.5937 2.8145,0.784 0.5529,0.1902 1.8194,0.5792 2.8145,0.8644 0.9952,0.2853 1.9813,0.6681 2.1914,0.8508 0.2101,0.1827 0.7101,0.3322 1.1112,0.3322 0.401,0 1.0433,0.1649 1.4273,0.3664 0.384,0.2016 1.6029,0.6679 2.7086,1.0364 1.1057,0.3685 2.4627,0.8611 3.0156,1.0947 0.5528,0.2335 1.367,0.5629 1.8093,0.7319 0.4423,0.169 1.4648,0.5972 2.2722,0.9514 0.8074,0.3543 1.5936,0.6441 1.747,0.6441 0.8808,0 16.3577,8.0872 19.3738,10.1235 0.9244,0.624 1.79,1.1347 1.9235,1.1347 0.2866,0 8.2053,5.3747 11.4355,7.7617 3.4291,2.534 8.3436,6.6084 11.657,9.6645 2.5049,2.3102 3.165,2.7235 4.1252,2.5826 0.9791,-0.1437 1.1431,-0.033 1.1431,0.776 0,0.6282 1.2434,2.3075 3.7193,5.0232 6.4226,7.0447 8.538,9.5673 13.0055,15.5095 2.4931,3.316 9.0213,13.2721 10.4062,15.8703 0.2675,0.5018 0.8995,1.6361 1.4046,2.5207 0.5051,0.8845 1.8899,3.5381 3.0773,5.8967 1.1875,2.3586 2.3858,4.3705 2.663,4.4709 0.2771,0.1004 0.8231,-0.096 1.2133,-0.4357 0.6767,-0.5898 0.6785,-0.5348 0.038,1.1942 l -0.6718,1.8124 2.2505,5.7941 c 1.2377,3.1867 2.7264,7.332 3.3082,9.2118 0.5818,1.8797 1.2048,3.87 1.3845,4.4228 0.1796,0.5529 0.5495,1.8194 0.822,2.8145 0.2724,0.9952 0.637,2.2617 0.8101,2.8146 0.1731,0.5528 0.6152,2.4527 0.9823,4.2218 0.3672,1.7691 0.8231,3.9404 1.0132,4.8249 4.0222,18.7161 4.2019,42.5696 0.4618,61.3168 -1.1068,5.5477 -2.126,10.0593 -2.8386,12.565 -0.2359,0.8292 -0.596,2.0958 -0.8003,2.8145 -1.5925,5.6017 -2.7405,9.0215 -4.7835,14.2499 -2.3502,6.0144 -2.7691,6.9421 -6.3201,13.996 -4.1936,8.3304 -4.7371,9.2722 -9.6381,16.702 -9.3172,14.1247 -21.3848,27.3086 -34.7756,37.9924 -3.794,3.0271 -15.8355,11.219 -19.2997,13.1298 -0.9951,0.5489 -2.4633,1.3731 -3.2625,1.8316 -1.9228,1.1031 -9.0319,4.6986 -10.8102,5.4674 -0.774,0.3346 -2.4024,1.0468 -3.6187,1.5826 -1.2163,0.5358 -4.0208,1.6478 -6.2322,2.4711 -2.2114,0.8234 -4.335,1.6651 -4.719,1.8704 -0.384,0.2054 -0.9745,0.3734 -1.3122,0.3734 -0.3377,0 -0.9282,0.1802 -1.3122,0.4004 -1.3188,0.7564 -15.6649,4.4875 -19.9979,5.2011 -1.548,0.255 -3.9001,0.6499 -5.227,0.8777 -7.0205,1.2054 -27.2733,2.7018 -29.1506,2.1539 z m 19.0986,-13.0017 c 6.2907,-0.7177 12.201,-1.661 15.48,-2.4706 0.774,-0.1911 2.312,-0.5605 3.4177,-0.821 1.1057,-0.2606 2.5532,-0.6309 3.2166,-0.8229 6.1989,-1.7946 8.5625,-2.5063 9.2478,-2.7847 0.4423,-0.1797 2.1611,-0.8171 3.8197,-1.4165 1.6586,-0.5994 4.1012,-1.5789 5.4281,-2.1768 1.3268,-0.5978 3.0457,-1.3416 3.8197,-1.653 2.0271,-0.8154 11.7265,-5.7763 13.5402,-6.9254 0.8457,-0.5358 2.3519,-1.4336 3.347,-1.9952 3.0196,-1.7039 11.6084,-7.8626 16.0473,-11.5069 5.8075,-4.7679 12.4388,-11.2991 12.7149,-12.5232 0.3505,-1.554 -1.2778,-3.6322 -9.0868,-11.5981 -3.8555,-3.9329 -7.8228,-8.132 -8.8163,-9.3314 -2.0466,-2.4706 -3.2883,-3.7545 -5.0291,-5.1998 -0.6635,-0.5509 -1.6291,-1.5444 -2.1458,-2.2079 -0.5167,-0.6634 -2.6878,-3.0308 -4.8248,-5.2609 -2.1369,-2.2301 -4.5186,-4.771 -5.2926,-5.6465 -0.774,-0.8754 -1.8596,-1.9479 -2.4125,-2.3834 -0.5528,-0.4354 -2.0905,-2.056 -3.4171,-3.6013 -2.3957,-2.7909 -5.2385,-5.8141 -12.9958,-13.8212 -3.6596,-3.7775 -4.1554,-4.1544 -5.1919,-3.9471 -1.1036,0.2207 -1.1399,0.1782 -0.9843,-1.1549 0.148,-1.2678 -0.1077,-1.6625 -3.0438,-4.6976 -1.7629,-1.8224 -3.9994,-4.2182 -4.9698,-5.3239 -0.9705,-1.1057 -4.2285,-4.5435 -7.2401,-7.6395 -3.0116,-3.096 -5.9065,-6.1719 -6.4332,-6.8353 -0.5267,-0.6634 -2.9654,-3.287 -5.4192,-5.8301 -2.4539,-2.5431 -4.7619,-5.0727 -5.1288,-5.6213 -0.3669,-0.5485 -3.8778,-4.2839 -7.8018,-8.3008 -3.924,-4.0168 -9.5772,-9.967 -12.5626,-13.2227 -6.0591,-6.6074 -10.1359,-10.9405 -19.5313,-20.7594 -3.5215,-3.6802 -8.8453,-9.3529 -11.8308,-12.6059 -11.7317,-12.7833 -12.0419,-13.0701 -14.1331,-13.0701 -0.7036,0 -0.7973,-0.1072 -0.4221,-0.4825 1.1443,-1.1443 0.3631,-2.2466 -6.8589,-9.6785 -4.0339,-4.1511 -9.6866,-10.0892 -12.5614,-13.1957 -2.8749,-3.1066 -7.2173,-7.7625 -9.6499,-10.3466 -2.4325,-2.584 -5.7668,-6.1832 -7.4094,-7.9982 -3.1448,-3.4749 -4.7781,-4.5853 -6.2029,-4.2172 -2.0734,0.5355 -14.2695,13.4351 -20.6054,21.7941 -7.4317,9.8044 -15.424,23.4773 -14.8256,25.3627 0.1348,0.4248 0.5496,0.7838 0.9217,0.7978 0.4441,0.017 0.3341,0.1621 -0.3204,0.4232 -2.0261,0.8085 -2.6069,1.6732 -4.8295,7.1908 -0.49,1.2163 -1.046,2.5733 -1.2357,3.0156 -0.2869,0.669 -1.5045,4.3489 -4.3997,13.2971 -0.594,1.8361 -0.4947,2.4726 0.4941,3.1652 0.6401,0.4483 0.717,0.626 0.2712,0.626 -1.076,0 -2.2533,1.7254 -2.7437,4.0207 -0.2598,1.2163 -0.6303,2.9352 -0.8233,3.8198 -0.1929,0.8845 -0.5497,2.9193 -0.7928,4.5216 -0.2431,1.6023 -0.6188,4.045 -0.8349,5.4281 -1.2171,7.7905 -1.2063,28.5028 0.019,36.6912 1.0811,7.2235 1.5903,10.1089 2.4129,13.6707 1.7785,7.7014 1.5883,7.0153 4.2902,15.48 0.5294,1.6585 1.1178,3.3774 1.3074,3.8197 0.1896,0.4423 0.7509,1.8898 1.2471,3.2166 3.275,8.7569 10.6497,22.6079 16.3076,30.6289 7.7388,10.9711 18.2136,22.1775 28.5464,30.5403 3.8931,3.1508 10.7809,7.9404 17.4483,12.1329 4.4366,2.7897 15.9313,8.3473 21.3101,10.3032 1.6585,0.603 3.3774,1.251 3.8197,1.4399 1.0238,0.4373 5.1424,1.808 7.2374,2.4087 4.3867,1.2579 5.5627,1.5684 8.9462,2.362 5.6602,1.3276 8.5452,1.7886 20.2044,3.2282 3.5501,0.4383 23.3034,0.2185 27.9444,-0.311 z m 100.9109,-57.8039 c 1.0188,-0.391 6.6113,-8.3086 9.7671,-13.8279 2.9268,-5.1187 3.7199,-6.5915 5.1932,-9.6421 2.3242,-4.813 4.474,-9.676 5.3323,-12.0623 0.2784,-0.774 0.6591,-1.7691 0.846,-2.2114 0.3837,-0.9078 2.3882,-7.0057 3.3043,-10.052 0.538,-1.7891 1.6482,-6.2169 2.7219,-10.8561 0.38,-1.642 1.2101,-6.6167 1.9456,-11.6602 1.3674,-9.377 1.5979,-25.7751 0.4889,-34.7797 -0.7486,-6.0787 -1.8235,-12.9244 -2.4305,-15.48 -3.1094,-13.0902 -4.3362,-16.6862 -5.6929,-16.6862 -0.8872,0 -0.8997,-0.054 -0.3109,-1.3463 0.3723,-0.817 0.2304,-1.5472 -0.8432,-4.3413 -0.7099,-1.8475 -1.7255,-4.3144 -2.2569,-5.4819 -0.5313,-1.1676 -0.966,-2.2244 -0.966,-2.3485 0,-0.4272 -5.6945,-11.5795 -6.4655,-12.6622 -0.4245,-0.5963 -0.7719,-1.1947 -0.7719,-1.3297 0,-0.5269 -5.9786,-9.5129 -9.1838,-13.8035 -2.6146,-3.5001 -3.5908,-4.5234 -4.315,-4.5234 -0.5148,0 -1.1077,0.3068 -1.3176,0.6818 -0.265,0.4735 -0.3175,0.1133 -0.1717,-1.1796 0.1617,-1.435 0.021,-2.1667 -0.6156,-3.1947 -0.9909,-1.6008 -13.3527,-13.9236 -16.7771,-16.7242 -9.0353,-7.3896 -17.4815,-12.9825 -27.5288,-18.2292 -2.1603,-1.1281 -9.1954,-4.3764 -9.4783,-4.3764 -0.138,0 -0.9116,-0.2898 -1.7191,-0.6441 -0.8074,-0.3542 -1.8751,-0.8066 -2.3727,-1.0052 -0.4975,-0.1986 -1.3118,-0.5377 -1.8093,-0.7535 -1.0874,-0.4717 -8.6202,-2.9164 -11.1577,-3.6212 -0.9951,-0.2763 -2.2617,-0.6442 -2.8145,-0.8173 -0.5529,-0.1731 -2.4527,-0.6152 -4.2218,-0.9823 -1.7692,-0.3672 -3.9404,-0.8286 -4.825,-1.0253 -10.671,-2.3736 -28.4578,-3.4781 -38.7319,-2.4053 -5.9757,0.624 -10.5216,1.2058 -12.734,1.6299 -8.2198,1.5755 -12.1458,2.4162 -14.7763,3.1643 -0.8293,0.2359 -2.0958,0.5856 -2.8146,0.7771 -2.242,0.5975 -8.8695,2.8807 -10.5545,3.6361 -0.8846,0.3965 -2.9653,1.2324 -4.6239,1.8577 -2.6819,1.0109 -12.5337,5.8607 -16.594,8.1687 -4.2187,2.3979 -9.4932,6.1133 -9.7277,6.852 -0.1454,0.4583 -0.1069,1.1146 0.086,1.4586 0.1925,0.344 3.1437,3.4633 6.5583,6.9318 3.4145,3.4684 6.7101,6.945 7.3236,7.7257 0.6135,0.7808 3.1759,3.5908 5.6943,6.2445 7.1706,7.5559 13.3104,14.0921 18.1191,19.289 2.4326,2.6288 6.1517,6.5564 8.2647,8.7279 3.834,3.9402 3.8458,3.9482 5.8191,3.9482 1.8879,0 1.9376,0.028 1.1004,0.6142 -0.5789,0.4055 -0.7887,0.8493 -0.6175,1.3067 0.5335,1.4259 4.028,5.2594 20.2573,22.223 4.1155,4.3017 8.2826,8.7592 9.2603,9.9056 0.9777,1.1463 3.1707,3.4985 4.8734,5.227 3.132,3.1795 7.1605,7.4965 17.3851,18.6299 3.096,3.3713 8.3431,8.974 11.6602,12.4505 3.3172,3.4765 7.6596,8.0816 9.6499,10.2336 9.8836,10.6864 10.8654,11.6156 12.036,11.3919 0.9433,-0.1803 1.0699,-0.097 0.8909,0.5878 -0.3682,1.4079 0.4444,2.6463 4.2529,6.4824 2.0506,2.0652 5.5612,5.728 7.8014,8.1395 10.8326,11.6602 15.5739,16.445 16.2677,16.4165 0.4998,-0.02 0.9482,0.4972 1.3927,1.6083 0.4208,1.0518 2.334,3.3457 5.343,6.4063 4.7659,4.8476 6.7738,6.4429 8.7254,6.9327 0.9085,0.228 0.9808,0.334 0.4355,0.6391 -0.3595,0.2012 -0.6536,0.6534 -0.6536,1.0049 0,0.9097 15.1544,17.0124 16.0105,17.0124 0.2249,0 0.7051,-0.1137 1.0672,-0.2526 z m -14.7406,-18.5176 c 0.2902,-0.1162 0.637,-0.1019 0.7706,0.032 0.1336,0.1336 -0.1039,0.2287 -0.5277,0.2112 -0.4684,-0.019 -0.5637,-0.1145 -0.2429,-0.2429 z"
       style="fill:#fc0202" />
  </g>
</svg>
