<?xml version="1.0" encoding="UTF-8" standalone="no"?>
<!-- Created with Inkscape (http://www.inkscape.org/) -->

<svg
   xmlns:dc="http://purl.org/dc/elements/1.1/"
   xmlns:cc="http://creativecommons.org/ns#"
   xmlns:rdf="http://www.w3.org/1999/02/22-rdf-syntax-ns#"
   xmlns:svg="http://www.w3.org/2000/svg"
   xmlns="http://www.w3.org/2000/svg"
   xmlns:sodipodi="http://sodipodi.sourceforge.net/DTD/sodipodi-0.dtd"
   xmlns:inkscape="http://www.inkscape.org/namespaces/inkscape"
   width="779.52759"
   height="2593.8171"
   id="svg2"
   version="1.1"
   inkscape:version="0.48.2 r9819"
   sodipodi:docname="felipe.svg">
  <defs
     id="defs4" />
  <sodipodi:namedview
     id="base"
     pagecolor="#ffffff"
     bordercolor="#666666"
     borderopacity="1.0"
     inkscape:pageopacity="0.0"
     inkscape:pageshadow="2"
     inkscape:zoom="0.32037725"
     inkscape:cx="389.76379"
     inkscape:cy="1296.9086"
     inkscape:document-units="px"
     inkscape:current-layer="layer1"
     showgrid="false"
     fit-margin-top="0"
     fit-margin-left="0"
     fit-margin-right="0"
     fit-margin-bottom="0"
     inkscape:window-width="1920"
     inkscape:window-height="1011"
     inkscape:window-x="0"
     inkscape:window-y="0"
     inkscape:window-maximized="1" />
  <metadata
     id="metadata7">
    <rdf:RDF>
      <cc:Work
         rdf:about="">
        <dc:format>image/svg+xml</dc:format>
        <dc:type
           rdf:resource="http://purl.org/dc/dcmitype/StillImage" />
        <dc:title></dc:title>
      </cc:Work>
    </rdf:RDF>
  </metadata>
  <g
     inkscape:label="Layer 1"
     inkscape:groupmode="layer"
     id="layer1"
     transform="translate(698.72123,1282.8619)">
    <path
       id="path3157"
       style="fill:#00ff00"
       d="m 76.089694,-669.38827 c -2.59283,-6.56724 -8.44477,-16.63296 -13.00434,-22.36824 -15.34192,-19.29803 -61.7023796,-47.37572 -98.32337,-59.5484 -6.15164,-2.04477 -16.84708,-5.82985 -23.76765,-8.41127 -16.99888,-6.34067 -52.889634,-13.85738 -113.245744,-23.7174 -78.05347,-12.75112 -95.19861,-16.30328 -115.40925,-23.91054 -38.91921,-14.64915 -49.625,-40.09745 -24.28813,-57.73459 22.75445,-15.8395 55.28008,-20.17623 89.9721,-11.99616 9.56085,2.25436 35.98489,11.5038 58.72004,20.55426 48.38204,19.26006 80.890374,27.40756 119.789554,30.02268 84.07025,5.65183 150.372686,-37.75728 112.25798,-73.49677 -29.52772,-27.68769 -94.1402,-44.80146 -193.507044,-51.25376 -116.7961,-7.5842 -144.78382,-12.0364 -156.40798,-24.8809 -11.18557,-12.3599 -0.45409,-19.8513 46.88273,-32.72794 30.66447,-8.3413 44.75808,-16.2278 46.1366,-25.8173 1.91656,-13.3324 -14.80574,-23.9362 -55.71442,-35.3292 -41.77557,-11.6344 -55.33006,-19.6721 -51.22302,-30.3749 2.17906,-5.6786 11.78543,-9.2735 49.51036,-18.5279 56.09487,-13.7607 60.17809,-20.7598 30.16709,-51.7102 -10.89049,-11.2315 -19.80093,-21.6239 -19.80093,-23.0943 0,-1.4703 3.75197,-8.2105 8.33769,-14.978 4.58572,-6.7675 8.36058,-13.8774 8.38857,-15.7998 0.0809,-5.5595 5.20346,-4.1632 22.05466,6.0114 20.40207,12.3187 48.57786,24.0476 57.76843,24.0476 10.22042,0 6.4568,-4.1096 -11.14244,-12.1668 -13.11471,-6.0041 -34.51729,-19.7392 -60.44721,-38.7918 -3.9581,-2.9084 -11.25953,-11.9918 -16.22541,-20.1855 -6.74945,-11.1366 -11.10185,-15.3122 -17.23958,-16.5398 -10.02723,-2.0055 -15.94003,0.013 -18.01158,6.1537 -4.57501,13.5579 -36.22277,37.5128 -66.97482,50.6947 -7.45529,3.1957 -12.80598,6.5595 -11.89041,7.4751 5.76692,5.7669 52.16089,-11.659 79.53943,-29.8755 l 9.10972,-6.0612 4.3384,10.3831 c 4.86333,11.6397 2.99511,20.6452 -7.27502,35.0683 -3.47712,4.8831 -5.52532,11.4074 -4.99572,15.9133 0.76883,6.5407 -0.2835,7.8434 -7.33235,9.0761 -13.01864,2.2766 -8.63639,6.9478 7.40951,7.8981 14.09593,0.8347 21.79196,4.1059 21.79196,9.2625 0,1.3496 -3.07148,2.4538 -6.82548,2.4538 -3.75399,0 -7.60309,1.2583 -8.55357,2.7962 -1.06451,1.7225 3.66642,2.7962 12.31945,2.7962 11.22031,0 14.65444,1.134 17.06273,5.6339 3.6802,6.8765 -1.67675,9.8337 -13.52205,7.4646 -4.25421,-0.8508 -9.56311,-0.4088 -11.79755,0.9822 -3.0781,1.9162 -1.84625,2.9757 5.08321,4.372 12.02494,2.4232 13.80036,5.9332 5.02371,9.9321 -5.6471,2.573 -9.95558,2.3261 -20.85862,-1.1951 -16.93948,-5.4709 -26.39559,-3.762 -23.83453,4.3072 1.71705,5.41 0.98574,5.5587 -18.09084,3.6789 -23.05728,-2.272 -27.97914,-0.624 -21.0391,7.0447 4.6722,5.1628 4.35743,5.3148 -11.00259,5.3148 -12.19138,0 -15.81245,0.9605 -15.81245,4.1943 0,2.4728 2.58221,4.2118 6.29143,4.2371 3.46028,0.023 8.02551,1.1411 10.14494,2.4836 6.20319,3.929 0.8263,8.6583 -9.84391,8.6583 -6.63452,0 -9.47794,1.1421 -8.70171,3.4953 0.70391,2.1339 7.60129,3.8272 17.70921,4.3478 18.4876,0.952 23.43268,3.7312 18.09117,10.1673 -5.51444,6.6445 8.8739,11.1629 23.67715,7.4354 14.72218,-3.7071 24.43563,-1.3434 22.28788,5.4237 -2.32301,7.319 3.41164,9.6753 23.54771,9.6753 21.96761,0 27.50824,6.2019 6.72618,7.529 -9.71953,0.6206 -13.46142,2.0255 -13.46142,5.0539 0,2.8283 3.4149,4.4769 10.48571,5.0621 5.76712,0.4773 10.48571,2.0897 10.48571,3.583 0,5.3701 -9.30627,6.1098 -22.75612,1.8087 -20.28494,-6.4869 -42.51805,0.5346 -28.27438,8.9294 4.26882,2.5159 4.35803,3.2436 0.69906,5.702 -2.30687,1.5498 -5.75182,2.2474 -7.65547,1.55 -11.37709,-4.1676 -30.46745,-4.3988 -35.68549,-0.4322 -5.43571,4.1321 -5.33532,4.3423 3.5847,7.5041 12.9688,4.59684 7.0967,10.51534 -11.5019,11.59274 -10.61026,0.6147 -14.45233,1.9524 -14.45233,5.0316 0,2.889 3.91584,4.652 12.58285,5.6649 20.49966,2.396 24.51492,8.3088 9.51503,14.0117 -16.70157,6.3499 0.13144,16.3371 19.37043,11.4927 16.46236,-4.1453 29.83455,0.062 29.83455,9.3866 0,5.635 1.79621,6.7016 14.14497,8.40002 11.30998,1.55554 15.20007,0.99057 19.40933,-2.81872 7.15978,-6.4795 32.28227,-3.4073 36.49428,4.4629 2.25543,4.21431 5.96222,5.32374 17.78745,5.32374 9.86727,0 16.11997,-1.4238 18.41925,-4.19428 5.20965,-6.27726 30.36327,-5.74016 32.73905,0.69906 2.68829,7.28619 6.5118,8.99752 20.20838,9.0448 8.30857,0.03 14.30815,-1.70188 18.175254,-5.24262 7.5272,-6.8919 23.94783,-5.05759 23.94783,2.67518 0,3.56187 3.22448,6.03904 10.48571,8.05559 13.95352,3.87509 19.09692,3.69471 28.151,-0.98734 7.78042,-4.02343 21.66709,-3.08952 24.59895,1.65429 0.9002,1.45661 -0.69128,4.43635 -3.53659,6.62164 -4.96265,3.81146 -4.88862,4.20523 1.81714,9.668 6.0804004,4.95336 9.4558404,5.46619 25.92775,3.93913 20.30214,-1.88209 27.19989,0.7322 27.19989,10.30893 0,4.69283 -1.65093,5.03455 -16.71458,3.46012 -14.2958396,-1.49421 -16.9848696,-1.04255 -18.5826596,3.12129 -2.31795,6.04037 3.09786,9.78162 14.3257896,9.89622 4.61374,0.0469 10.19509,1.22879 12.40307,2.6259 3.42019,2.16423 3.44375,3.22797 0.15905,7.18577 -2.7971,3.37029 -6.20185,4.14681 -12.40307,2.82871 -21.4999496,-4.56981 -30.95788,-4.58692 -36.50952,-0.0659 -3.07584,2.50475 -4.33411,5.12463 -2.7962,5.82199 1.5379,0.69733 4.68361,2.50572 6.99048,4.01863 3.72825,2.44509 3.72825,3.05664 0,5.50409 -7.97137,5.23284 -19.4797,3.3077 -22.71838,-3.80045 -2.47837,-5.4394 -5.86362,-6.97304 -18.72944,-8.48516 -13.9458,-1.63909 -16.20675,-1.17967 -20.19124,4.10271 -4.15422,5.50736 -5.35266,5.68903 -16.16299,2.45019 -12.074064,-3.61748 -14.756224,-7.19898 -7.48181,-9.99043 6.4153,-2.46179 5.00155,-8.13428 -2.927734,-11.7471 -8.89857,-4.05447 -17.50774,-4.11572 -28.72765,-0.2043 -6.39491,2.22924 -11.35573,2.17147 -18.59148,-0.21662 -8.26435,-2.72749 -9.61329,-4.2763 -8.29586,-9.52535 1.34694,-5.36677 -0.0845,-6.81536 -9.95283,-10.07221 -9.30853,-3.07211 -13.35811,-3.14145 -21.04878,-0.36046 -12.97033,4.69001 -29.29384,1.55025 -29.29384,-5.63466 0,-6.07707 -1.81534,-6.90034 -19.96697,-9.05485 -11.12564,-1.32055 -14.03767,-0.55678 -20.41647,5.35486 -9.44419,8.75259 -20.53869,8.83627 -36.6187,0.27617 -10.06023,-5.35548 -14.59374,-6.22391 -23.75041,-4.54948 -14.93521,2.73108 -16.03765,4.32894 -8.51315,12.33845 6.16269,6.55988 6.18774,6.81779 0.93397,9.62953 -3.89005,2.08187 -10.01464,1.68361 -21.9204,-1.42543 -15.34078,-4.00606 -17.17785,-3.9613 -25.69573,0.62582 -11.29294,6.08173 -10.36093,10.11563 3.07122,13.29232 5.78572,1.36821 10.27075,4.13928 10.27075,6.34547 0,4.30255 -1.58751,4.64505 -18.48716,3.98845 -12.5018,-0.48578 -21.54307,5.55603 -18.8432,12.59183 1.08374,2.82498 5.75644,4.1134 14.91784,4.1134 16.73228,0 24.40698,6.70559 12.74769,11.13841 -4.1117,1.56336 -10.57954,2.84249 -14.37247,2.84249 -8.24037,0 -11.59175,6.71354 -6.44655,12.91323 2.95907,3.56553 6.91172,4.08964 19.82379,2.6288 25.57697,-2.8937 36.55807,6.09817 17.28267,14.15193 -11.60908,4.85058 -10.23353,7.90905 6.07983,13.51726 8.82526,3.03401 12.15578,2.9989 19.83364,-0.2093 11.8834,-4.96521 23.69043,-4.90698 30.54296,0.15073 4.35037,3.21084 4.73399,4.70947 1.93253,7.54973 -5.85932,5.94055 -4.11609,7.49219 12.22978,10.8856 14.61571,3.03421 16.31619,2.82741 24.10579,-2.93166 6.85376,-5.0672 10.65404,-5.88458 20.85735,-4.48607 16.06916,2.20252 17.96476,3.54158 16.01433,11.31274 -1.42294,5.66947 -0.36136,6.62683 9.07737,8.18643 17.98866,2.97232 24.9799,2.07205 30.39752,-3.91438 4.24769,-4.6936 7.2625,-5.42214 16.5115,-3.99001 20.50884,3.17562 21.60623,3.8654 19.73113,12.40277 -1.60495,7.30725 -0.94669,7.97077 10.85588,10.9427 17.19353,4.32937 20.57815,4.03916 29.84453,-2.55909 7.130974,-5.07768 9.378184,-5.36168 19.934394,-2.51919 11.11197,2.99215 11.54377,3.46228 6.54025,7.12095 -2.94646,2.15444 -6.37497,3.91721 -7.61896,3.91721 -1.24396,0 -2.26175,1.82855 -2.26175,4.06345 0,2.23489 5.52701,6.50827 12.28222,9.49646 11.57813,5.12154 13.17832,5.1836 27.91329,1.08232 14.56576,-4.05417 16.39661,-4.00546 26.86445,0.71489 6.17836,2.78605 11.23341,5.99812 11.23341,7.13792 0,2.99565 -7.61271,5.4669 -16.84082,5.4669 -11.06388,0 -12.90618,4.71339 -5.12263,13.10585 6.30733,6.80072 7.53754,7.02799 29.2339804,5.40124 20.3354096,-1.52466 23.1668196,-1.12666 27.7117396,3.89545 6.90105,7.62556 3.63674,9.75364 -14.9610596,9.75364 l -15.82692,0 0,9.78665 c 0,7.74072 1.16912,9.90075 5.59237,10.33222 40.2987196,3.93102 42.2180796,4.85608 33.8426196,16.3102 -3.81908,5.22296 -4.2237,5.19291 -18.19185,-1.34944 -13.55299958,-6.34786 -14.95576958,-6.48312 -27.34277,-2.63628 -7.18132,2.23014 -13.56162,5.56887 -14.17846,7.41939 -0.6168,1.85048 3.40229,5.52176 8.93137,8.15841 5.52905,2.63661 9.6114704,6.12249 9.0720304,7.74637 -0.5394504,1.62385 -8.9446804,3.94639 -18.6782304,5.16117 -17.23186,2.15058 -17.92809,1.98507 -26.46729,-6.29143 -7.98179,-7.73629 -10.4391,-8.5001 -27.346,-8.5001 -20.051624,0 -23.709194,2.21031 -18.808964,11.36645 1.733624,3.23931 2.735514,6.2494 2.226444,6.68905 -0.50906,0.43965 -7.820244,1.43319 -16.247044,2.20788 -14.75872,1.35679 -15.66019,1.03869 -24.54454,-8.66079 -9.04201,-9.87156 -9.5922,-10.05321 -28.01953,-9.24947 -21.40269,0.93348 -24.85988,2.9105 -20.22701,11.56712 1.80496,3.37265 2.76336,6.65049 2.12968,7.28413 -0.63364,0.63368 -8.73765,1.94495 -18.00885,2.91403 -16.7598,1.75172 -16.91136,1.70184 -26.33732,-8.66119 -9.31336,-10.23924 -9.78865,-10.40349 -26.94897,-9.31286 -20.87007,1.32638 -26.3688,5.15625 -19.03612,13.25879 7.16334,7.91541 3.85182,13.06865 -9.80093,15.25181 -8.93952,1.42949 -15.34348,0.43679 -26.19424,-4.06062 l -14.36199,-5.9527 -13.89107,6.59506 c -15.52496,7.37074 -16.66709,10.42475 -5.89087,15.75209 16.88994,8.34973 3.31368,15.66674 -24.30127,13.09724 -18.71177,-1.74108 -20.5891,-1.40025 -28.14002,5.10925 -10.36925,8.93929 -8.16982,14.78138 6.49779,17.25948 11.34652,1.91697 14.89887,7.21176 7.88433,11.75166 -1.92258,1.2442 -12.92038,3.52049 -24.44026,5.05839 -22.35862,2.98493 -24.83522,5.27919 -21.22563,19.66158 1.499,5.97299 3.40795,6.7196 19.09375,7.46837 24.78132,1.18296 25.05683,7.20217 0.84883,18.53052 -10.07444,4.71429 -18.3168,10.21256 -18.3168,12.2184 0,4.95746 21.92838,16.23756 31.54697,16.22797 4.27873,-0.007 11.82832,-1.6892 16.7772,-3.74431 4.94888,-2.05509 12.74204,-4.66691 17.31824,-5.80403 7.37337,-1.83214 6.63798,-0.7277 -6.45819,9.69974 l -14.77909,11.76727 -14.13523,-4.56513 c -18.88146,-6.09807 -19.37924,-6.01478 -30.09122,5.03726 -11.78873,12.16283 -9.9866,17.38465 6.87113,19.9127 14.1349,2.11967 17.43803,6.04097 12.64055,15.00548 -2.6483,4.94831 -5.74879,5.81088 -20.88757,5.81088 -19.51733,0 -21.17239,1.41299 -21.17239,18.07819 l 0,9.23224 18.05326,1.93333 c 14.80038,1.58498 18.38136,2.96623 19.87271,7.66532 2.29958,7.24553 -1.33297,9.48735 -18.70844,11.54519 -18.14477,2.14895 -20.11727,3.66849 -18.06791,13.91662 3.16205,15.80975 8.12823,18.55311 30.23297,16.69997 18.43293,-1.54535 19.98983,-1.22702 24.83755,5.07835 7.79416,10.13809 6.572,12.69705 -8.6849,18.1833 -17.29795,6.22029 -17.77477,10.99478 -2.28794,22.89774 13.65475,10.49449 15.93503,10.72472 36.41798,3.67747 15.41566,-5.30372 15.44397,-5.30295 26.03124,0.69902 5.82938,3.30473 10.7164,7.26683 10.86014,8.80473 0.14375,1.5379 -4.44933,5.31276 -10.20674,8.38857 -5.75744,3.07583 -10.47143,7.05696 -10.47562,8.84698 -0.01,3.76854 33.71751,23.30924 40.23058,23.30924 2.40739,0 11.40704,-3.44781 19.99924,-7.66186 l 15.62219,-7.66183 18.6931,10.27203 c 10.28121,5.6496 18.44431,11.19555 18.14018,12.32427 -0.30413,1.12877 -9.01412,4.69337 -19.35559,7.9214 -10.3415,3.22804 -19.23637,7.17017 -19.76646,8.76034 -0.53002,1.59018 3.6786,8.3147 9.35252,14.9434 11.46467,13.39394 12.96667,13.56081 49.23323,5.47028 14.95747,-3.33681 16.50472,-3.20158 21.54763,1.88329 2.98816,3.01301 7.40455,10.22524 9.81413,16.02717 5.39562,12.99179 5.60811,12.8912 -29.30109,13.87109 l -26.56382,0.74568 0.90902,13.94749 c 0.50001,7.67111 2.19261,15.49405 3.76135,17.38429 1.84519,2.22329 13.37189,3.71607 32.64526,4.22776 l 29.79295,0.79093 0.90509,9.47454 c 1.16756,12.222492 -1.26103,21.683422 -6.03638,23.515932 -2.07984,0.79809 -11.8424,-0.27717 -21.69463,-2.38955 -31.36054,-6.72379 -34.18356,-6.06297 -41.58248,9.73401 -3.54754,7.57415 -5.73951,15.62275 -4.87112,17.8857 0.97667,2.54511 9.04647,5.44922 21.1549,7.61321 27.16791,4.85501 28.12481,5.77385 18.77688,18.029546 -4.28376,5.616425 -9.60414,10.908226 -11.82304,11.759681 -2.21889,0.851421 -12.52335,-2.364767 -22.89879,-7.147073 -27.85203,-12.837866 -34.35871,-13.535527 -48.56817,-5.208183 -14.13194,8.281757 -22.99343,17.353712 -20.65196,21.1422834 0.9183,1.485894 11.73699,7.42584404 24.04154,13.199956 12.30457,5.7741436 22.37196,11.3634496 22.37196,12.4204066 0,2.996145 -8.56166,9.696078 -23.03173,18.023688 l -13.24511,7.622695 -29.88781,-14.560307 -29.88775,-14.560605 -14.95178,8.025046 c -8.22373,4.413528 -18.34642,10.707184 -22.49538,13.985727 -9.72473,7.684219 -7.25412,10.767842 18.67883,23.313527 10.8627,5.254867 19.7396,10.884468 19.72663,12.509615 0,1.625147 -7.87735,7.099524 -17.4763,12.165094 l -17.45267,9.210375 -24.76368,-12.799567 c -14.76045,-7.629117 -26.79009,-12.156442 -29.78011,-11.207428 -9.53274,3.025493 -39.1285,23.651892 -39.1285,27.270166 0,1.996755 9.4369,9.226015 20.97142,16.064935 11.53418,6.83909 20.97142,13.89442 20.97142,15.67869 0,2.82861 -20.61672,23.46815 -23.44204,23.46815 -0.5813,0 -13.3636,-4.45489 -28.40555,-9.89992 l -27.34909,-9.89992 -16.513,16.98041 c -9.4256,9.69219 -16.13268,18.95317 -15.62658,21.57628 0.58363,3.02406 8.85793,7.1876 24.19669,12.17517 12.82089,4.16857 24.61029,8.8793 26.1988,10.46781 3.4542,3.45413 -9.05226,27.45664 -13.80515,26.49505 -1.66304,-0.33641 -12.92338,-1.43725 -25.02289,-2.44639 -26.19547,-2.18469 -26.8746,-1.67436 -33.49617,25.15705 -3.46917,14.05813 -3.81855,19.49391 -1.4085,21.90423 1.7632,1.763 14.55581,3.74831 28.42784,4.41156 28.50937,1.36315 27.14313,10e-4 28.57625,28.48062 l 0.77396,15.37905 -24.56371,2.99359 c -27.85852,3.39487 -36.53411,8.49288 -30.60631,17.98512 1.89231,3.02995 3.44056,9.21932 3.44056,13.7536 0,4.53458 1.28938,11.63581 2.86524,15.78061 l 2.86525,7.53602 29.52057,-1.31311 c 34.60121,-1.53873 32.7322,-2.92231 45.74176,33.86692 l 8.00711,22.64299 -14.44069,0.0532 c -38.10299,0.13976 -106.96531,3.59898 -108.99311,5.47298 -4.6218,4.27148 -10.0528,41.99043 -13.1872,91.58404 -3.4356,54.36944 -2.2094,72.14786 5.231,75.82267 6.9733,3.44388 37.549,3.755 61.60228,0.62655 11.73316,-1.52629 31.51569,-3.59827 43.96192,-4.60415 l 22.62914,-1.82942 1.48603,21.99327 c 0.81722,12.09618 0.59395,33.94671 -0.49645,48.55676 -3.5131,47.08571 -21.581,165.22388 -29.72188,194.33551 -2.15051,7.68934 -7.03883,28.78122 -10.86271,46.87042 -6.58896,31.16631 -13.12435,49.57163 -17.6187,49.61954 -1.11403,0 -15.55072,-2.75777 -32.08169,-6.15474 -20.14924,-4.14031 -30.98294,-5.24934 -32.86794,-3.36402 -1.5466,1.54659 -7.9632,17.04473 -14.259,34.4405 -9.9524,27.49686 -10.9226,32.15326 -7.4295,35.64636 4.2604,4.2608 25.9752,10.4365 46.86377,13.3287 21.44691,2.969 21.8249,3.7626 13.66606,28.6893 l -7.14298,21.8229 -9.99824,-0.7885 c -5.49891,-0.4333 -21.11351,-5.1519 -34.69941,-10.4858 -13.5855,-5.3335 -26.1116,-9.6971 -27.8352,-9.6971 -1.7239,0 -6.6452,5.3479 -10.9366,11.8839 -4.2913,6.5361 -10.1097,15.0293 -12.9297,18.8742 -9.1211,12.4355 -19.9505,35.8896 -18.4166,39.8865 0.8212,2.1398 10.7379,7.7479 22.0375,12.4628 11.2996,4.715 27.5814,11.5788 36.1814,15.2533 l 15.6369,6.6801 -3.5413,8.2969 c -1.9479,4.5633 -8.3209,18.8512 -14.1622,31.7513 l -10.6202,23.4547 10.6761,9.2289 c 5.8719,5.0757 15.9034,11.0883 22.2927,13.3616 6.389,2.2733 32.75484,13.6751 58.58995,25.3377 25.83512,11.6623 49.9453,21.2043 53.57818,21.2043 8.35682,0 19.7975,-13.2937 28.6937,-33.3424 3.70176,-8.3415 9.16606,-18.2629 12.14277,-22.0472 11.32555,-14.3981 3.38332,-25.5879 -28.14235,-39.6516 -8.45831,-3.7733 -20.04706,-9.7117 -25.75326,-13.1962 l -10.37391,-6.3357 4.15662,-11.7801 c 2.28561,-6.4795 5.88488,-13.7303 7.99846,-16.1137 2.11291,-2.3831 5.84795,-9.189 8.29959,-15.1238 3.4745,-8.4111 5.54016,-10.3713 9.36603,-8.8896 13.89865,5.3835 52.65249,15.4862 59.40483,15.4862 4.25344,0 9.008,-1.5729 10.5659,-3.4955 3.89841,-4.8098 20.63635,-51.8536 22.23018,-62.4793 1.29304,-8.6197 1.2032,-8.686 -23.42373,-17.2953 -13.59718,-4.7533 -29.44071,-10.0798 -35.2078,-11.8367 -5.76709,-1.7565 -10.48571,-4.2937 -10.48571,-5.6383 0,-1.3449 3.71141,-13.5157 8.24735,-27.0463 9.66983,-28.84543 8.81568,-28.45812 49.41857,-22.41752 14.16118,2.10693 28.17329,2.80935 31.49772,1.57986 7.20687,-2.66593 12.43292,-15.04295 10.16561,-24.07557 -0.95497,-3.80524 1.0305,-13.50002 4.73825,-23.13691 l 6.38233,-16.58687 32.69011,-0.0433 c 18.6534,-0.0333 33.4265,1.14996 34.40496,2.73315 0.94306,1.52595 0.83824,16.62547 -0.23292,33.5544 l -1.94771,30.77966 -38.64093,0 -38.64087,0 -2.87623,10.682 c -4.24779,15.7744 -5.01243,60.9971 -1.09838,64.9441 1.7845,1.7991 18.52609,4.3978 37.38759,5.803 18.78591,1.3995 35.43534,3.3351 36.99869,4.3014 3.21596,1.9878 0.45606,54.019 -3.05138,57.5268 -1.16762,1.1676 -18.42271,0.4296 -38.34466,-1.6408 -19.92179,-2.0696 -37.76975,-3.198 -39.66173,-2.5068 -5.39575,1.9701 -17.53153,51.4 -17.53153,71.4078 0,11.9278 8.8037,15.3461 45.16146,17.5352 17.91841,1.0787 34.19404,2.9597 36.16826,4.1799 2.8893,1.7855 2.93965,6.4871 0.25821,24.1035 -1.83224,12.0366 -3.32303,27.2087 -3.31288,33.7155 0.0166,10.0045 0.98964,12.0356 6.30992,13.1563 13.91779,2.9331 54.2071,7.1696 68.18048,7.1696 13.52278,0 15.2353,-0.7207 18.99636,-7.9938 2.27353,-4.3966 4.04784,-12.8898 3.94296,-18.8742 -0.17003,-9.7007 2.55829,-31.2774 11.45266,-90.5721 1.4995,-9.9963 3.56464,-30.1288 4.58922,-44.7389 1.02458,-14.6104 2.97198,-29.4823 4.32758,-33.0493 1.35559,-3.5673 1.66324,-9.6791 0.68362,-13.5822 -1.11007,-4.4228 -0.45007,-7.9193 1.75175,-9.2799 2.23051,-1.3785 2.63096,-3.5872 1.08627,-5.9913 -1.34564,-2.0943 -2.65615,-59.1726 -2.91229,-126.84045 -0.53898,-142.39409 -4.54114,-187.38618 -25.74315,-289.40566 -4.63437,-22.29972 -9.26704,-46.83648 -10.29481,-54.52582 -1.02774,-7.68934 -3.68629,-16.86937 -5.90784,-20.39977 -2.22152,-3.53039 -3.28454,-8.79671 -2.36221,-11.70255 1.75931,-5.54315 -5.80013,-35.88759 -10.07913,-40.45881 -1.36764,-1.46107 -2.48978,-5.2357 -2.49367,-8.38843 -0.01,-8.72351 -21.06156,-66.82911 -29.31094,-80.90541 -10.19932,-17.40375 -13.01143,-19.07365 -34.7421,-20.62832 l -19.23933,-1.37656 -9.38064,-23.62224 c -5.1595,-12.99223 -11.26832,-24.6048 -13.57522,-25.80521 -2.3069,-1.2007 -13.80747,-0.91856 -25.55661,0.62662 -11.74913,1.54546 -23.24172,2.08849 -25.53864,1.20713 -6.82521,-2.61892 -20.95412,-44.21674 -28.56992,-84.11448 l -7.11137,-37.2545 5.60704,-18.15372 c 3.08386,-9.98463 9.31911,-23.71252 13.85606,-30.50698 15.96531,-23.90831 51.73511,-60.13799 74.30403,-75.25867 12.30311,-8.24289 25.6936,-17.21642 29.75651,-19.94105 4.06289,-2.72446 24.19546,-13.43164 44.73904,-23.793473 38.96453,-19.653327 58.57034,-31.795228 89.08152,-55.168017 39.77299,-30.4675866 60.66253,-54.827721 78.74115,-91.822748 10.22943,-20.93312 10.737,-23.26871 10.737,-49.407082 0,-32.98349 -5.21458,-50.43729 -22.82144,-76.38627 -32.78933,-48.32487 -47.65795,-60.63604 -108.59958,-89.92029 -70.02706,-33.65007 -95.02263,-54.13778 -105.68836,-86.62791 -7.28689,-22.19738 -7.81894,-38.07022 -1.70743,-50.94904 7.99011,-16.8379 12.00897,-17.13028 7.61937,-0.55432 -6.88691,26.00614 -2.4613,35.19453 26.37642,54.7625 18.46547,12.52982 20.67737,15.84969 12.32607,18.50028 -2.83257,0.899 -7.90762,4.56982 -11.2779,8.15731 -7.27002,7.73856 -6.04733,9.10979 16.10183,18.05796 19.98517,8.0739 22.48347,7.79476 36.33247,-4.05945 l 11.84716,-10.14073 15.80253,3.1736 c 8.6914,1.74547 16.78649,4.15755 17.98912,5.36018 1.2026,1.20256 0.95261,6.48904 -0.55555,11.7477 -1.50815,5.25863 -1.73521,10.56803 -0.50453,11.79868 1.23064,1.23068 12.43841,3.72435 24.90606,5.54156 24.99458,3.64299 31.52232,1.54462 31.52232,-10.13291 0,-9.67318 5.55822,-12.79973 22.75498,-12.79973 15.81252,0 16.17471,0.18168 25.08052,12.58285 9.8366,13.69724 9.68267,13.65468 35.755134,9.88574 22.89857,-3.31015 24.97445,-5.48828 17.20751,-18.05543 l -6.16625,-9.97721 7.3918,-2.81034 c 11.66788,-4.43612 18.50015,-3.38376 35.20701,5.423 l 15.5964,8.2214 13.7636204,-6.38433 c 22.0266096,-10.21712 23.2332996,-13.58284 8.26102,-23.04194 -14.0939,-8.90415 -15.19611,-11.83997 -7.17156,-19.10211 5.15095,-4.66152 7.18973,-4.71805 32.0280496,-0.88819 14.58982,2.24964 27.66733,3.35118 29.06112,2.44792 1.39382,-0.90329 4.56406,-5.60521 7.04499,-10.44867 3.50946,-6.8514 3.75123,-9.39998 1.0892,-11.48025 -4.60323,-3.59731 -27.63462,-9.07342 -38.16083,-9.07342 -6.65551,0 -8.86309,-1.46593 -10.19416,-6.76931 -3.94186,-15.70564 -0.98711,-17.91807 30.2534,-22.65296 12.22665,-1.85311 13.31469,-6.28631 4.56017,-18.58087 l -5.92551,-8.32162 -27.2118,1.92921 c -26.0506996,1.84688 -27.4682196,1.65399 -33.2211296,-4.52107 -7.9118804,-8.49239 -7.7165604,-9.40144 3.92895,-18.28386 11.3732,-8.67476 10.37318,-10.74562 -9.2765504,-19.21012 -11.51435,-4.96002 -12.4268,-4.96338 -26.74098,-0.0978 -14.61657,4.96834 -15.07629,4.95207 -33.517,-1.1846 -10.28344,-3.42209 -18.69713,-6.8313 -18.69713,-7.57594 0,-0.74468 1.37486,-3.9229 3.05521,-7.06269 4.33879,-8.10714 0.5983,-10.68612 -21.660234,-14.93431 -18.7675,-3.58187 -19.28392,-3.52125 -26.28708,3.08612 -4.7295,4.46224 -10.39896,6.72692 -16.77713,6.70166 -16.93958,-0.0672 -22.31108,-2.88115 -26.76949,-14.02382 -4.80467,-12.00804 -10.06043,-13.70856 -34.7238,-11.23502 l -15.24898,1.52939 0.14774,9.78668 c 0.18533,12.28678 -2.18352,13.88511 -20.65868,13.93815 -13.55958,0.0389 -15.7079,-0.84873 -23.58308,-9.74386 -9.34553,-10.55596 -16.17913,-11.88789 -36.63829,-7.14115 -15.69306,3.641 -17.383,6.53832 -9.79777,16.79789 5.54039,7.49376 5.89536,9.19421 2.38297,11.41536 -6.59163,4.16837 -10.16485,3.16801 -14.99034,-4.19658 -9.73179,-14.85258 -2.23573,-40.63403 16.63083,-57.19911 19.72343,-17.31737 52.35225,-28.53961 101.88574,-35.04226 6.92057,-0.90852 47.18573,-2.85799 89.47811,-4.33217 121.9255844,-4.24999 164.324784,-11.84413 191.586004,-34.31512 16.13793,-13.30221 19.29479,-28.2294 10.61797,-50.20653 z m -109.64167,284.68188 c -19.03379,41.90853 -82.927214,58.33266 -166.660504,42.84091 -16.91698,-3.12987 -33.14736,-5.67099 -36.06754,-5.64694 -2.92015,0.0266 -10.46987,-2.84345 -16.77713,-6.37225 -6.30727,-3.52876 -18.76168,-10.53851 -27.67655,-15.57726 -19.91935,-11.25857 -29.92834,-24.9621 -29.92834,-40.97549 0,-7.14481 -1.99393,-14.08638 -5.17445,-18.01417 l -5.17444,-6.39016 -9.13012,6.50122 c -8.61716,6.13594 -8.95706,6.17787 -6.04992,0.74581 4.88672,-9.13091 35.55562,-28.04655 55.86778,-34.45756 22.52026,-7.10791 74.71826,-11.71117 105.27642,-9.28415 26.57846,2.11099 78.249494,14.81439 97.866714,24.0607 21.34256,10.05954 37.16376,21.59029 43.34365,31.5896 6.87023,11.11625 6.91851,16.37278 0.2845,30.97974 z M -332.43883,857.17127 c -18.12887,-0.91138 -34.50971,-0.70076 -36.40168,0.46883 -5.43701,3.36003 -8.93014,19.55261 -8.93014,41.39515 0,11.06934 -1.15296,20.83832 -2.56245,21.70944 -1.4095,0.87112 -8.64465,0.39164 -16.07811,-1.06544 -7.43347,-1.45708 -20.75081,-3.44455 -29.59377,-4.41649 -18.96399,-2.08363 -18.64888,-0.74934 -9.56435,-40.51072 l 6.06889,-26.56382 34.34234,-0.22959 c 22.4225,-0.14641 35.49029,-1.37656 37.64979,-3.53605 1.81924,-1.81944 4.18311,-13.4947 5.25307,-25.94492 1.06997,-12.45056 3.17613,-23.86794 4.68032,-25.37194 1.50427,-1.50433 11.36871,-2.93845 21.92107,-3.18667 l 19.18609,-0.45187 3.22561,15.37902 c 1.77408,8.45864 3.34695,24.06459 3.49522,34.68041 l 0.26952,19.30105 -32.96156,-1.65739 z m -3.31801,-139.00612 c -18.29783,0 -19.62984,-0.39463 -17.12592,-5.07299 1.49335,-2.79037 2.48133,-16.67704 2.19554,-30.85952 -0.57561,-28.5646 1.15794,-31.81782 16.25756,-30.50649 7.433,0.64552 8.74001,2.16183 11.47392,13.31136 1.69692,6.92071 3.9751,21.70545 5.06264,32.85532 l 1.97729,20.27232 -19.84103,0 z m -42.51426,6.55869 c -5.08929,4.66771 -5.43967,7.27175 -3.67015,27.26291 l 1.95653,22.10241 -19.78719,0 -19.78686,0 1.1067,-20.33222 c 0.60926,-11.18247 1.96884,-23.76512 3.0223,-27.96167 1.86935,-7.44844 2.40706,-7.63012 22.58323,-7.63012 11.36747,0 20.56347,0.31611 20.43537,0.6991 -0.12644,0.38431 -2.76509,3.0213 -5.85993,5.85959 z m -22.5769,-73.66716 c -3.89541,0 -7.65041,-1.57288 -8.34484,-3.49546 -0.69444,-1.92225 -0.67514,-15.13412 0.0433,-29.35986 0.91538,-18.13645 2.35016,-25.86472 4.80214,-25.86472 2.0853,0 4.13399,5.36014 5.07598,13.28207 0.86913,7.30469 2.4633,20.5169 3.54338,29.35986 1.93656,15.85816 1.86635,16.07811 -5.11924,16.07811 z m -83.4042,-134.53007 c -1.32565,6.74868 -2.76076,12.5963 -3.189,12.99526 -0.42857,0.39895 -13.10573,1.63775 -28.1713,2.75244 l -27.39235,2.02673 0.82853,-20.50857 0.82853,-20.50858 9.78661,-2.23336 c 5.38245,-1.22849 18.90909,-1.48337 30.05895,-0.56666 22.66242,1.86335 22.15066,1.09106 17.25003,26.04274 z"
       inkscape:connector-curvature="0" />
  </g>
</svg>
