<?xml version="1.0" encoding="UTF-8" standalone="no"?>
<!-- Created with Inkscape (http://www.inkscape.org/) -->

<svg
   xmlns:dc="http://purl.org/dc/elements/1.1/"
   xmlns:cc="http://creativecommons.org/ns#"
   xmlns:rdf="http://www.w3.org/1999/02/22-rdf-syntax-ns#"
   xmlns:svg="http://www.w3.org/2000/svg"
   xmlns="http://www.w3.org/2000/svg"
   xmlns:sodipodi="http://sodipodi.sourceforge.net/DTD/sodipodi-0.dtd"
   xmlns:inkscape="http://www.inkscape.org/namespaces/inkscape"
   width="241.41367"
   height="1271.967"
   id="svg2"
   version="1.1"
   inkscape:version="0.48.2 r9819"
   sodipodi:docname="New document 1">
  <defs
     id="defs4" />
  <sodipodi:namedview
     id="base"
     pagecolor="#ffffff"
     bordercolor="#666666"
     borderopacity="1.0"
     inkscape:pageopacity="0.0"
     inkscape:pageshadow="2"
     inkscape:zoom="0.65331882"
     inkscape:cx="120.70683"
     inkscape:cy="635.98352"
     inkscape:document-units="px"
     inkscape:current-layer="layer1"
     showgrid="false"
     fit-margin-top="0"
     fit-margin-left="0"
     fit-margin-right="0"
     fit-margin-bottom="0"
     inkscape:window-width="1920"
     inkscape:window-height="1011"
     inkscape:window-x="0"
     inkscape:window-y="0"
     inkscape:window-maximized="1" />
  <metadata
     id="metadata7">
    <rdf:RDF>
      <cc:Work
         rdf:about="">
        <dc:format>image/svg+xml</dc:format>
        <dc:type
           rdf:resource="http://purl.org/dc/dcmitype/StillImage" />
        <dc:title></dc:title>
      </cc:Work>
    </rdf:RDF>
  </metadata>
  <g
     inkscape:label="Layer 1"
     inkscape:groupmode="layer"
     id="layer1"
     transform="translate(407.52648,-116.68836)">
    <g
       id="g3015"
       transform="matrix(0,-1,1,0,-1039.4915,465.85225)">
      <path
         d="m -922.19818,785.61615 c -0.60492,3.62955 -0.60493,7.56157 -0.60493,11.19113 1.51232,43.85707 38.41283,78.03541 82.2699,76.5231 21.17238,-0.60493 40.8325,-9.67883 55.04824,-25.10442 14.51821,-15.42559 22.07979,-35.69064 21.47487,-56.86302 -1.51232,-43.85707 -38.41283,-78.03541 -82.2699,-76.5231 -6.95664,0 -13.0059,-5.44434 -13.30837,-12.70344 -0.30246,-6.95664 5.44434,-13.0059 12.40098,-13.30837 6.35171,-0.30246 11.79605,3.93203 13.30837,9.67882 l 0,0 c 3.62955,15.12312 19.05517,24.49948 34.1783,20.56747 15.12313,-3.62955 24.49949,-19.05518 20.56747,-34.1783 l 0,0 c -7.86402,-31.75857 -37.20296,-53.83839 -69.86892,-52.62854 -38.41274,1.20985 -68.3566,33.57342 -67.14675,71.98616 1.20985,38.11028 33.57341,68.35661 71.98616,67.14675 12.40096,-0.60492 22.98718,9.37637 23.5921,21.77733 0,6.04925 -2.11724,11.79606 -6.04926,16.333 -4.23447,4.53693 -9.98128,6.95664 -16.03053,7.2591 -12.40096,0.60493 -22.98718,-9.37636 -23.5921,-22.07978 0,-0.90739 0,-2.11725 0.30246,-3.02463 l 0,0 c 1.51232,-15.72806 -9.67882,-29.64137 -25.40688,-31.15368 -15.42559,-1.51231 -29.3389,9.67883 -30.85121,25.10442"
         style="font-size:302.46286011px;font-style:normal;font-variant:normal;font-weight:bold;font-stretch:normal;line-height:125%;letter-spacing:0px;word-spacing:0px;fill:#000000;fill-opacity:1;stroke:none;font-family:Garoa Hacker Clube;-inkscape-font-specification:Garoa Hacker Clube Bold"
         id="path2992"
         inkscape:connector-curvature="0" />
      <path
         d="m -611.54304,631.96502 c -43.55461,0 -79.24527,35.69066 -79.24527,79.24527 l 0,128.54671 c 0,15.72805 12.70346,28.43151 28.43151,28.43151 15.42559,0 28.12905,-12.70346 28.12905,-28.43151 l 0,-42.64726 45.36943,0 0,42.64726 c 0,15.72805 12.70345,28.43151 28.43151,28.43151 15.42559,0 28.12904,-12.70346 28.12904,-28.43151 l 0,-128.54671 c 0,-43.55461 -35.3882,-79.24527 -79.24527,-79.24527 m -22.68471,108.58416 0,-29.33889 c 0,-12.40097 10.28375,-22.68472 22.68471,-22.68472 12.70343,0 22.68472,10.28375 22.68472,22.68472 l 0,29.33889 -45.36943,0"
         style="font-size:302.46286011px;font-style:normal;font-variant:normal;font-weight:bold;font-stretch:normal;line-height:125%;letter-spacing:0px;word-spacing:0px;fill:#000000;fill-opacity:1;stroke:none;font-family:Garoa Hacker Clube;-inkscape-font-specification:Garoa Hacker Clube Bold"
         id="path2994"
         inkscape:connector-curvature="0" />
      <path
         d="m -337.95642,811.32549 -55.3507,0 0,-146.08956 c 0,-15.42559 -12.70345,-28.12904 -28.43151,-28.12904 -15.42559,0 -28.12904,12.70345 -28.12904,28.12904 l 0,174.21861 c 0,15.72805 12.70345,28.43151 28.12904,28.43151 l 83.78221,0 c 15.72806,0 28.43151,-12.70346 28.43151,-28.43151 0,-15.72805 -12.70345,-28.12905 -28.43151,-28.12905"
         style="font-size:302.46286011px;font-style:normal;font-variant:normal;font-weight:bold;font-stretch:normal;line-height:125%;letter-spacing:0px;word-spacing:0px;fill:#000000;fill-opacity:1;stroke:none;font-family:Garoa Hacker Clube;-inkscape-font-specification:Garoa Hacker Clube Bold"
         id="path2996"
         inkscape:connector-curvature="0" />
      <path
         d="m -147.84955,631.96502 c -43.55461,0 -79.24527,35.69066 -79.24527,79.24527 l 0,128.54671 c 0,15.72805 12.70345,28.43151 28.43151,28.43151 15.42559,0 28.12904,-12.70346 28.12904,-28.43151 l 0,-42.64726 45.36943,0 0,42.64726 c 0,15.72805 12.70346,28.43151 28.43151,28.43151 15.42559,0 28.12905,-12.70346 28.12905,-28.43151 l 0,-128.54671 c 0,-43.55461 -35.3882,-79.24527 -79.24527,-79.24527 m -22.68472,108.58416 0,-29.33889 c 0,-12.40097 10.28375,-22.68472 22.68472,-22.68472 12.70343,0 22.68471,10.28375 22.68471,22.68472 l 0,29.33889 -45.36943,0"
         style="font-size:302.46286011px;font-style:normal;font-variant:normal;font-weight:bold;font-stretch:normal;line-height:125%;letter-spacing:0px;word-spacing:0px;fill:#000000;fill-opacity:1;stroke:none;font-family:Garoa Hacker Clube;-inkscape-font-specification:Garoa Hacker Clube Bold"
         id="path2998"
         inkscape:connector-curvature="0" />
      <path
         d="m 331.92349,637.71181 c -10.5862,-4.53694 -22.9872,-2.11723 -30.8512,6.04926 l -41.7399,41.73987 c -11.1911,10.88865 -11.1911,29.03645 0,39.9251 9.0739,9.07388 22.6848,10.88866 33.271,4.83941 l 0,111.00387 c 0,15.72805 12.7034,28.4315 28.4315,28.4315 15.4256,0 28.129,-12.70345 28.129,-28.4315 l 0,-177.5457 c 0,-11.49358 -6.9566,-21.77733 -17.2404,-26.01181"
         style="font-size:302.46286011px;font-style:normal;font-variant:normal;font-weight:bold;font-stretch:normal;line-height:125%;letter-spacing:0px;word-spacing:0px;fill:#000000;fill-opacity:1;stroke:none;font-family:Garoa Hacker Clube;-inkscape-font-specification:Garoa Hacker Clube Bold"
         id="path3000"
         inkscape:connector-curvature="0" />
    </g>
  </g>
</svg>
