<?xml version="1.0" encoding="UTF-8" standalone="no"?>
<!-- Created with Inkscape (http://www.inkscape.org/) -->

<svg
   xmlns:dc="http://purl.org/dc/elements/1.1/"
   xmlns:cc="http://creativecommons.org/ns#"
   xmlns:rdf="http://www.w3.org/1999/02/22-rdf-syntax-ns#"
   xmlns:svg="http://www.w3.org/2000/svg"
   xmlns="http://www.w3.org/2000/svg"
   xmlns:xlink="http://www.w3.org/1999/xlink"
   xmlns:sodipodi="http://sodipodi.sourceforge.net/DTD/sodipodi-0.dtd"
   xmlns:inkscape="http://www.inkscape.org/namespaces/inkscape"
   width="673.22833"
   height="1133.8583"
   id="svg8548"
   version="1.1"
   inkscape:version="0.48+devel r11513 custom"
   sodipodi:docname="cubo_magico.svg">
  <defs
     id="defs8550">
    <radialGradient
       gradientTransform="matrix(0.445728,0,0,0.445728,213.6852,534.05874)"
       gradientUnits="userSpaceOnUse"
       xlink:href="#linearGradient5479"
       id="radialGradient3170"
       fy="273.52124"
       fx="228.39549"
       r="12.374369"
       cy="273.52124"
       cx="228.39549" />
    <radialGradient
       gradientTransform="matrix(0.445728,0,0,0.445728,251.7762,487.56163)"
       gradientUnits="userSpaceOnUse"
       xlink:href="#linearGradient5479"
       id="radialGradient3168"
       fy="273.52124"
       fx="228.39549"
       r="12.374369"
       cy="273.52124"
       cx="228.39549" />
    <radialGradient
       gradientTransform="matrix(0.445728,0,0,0.445728,170.92229,600.79129)"
       gradientUnits="userSpaceOnUse"
       xlink:href="#linearGradient5479"
       id="radialGradient3166"
       fy="273.52124"
       fx="228.39549"
       r="12.374369"
       cy="273.52124"
       cx="228.39549" />
    <radialGradient
       gradientTransform="matrix(0.445728,0,0,0.445728,55.9574,628.68762)"
       gradientUnits="userSpaceOnUse"
       xlink:href="#linearGradient5479"
       id="radialGradient3164"
       fy="273.52124"
       fx="228.39549"
       r="12.374369"
       cy="273.52124"
       cx="228.39549" />
    <radialGradient
       gradientTransform="matrix(0.445728,0,0,0.445728,107.18955,671.69166)"
       gradientUnits="userSpaceOnUse"
       xlink:href="#linearGradient5479"
       id="radialGradient3162"
       fy="273.52124"
       fx="228.39549"
       r="12.374369"
       cy="273.52124"
       cx="228.39549" />
    <radialGradient
       gradientTransform="matrix(0.445728,0,0,0.445728,383.6684,669.25926)"
       gradientUnits="userSpaceOnUse"
       xlink:href="#linearGradient5479"
       id="radialGradient3160"
       fy="273.52124"
       fx="228.39549"
       r="12.374369"
       cy="273.52124"
       cx="228.39549" />
    <radialGradient
       gradientTransform="matrix(0.445728,0,0,0.445728,146.5502,501.1008)"
       gradientUnits="userSpaceOnUse"
       xlink:href="#linearGradient5479"
       id="radialGradient3158"
       fy="273.52124"
       fx="228.39549"
       r="12.374369"
       cy="273.52124"
       cx="228.39549" />
    <radialGradient
       gradientTransform="matrix(0.445728,0,0,0.445728,61.10338,729.89056)"
       gradientUnits="userSpaceOnUse"
       xlink:href="#linearGradient5479"
       id="radialGradient3156"
       fy="273.52124"
       fx="228.39549"
       r="12.374369"
       cy="273.52124"
       cx="228.39549" />
    <radialGradient
       gradientTransform="matrix(0.445728,0,0,0.445728,321.5427,517.38082)"
       gradientUnits="userSpaceOnUse"
       xlink:href="#linearGradient5479"
       id="radialGradient3154"
       fy="273.52124"
       fx="228.39549"
       r="12.374369"
       cy="273.52124"
       cx="228.39549" />
    <radialGradient
       gradientTransform="matrix(0.445728,0,0,0.445728,280.5409,699.75606)"
       gradientUnits="userSpaceOnUse"
       xlink:href="#linearGradient5479"
       id="radialGradient3152"
       fy="273.52124"
       fx="228.39549"
       r="12.374369"
       cy="273.52124"
       cx="228.39549" />
    <radialGradient
       gradientTransform="matrix(0.445728,0,0,0.445728,50.86971,520.21387)"
       gradientUnits="userSpaceOnUse"
       xlink:href="#linearGradient5479"
       id="radialGradient3150"
       fy="273.52124"
       fx="228.39549"
       r="12.374369"
       cy="273.52124"
       cx="228.39549" />
    <radialGradient
       gradientTransform="matrix(0.445728,0,0,0.445728,276.0032,806.36016)"
       gradientUnits="userSpaceOnUse"
       xlink:href="#linearGradient5479"
       id="radialGradient3148"
       fy="273.52124"
       fx="228.39549"
       r="12.374369"
       cy="273.52124"
       cx="228.39549" />
    <radialGradient
       gradientTransform="matrix(0.445728,0,0,0.445728,169.90676,841.87976)"
       gradientUnits="userSpaceOnUse"
       xlink:href="#linearGradient5479"
       id="radialGradient3146"
       fy="273.52124"
       fx="228.39549"
       r="12.374369"
       cy="273.52124"
       cx="228.39549" />
    <radialGradient
       gradientTransform="matrix(0.445728,0,0,0.445728,373.4769,769.93496)"
       gradientUnits="userSpaceOnUse"
       xlink:href="#linearGradient5479"
       id="radialGradient3144"
       fy="273.52124"
       fx="228.39549"
       r="12.374369"
       cy="273.52124"
       cx="228.39549" />
    <radialGradient
       gradientTransform="matrix(0.445728,0,0,0.445728,111.3716,786.49506)"
       gradientUnits="userSpaceOnUse"
       xlink:href="#linearGradient5479"
       id="radialGradient3142"
       fy="273.52124"
       fx="228.39549"
       r="12.374369"
       cy="273.52124"
       cx="228.39549" />
    <radialGradient
       gradientTransform="matrix(0.445728,0,0,0.445728,103.7578,554.83442)"
       gradientUnits="userSpaceOnUse"
       xlink:href="#linearGradient5479"
       id="radialGradient3140"
       fy="273.52124"
       fx="228.39549"
       r="12.374369"
       cy="273.52124"
       cx="228.39549" />
    <radialGradient
       gradientTransform="matrix(0.445728,0,0,0.445728,396.0785,552.72889)"
       gradientUnits="userSpaceOnUse"
       xlink:href="#linearGradient5479"
       id="radialGradient3138"
       fy="273.52124"
       fx="228.39549"
       r="12.374369"
       cy="273.52124"
       cx="228.39549" />
    <radialGradient
       gradientTransform="matrix(0.445728,0,0,0.445728,170.24971,726.87276)"
       gradientUnits="userSpaceOnUse"
       xlink:href="#linearGradient5479"
       id="radialGradient3136"
       fy="273.52124"
       fx="228.39549"
       r="12.374369"
       cy="273.52124"
       cx="228.39549" />
    <radialGradient
       gradientTransform="matrix(0.445728,0,0,0.445728,287.1553,576.15849)"
       gradientUnits="userSpaceOnUse"
       xlink:href="#linearGradient5479"
       id="radialGradient3134"
       fy="273.52124"
       fx="228.39549"
       r="12.374369"
       cy="273.52124"
       cx="228.39549" />
    <radialGradient
       gradientTransform="matrix(0.445728,0,0,0.445728,106.9366,-30.87844)"
       gradientUnits="userSpaceOnUse"
       xlink:href="#linearGradient5479"
       id="radialGradient2259"
       fy="273.52124"
       fx="228.39549"
       r="12.374369"
       cy="273.52124"
       cx="228.39549" />
    <radialGradient
       gradientTransform="matrix(0.445728,0,0,0.445728,143.3003,-75.85529)"
       gradientUnits="userSpaceOnUse"
       xlink:href="#linearGradient5479"
       id="radialGradient2255"
       fy="273.52124"
       fx="228.39549"
       r="12.374369"
       cy="273.52124"
       cx="228.39549" />
    <linearGradient
       id="linearGradient5479">
      <stop
         id="stop5481"
         offset="0"
         style="stop-color:#d03737;stop-opacity:0.8041237;" />
      <stop
         id="stop5483"
         offset="1"
         style="stop-color:#000000;stop-opacity:0;" />
    </linearGradient>
    <radialGradient
       gradientUnits="userSpaceOnUse"
       xlink:href="#linearGradient5479"
       id="radialGradient5485"
       fy="273.52124"
       fx="228.39549"
       r="12.374369"
       cy="273.52124"
       cx="228.39549" />
    <radialGradient
       gradientTransform="matrix(1,1.13575e-6,-8.666337e-8,7.630495e-2,4.489151,-101.038)"
       gradientUnits="userSpaceOnUse"
       xlink:href="#linearGradient5479"
       id="radialGradient5525"
       fy="147.47948"
       fx="353.37662"
       r="44.017399"
       cy="147.47948"
       cx="353.37662" />
    <radialGradient
       gradientTransform="matrix(1,1.13575e-6,-8.666335e-8,7.630493e-2,-31.40988,-105.1712)"
       gradientUnits="userSpaceOnUse"
       xlink:href="#linearGradient5479"
       id="radialGradient1941"
       fy="147.47948"
       fx="353.37662"
       r="44.017399"
       cy="147.47948"
       cx="353.37662" />
    <radialGradient
       gradientTransform="matrix(0.999999,1.135749e-6,-8.666328e-8,7.630488e-2,46.54787,-38.25948)"
       gradientUnits="userSpaceOnUse"
       xlink:href="#linearGradient5479"
       id="radialGradient1952"
       fy="147.47948"
       fx="353.37662"
       r="44.017399"
       cy="147.47948"
       cx="353.37662" />
    <radialGradient
       gradientTransform="matrix(1,1.13575e-6,-8.666333e-8,7.630491e-2,62.40166,-106.3378)"
       gradientUnits="userSpaceOnUse"
       xlink:href="#linearGradient5479"
       id="radialGradient1956"
       fy="147.47948"
       fx="353.37662"
       r="44.017399"
       cy="147.47948"
       cx="353.37662" />
    <radialGradient
       gradientTransform="matrix(0.631328,1.135721e-6,-5.471307e-8,7.630295e-2,-64.66975,-433.7018)"
       gradientUnits="userSpaceOnUse"
       xlink:href="#linearGradient5479"
       id="radialGradient1960"
       fy="147.47948"
       fx="353.37662"
       r="44.017399"
       cy="147.47948"
       cx="353.37662" />
  </defs>
  <sodipodi:namedview
     id="base"
     pagecolor="#ffffff"
     bordercolor="#666666"
     borderopacity="1.0"
     inkscape:pageopacity="0.0"
     inkscape:pageshadow="2"
     inkscape:zoom="0.71832471"
     inkscape:cx="345.71547"
     inkscape:cy="317.1339"
     inkscape:document-units="px"
     inkscape:current-layer="layer8"
     showgrid="false"
     width="0px"
     height="0px"
     fit-margin-top="0"
     fit-margin-left="0"
     fit-margin-right="0"
     fit-margin-bottom="0"
     units="cm"
     inkscape:window-width="1024"
     inkscape:window-height="531"
     inkscape:window-x="0"
     inkscape:window-y="0"
     inkscape:window-maximized="1" />
  <metadata
     id="metadata8553">
    <rdf:RDF>
      <cc:Work
         rdf:about="">
        <dc:format>image/svg+xml</dc:format>
        <dc:type
           rdf:resource="http://purl.org/dc/dcmitype/StillImage" />
        <cc:license
           rdf:resource="" />
        <dc:title></dc:title>
      </cc:Work>
    </rdf:RDF>
  </metadata>
  <g
     inkscape:groupmode="layer"
     id="layer2"
     inkscape:label="preto"
     style="display:inline">
    <path
       style="fill:#000000;stroke:none"
       d="M 114.43254,610.4012 197.97723,597.36114 C 200.52393,596.88592 205.78762,598.95788 207.14564,600.69022 206.50364,598.78102 208.80505,595.62654 211.33289,594.96264 L 293.1809,583.34825 C 295.77505,582.84895 298.88953,583.87062 301.20349,585.33256 300.90106,584.44453 302.19962,582.756 304.49881,582.30824 L 368.91278,571.82593 C 372.35858,571.21907 378.19958,570.25279 381.81929,572.0369 L 431.43643,591.67833 C 433.80892,592.8706 434.4203,594.46311 433.51074,596.21573 434.65579,594.79302 438.9228,594.65112 441.02846,595.79002 L 500.25862,619.21927 C 502.36428,620.1447 502.70883,621.63049 502.01273,622.95617 503.66477,621.9604 507.71831,622.08533 510.81125,623.33096 L 580.28785,650.60262 C 583.21145,652.28815 584.88975,655.785 584.64352,659.62148 L 571.79156,758.75399 C 571.30004,760.6848 569.0538,762.72882 567.09058,763.01811 568.67455,763.364 570.37172,765.29481 570.31417,767.05581 L 558.02826,859.90527 C 557.68769,861.60966 555.36598,864.33293 553.89333,864.79203 555.1754,865.1568 556.34428,866.65364 556.21125,867.92407 L 544.49137,948.71687 C 544.29201,951.10564 542.56433,954.62649 540.49703,955.37375 L 471.63445,984.33262 C 470.11433,985.04213 467.34892,985.0158 465.37596,983.68756 464.87471,985.96313 463.08294,987.37991 461.61942,988.18377 L 380.00955,1021.2844 C 378.28187,1022.2581 373.64963,1020.6846 372.14837,1019.7903 373.23204,1021.1036 370.06403,1026.274 368.43069,1026.7383 L 281.93177,1061.2929 C 278.67742,1062.9572 271.57399,1063.1498 267.41397,1059.4933 L 217.2986,1001.4882 C 216.15746,1000.4921 214.67033,997.34269 215.28392,996.40319 214.10505,996.59577 212.30353,996.16571 210.78503,994.71677 L 167.95216,944.46644 C 166.8865,943.05525 165.14861,940.27153 166.07011,939.89087 164.96051,939.70921 163.24067,940.04962 161.79765,938.37427 L 126.16653,896.10276 C 124.52158,894.60287 123.7823,892.65014 123.60905,890.58421 L 118.78741,815.44266 C 118.50096,812.99937 120.59187,812.02777 122.45638,811.84864 120.84916,810.53743 118.5627,808.54697 118.20077,805.53763 L 113.15271,720.43377 C 113.13041,718.06595 114.46661,716.49058 116.02922,715.59446 113.81823,714.81155 112.62611,712.78336 112.11324,710.18912 L 106.95197,624.74563 C 106.43783,619.31007 106.42373,612.5779 114.43254,610.4012 z"
       id="cube-path" />
  </g>
  <g
     inkscape:groupmode="layer"
     id="layer8"
     inkscape:label="brilho"
     style="display:inline">
    <path
       id="path2229-15"
       style="fill:#ffffff;fill-opacity:1;fill-rule:evenodd;stroke:none;display:inline"
       d="M 318.63569,655.89126 C 318.63569,657.58916 317.25927,658.96558 315.56136,658.96558 313.86345,658.96558 312.48703,657.58916 312.48703,655.89126 312.48703,654.19335 313.86345,652.81693 315.56136,652.81693 317.25927,652.81693 318.63569,654.19335 318.63569,655.89126 L 318.63569,655.89126 z M 391.97917,698.10986 C 391.97917,699.80776 390.60275,701.18418 388.90484,701.18418 387.20693,701.18418 385.83051,699.80776 385.83051,698.10986 385.83051,696.41195 387.20693,695.03553 388.90484,695.03553 390.60275,695.03553 391.97917,696.41195 391.97917,698.10986 L 391.97917,698.10986 z M 380.82296,928.14028 C 380.82296,929.83818 379.44654,931.2146 377.74863,931.2146 376.05072,931.2146 374.6743,929.83818 374.6743,928.14028 374.6743,926.44237 376.05072,925.06595 377.74863,925.06595 379.44654,925.06595 380.82296,926.44237 380.82296,928.14028 L 380.82296,928.14028 z M 385.38544,821.64066 C 385.38544,823.33856 384.00902,824.71498 382.31111,824.71498 380.6132,824.71498 379.23678,823.33856 379.23678,821.64066 379.23678,819.94275 380.6132,818.56633 382.31111,818.56633 384.00902,818.56633 385.38544,819.94275 385.38544,821.64066 L 385.38544,821.64066 z M 212.07357,793.57827 C 212.07357,795.27617 210.69715,796.65259 208.99924,796.65259 207.30133,796.65259 205.92491,795.27617 205.92491,793.57827 205.92491,791.88036 207.30133,790.50394 208.99924,790.50394 210.69715,790.50394 212.07357,791.88036 212.07357,793.57827 L 212.07357,793.57827 z M 160.88626,750.42217 C 160.88626,752.12007 159.50984,753.49649 157.81193,753.49649 156.11402,753.49649 154.7376,752.12007 154.7376,750.42217 154.7376,748.72426 156.11402,747.34784 157.81193,747.34784 159.50984,747.34784 160.88626,748.72426 160.88626,750.42217 L 160.88626,750.42217 z M 216.32356,908.20285 C 216.32356,909.90075 214.94714,911.27717 213.24923,911.27717 211.55132,911.27717 210.1749,909.90075 210.1749,908.20285 210.1749,906.50494 211.55132,905.12852 213.24923,905.12852 214.94714,905.12852 216.32356,906.50494 216.32356,908.20285 L 216.32356,908.20285 z M 274.79209,963.70265 C 274.79209,965.40055 273.41567,966.77697 271.71776,966.77697 270.01985,966.77697 268.64343,965.40055 268.64343,963.70265 268.64343,962.00474 270.01985,960.62832 271.71776,960.62832 273.41567,960.62832 274.79209,962.00474 274.79209,963.70265 L 274.79209,963.70265 z M 275.13584,848.64057 C 275.13584,850.33847 273.75942,851.71489 272.06151,851.71489 270.3636,851.71489 268.98718,850.33847 268.98718,848.64057 268.98718,846.94266 270.3636,845.56624 272.06151,845.56624 273.75942,845.56624 275.13584,846.94266 275.13584,848.64057 L 275.13584,848.64057 z M 165.82374,851.7968 C 165.82374,853.4947 164.44732,854.87112 162.74941,854.87112 161.0515,854.87112 159.67508,853.4947 159.67508,851.7968 159.67508,850.09889 161.0515,848.72247 162.74941,848.72247 164.44732,848.72247 165.82374,850.09889 165.82374,851.7968 L 165.82374,851.7968 z M 155.63628,642.01631 C 155.63628,643.71421 154.25986,645.09063 152.56195,645.09063 150.86404,645.09063 149.48762,643.71421 149.48762,642.01631 149.48762,640.3184 150.86404,638.94198 152.56195,638.94198 154.25986,638.94198 155.63628,640.3184 155.63628,642.01631 L 155.63628,642.01631 z M 208.76108,676.64119 C 208.76108,678.33909 207.38466,679.71551 205.68675,679.71551 203.98884,679.71551 202.61242,678.33909 202.61242,676.64119 202.61242,674.94328 203.98884,673.56686 205.68675,673.56686 207.38466,673.56686 208.76108,674.94328 208.76108,676.64119 L 208.76108,676.64119 z M 275.72959,722.70352 C 275.72959,724.40142 274.35317,725.77784 272.65526,725.77784 270.95735,725.77784 269.58093,724.40142 269.58093,722.70352 269.58093,721.00561 270.95735,719.62919 272.65526,719.62919 274.35317,719.62919 275.72959,721.00561 275.72959,722.70352 L 275.72959,722.70352 z M 251.54218,623.11013 C 251.54218,624.80803 250.16576,626.18445 248.46785,626.18445 246.76994,626.18445 245.39352,624.80803 245.39352,623.11013 245.39352,621.41222 246.76994,620.0358 248.46785,620.0358 250.16576,620.0358 251.54218,621.41222 251.54218,623.11013 L 251.54218,623.11013 z M 356.6668,609.39143 C 356.6668,611.08933 355.29038,612.46575 353.59247,612.46575 351.89456,612.46575 350.51814,611.08933 350.51814,609.39143 350.51814,607.69352 351.89456,606.3171 353.59247,606.3171 355.29038,606.3171 356.6668,607.69352 356.6668,609.39143 L 356.6668,609.39143 z M 426.4478,639.42257 C 426.4478,641.12047 425.07138,642.49689 423.37347,642.49689 421.67556,642.49689 420.29914,641.12047 420.29914,639.42257 420.29914,637.72466 421.67556,636.34824 423.37347,636.34824 425.07138,636.34824 426.4478,637.72466 426.4478,639.42257 L 426.4478,639.42257 z M 501.00846,674.6359 C 501.00846,676.3338 499.63204,677.71022 497.93413,677.71022 496.23622,677.71022 494.8598,676.3338 494.8598,674.6359 494.8598,672.93799 496.23622,671.56157 497.93413,671.56157 499.63204,671.56157 501.00846,672.93799 501.00846,674.6359 L 501.00846,674.6359 z M 488.45343,791.19219 C 488.45343,792.89009 487.07701,794.26651 485.3791,794.26651 483.68119,794.26651 482.30477,792.89009 482.30477,791.19219 482.30477,789.49428 483.68119,788.11786 485.3791,788.11786 487.07701,788.11786 488.45343,789.49428 488.45343,791.19219 L 488.45343,791.19219 z M 478.3534,891.85114 C 478.3534,893.54904 476.97698,894.92546 475.27907,894.92546 473.58116,894.92546 472.20474,893.54904 472.20474,891.85114 472.20474,890.15323 473.58116,888.77681 475.27907,888.77681 476.97698,888.77681 478.3534,890.15323 478.3534,891.85114 L 478.3534,891.85114 z"
       inkscape:connector-curvature="0" />
  </g>
  <g
     inkscape:groupmode="layer"
     id="layer3"
     inkscape:label="vermelho"
     style="display:inline">
    <path
       transform="translate(0,81.497324)"
       id="rect1400"
       style="fill:#f03031;fill-opacity:1;fill-rule:evenodd;stroke:none"
       d="M 336.62058,571.3726 410.5304,557.61353 C 414.53577,557.08298 421.06843,556.34234 425.2813,559.227 L 482.67497,585.74818 C 485.28684,587.99242 485.71789,591.90935 481.71253,593.24041 L 402.69164,608.15624 C 398.68628,609.48729 392.77143,608.65796 387.91816,605.6132 L 334.90888,576.99858 C 331.81671,575.07452 332.61522,572.70366 336.62058,571.3726 z M 219.40904,513.7461 292.63571,502.9598 C 295.51874,502.65219 299.04875,503.65997 300.39265,504.70021 L 334.0595,519.68394 C 337.31604,521.43366 336.8609,523.62806 333.97623,524.31871 L 260.1775,535.98756 C 255.6817,536.69343 249.43173,536.58126 246.40353,534.52666 L 215.40977,517.77688 C 211.83812,515.74135 215.40369,514.59686 219.40904,513.7461 z M 217.60735,724.86894 259.83273,762.74922 C 265.79553,768.34958 266.64313,772.4858 266.77913,777.47119 L 266.90683,857.65855 C 267.2791,867.45763 265.56073,871.45374 260.76031,867.79269 L 218.65828,826.32481 C 215.58636,822.15085 214.21419,816.52658 214.00745,810.98432 L 210.50131,734.20254 C 210.2763,726.9177 212.77341,721.09509 217.60735,724.86894 z M 166.00274,681.40063 198.2916,708.94752 C 202.302,712.6324 203.86268,712.58087 204.69029,720.90066 L 207.60315,807.61335 C 207.77161,813.56676 203.0774,811.71493 199.71245,808.72328 L 166.44686,774.64692 C 162.81867,770.65438 163.2549,767.81854 162.72434,763.81318 L 159.41686,688.70237 C 158.97683,682.06665 161.99738,678.71576 166.00274,681.40063 z M 118.32221,640.86601 147.79591,666.02147 C 152.74551,670.92891 153.56493,672.76313 153.58869,679.33564 L 157.56898,752.06935 C 157.48009,758.89283 156.65251,760.77077 153.12746,758.09932 L 123.2141,727.52056 C 120.65717,724.48782 120.21423,722.14386 119.84377,717.65821 L 114.89745,645.90773 C 114.36689,641.26196 115.61944,638.6002 118.32221,640.86601 z M 484.95792,811.19475 546.52306,789.58537 C 551.80921,787.77401 553.56141,789.75642 552.97127,794.24208 L 541.9763,866.60502 C 540.64059,869.7985 540.24419,872.10295 536.55904,873.55526 L 474.9087,898.85363 C 470.19105,900.45899 469.58013,896.69627 469.91639,892.44841 L 478.09486,822.59612 C 478.52491,817.79027 481.22928,812.60585 484.95792,811.19475 z M 284.3393,882.03128 364.14394,854.85932 C 373.94648,852.03202 373.082,858.25952 372.81205,862.26487 L 369.26938,932.7778 C 369.31964,936.78316 367.50381,942.04254 363.49846,944.1741 L 286.02936,975.07238 C 282.02401,975.60294 277.55089,972.80554 277.02034,968.80019 L 276.8895,895.16731 C 277.15944,891.16195 278.88042,884.65656 284.3393,882.03128 z M 509.34945,594.79472 575.97683,579.81283 C 582.42535,578.938 581.24176,583.09647 580.52996,588.92691 L 569.81624,670.31266 C 569.39071,674.99457 566.12095,678.74386 561.9555,680.39512 L 501.01088,698.78641 C 494.24915,700.61736 491.73897,694.40711 492.00892,689.92146 L 500.93768,604.44595 C 501.36773,600.4406 505.34409,596.68377 509.34945,594.79472 z M 284.62051,643.12045 376.23092,621.14278 C 380.23627,620.61222 382.60713,622.76922 383.13768,626.77458 L 378.27645,723.20699 C 378.00651,727.05225 373.3703,733.42088 369.36495,735.07215 L 283.99129,757.43954 C 279.98593,757.9701 276.81458,752.13551 276.76433,748.13015 L 276.89351,654.46116 C 277.32355,650.29571 280.77526,644.77172 284.62051,643.12045 z"
       inkscape:connector-curvature="0" />
  </g>
  <g
     inkscape:groupmode="layer"
     id="layer4"
     inkscape:label="azul"
     style="display:inline">
    <path
       transform="translate(0,81.497324)"
       id="rect1398"
       style="fill:#355ee5;fill-opacity:1;fill-rule:evenodd;stroke:none;display:inline"
       d="M 225.60404,592.14938 306.32251,575.09132 C 310.32788,574.56077 320.08316,575.7136 323.17532,578.11796 L 373.34383,605.17388 C 376.43599,607.57823 378.70686,613.36142 374.5414,615.01268 L 285.70711,634.44983 C 281.06134,635.89686 273.72072,635.50438 269.66796,632.20795 L 222.08101,599.22763 C 218.50854,596.98337 221.75879,593.32034 225.60404,592.14938 z M 272.92479,538.47148 344.09315,526.70573 C 348.09851,526.17517 354.15964,525.98074 357.57201,528.22499 L 401.1571,548.50826 C 404.72956,550.43232 405.61138,553.03044 401.60602,553.561 L 323.86596,568.11786 C 320.50099,568.64841 313.35585,567.58879 310.26368,565.82483 L 268.79215,543.39967 C 265.21969,540.83522 268.91942,539.00203 272.92479,538.47148 z M 310.4579,500.90083 372.19534,490.79209 C 376.2007,490.26153 377.65665,489.64923 381.24342,491.52604 L 425.05224,508.87956 C 427.80084,510.32332 428.58301,511.18766 424.57764,512.35862 L 363.83836,522.15455 C 359.48509,522.66651 351.81771,522.05684 348.06689,520.31178 L 310.14002,504.03848 C 306.6844,502.75461 307.56632,501.02697 310.4579,500.90083 z M 166.02673,782.59686 202.53971,820.99079 C 206.29732,824.68081 207.98425,831.25665 208.06197,835.60163 L 209.14276,898.43195 C 209.33861,903.58631 208.76615,906.32587 205.29052,902.29815 L 169.85674,862.23638 C 166.95088,859.27297 166.89814,859.337 166.441,854.0029 L 162.91961,789.30165 C 162.72375,785.27213 162.34157,778.96481 166.02673,782.59686 z M 403.9756,615.64382 483.88787,598.38144 C 488.68853,597.50467 491.20724,598.10063 490.44716,605.25881 L 481.80752,695.57938 C 481.05728,699.26454 481.2785,705.26244 474.07113,706.4334 L 396.04602,728.18991 C 392.04066,728.72046 387.76831,725.81791 387.23775,721.81256 L 392.38214,627.27634 C 392.57903,621.62492 399.04042,617.28885 403.9756,615.64382 z"
       inkscape:connector-curvature="0" />
  </g>
  <g
     inkscape:groupmode="layer"
     id="layer5"
     inkscape:label="amarelo"
     style="display:inline">
    <path
       transform="translate(0,81.497324)"
       id="rect1384"
       style="fill:#ffff25;fill-opacity:1;fill-rule:evenodd;stroke:none;display:inline"
       d="M 170.36918,555.38827 245.28919,543.04533 C 249.29454,542.51477 257.61186,543.40255 261.34442,545.48669 L 300.18324,567.20804 C 302.79511,569.4523 301.58253,570.93605 298.05749,572.26712 L 215.82432,589.31554 C 211.81896,590.3264 205.6404,590.227 202.38813,587.98275 L 166.03559,562.24333 C 163.74392,559.99907 166.36382,556.23903 170.36918,555.38827 z M 221.30281,838.09075 261.92213,880.35584 C 264.95964,883.86584 266.8665,889.38382 267.5481,897.3584 L 268.57787,960.93312 C 269.42138,969.85019 267.57228,974.20858 264.36561,969.59056 L 220.71486,920.39155 C 216.79171,916.32698 216.40882,913.61489 216.51866,907.36812 L 215.15421,847.81673 C 214.51673,839.33168 217.68241,835.28302 221.30281,838.09075 z M 124.2434,735.57992 155.80468,769.78285 C 157.92048,771.67941 158.30245,777.80708 158.67291,781.81243 L 161.47929,846.83146 C 162.00985,850.03632 159.83374,849.78999 158.11248,847.58695 L 129.42968,813.85353 C 126.84564,811.31204 125.29337,806.90411 125.24311,802.89876 L 121.14423,738.79553 C 120.61367,734.79017 121.22243,731.72817 124.2434,735.57992 z M 395.41417,738.12576 471.48234,716.54259 C 475.48769,716.01204 480.12255,718.84026 479.99915,724.98116 L 472.66179,801.4555 C 472.39184,806.26137 467.11958,811.21239 464.06427,812.22928 L 391.29155,837.2529 C 387.08692,838.75159 382.71532,833.08949 382.18476,829.08413 L 386.03973,750.02804 C 386.14957,745.54239 390.27154,739.93712 395.41417,738.12576 z"
       inkscape:connector-curvature="0" />
  </g>
  <g
     inkscape:groupmode="layer"
     id="layer6"
     inkscape:label="verde"
     style="display:inline">
    <path
       transform="translate(0,81.497324)"
       id="rect1394"
       style="fill:#2ac44b;fill-opacity:1;fill-rule:evenodd;stroke:none;display:inline"
       d="M 372.75391,525.45002 430.90822,515.68655 C 433.95297,514.51559 437.9138,513.77747 441.93137,515.82643 L 492.22375,536.06391 C 496.48442,538.2386 495.4659,539.71328 491.93921,540.09798 L 429.37639,551.59339 C 425.21093,552.44415 418.22267,551.16563 415.13051,549.40167 L 371.71413,529.21189 C 368.903,527.76362 369.06875,526.46087 372.75391,525.45002 z M 217.39594,605.77725 262.21356,637.96586 C 266.00118,641.20287 268.02132,646.18564 268.29346,654.46107 L 267.56524,743.11692 C 267.58518,754.00253 265.52396,755.60264 262.13701,753.23374 L 216.03959,712.55024 C 210.50433,707.05429 210.66004,706.14085 210.13989,697.91104 L 209.22244,616.68787 C 208.69503,604.07558 212.23884,603.02656 217.39594,605.77725 z M 115.74743,536.27263 142.78572,557.49294 C 146.17604,560.197 147.67936,567.22223 148.20991,571.22759 L 151.51366,650.39939 C 151.73125,656.88233 150.22372,661.2892 146.53855,657.65715 L 116.7615,633.19282 C 114.97945,631.58049 114.09115,629.21265 113.72069,626.80831 L 109.12604,540.47037 C 108.35645,536.06664 111.59053,534.6294 115.74743,536.27263 z M 495.69925,710.76037 561.57259,689.49477 C 566.27218,688.13292 567.00369,691.94519 566.57365,695.95055 L 555.45482,773.11633 C 555.10786,777.21974 553.99037,778.7051 550.40462,780.27411 L 485.96515,802.66962 C 481.71439,803.40292 480.26944,800.55313 480.77577,795.44803 L 488.20858,719.83557 C 488.49277,717.44549 491.32171,711.83195 495.69925,710.76037 z M 282.84597,768.59204 365.80835,745.83705 C 369.8137,745.14639 376.97144,747.39441 376.53235,754.00357 L 372.50371,837.24777 C 372.07215,843.36004 364.54091,846.55491 360.85576,848.04608 L 284.29975,872.87993 C 280.29439,873.41049 276.11355,872.91845 275.57522,868.07382 L 276.07725,783.53529 C 276.02699,780.33042 278.34826,770.4034 282.84597,768.59204 z"
       inkscape:connector-curvature="0" />
  </g>
  <g
     inkscape:groupmode="layer"
     id="layer7"
     inkscape:label="branco"
     style="display:inline">
    <path
       transform="translate(0,81.497324)"
       id="rect1402"
       style="fill:#ffffff;fill-opacity:1;fill-rule:evenodd;stroke:none;display:inline"
       d="M 439.00896,554.01912 500.07869,542.86919 C 503.52841,541.94099 507.22025,542.86286 512.86777,545.08572 L 566.95055,566.16546 C 572.97106,568.2535 575.91044,571.97687 571.90507,573.94833 L 513.97276,586.20249 C 510.58938,587.23494 499.63132,587.3946 496.54179,585.39976 L 438.54775,558.91743 C 435.20673,556.65443 435.10875,554.71903 439.00896,554.01912 z M 125.79062,527.8998 193.50397,517.62987 C 197.45179,517.15054 201.44762,516.64836 203.79905,518.4123 L 234.96536,535.48087 C 239.8059,538.48724 238.01959,541.37381 234.01424,541.90437 L 158.99328,554.49785 C 154.43469,555.08542 151.37284,555.14074 148.49191,553.01177 L 118.07187,532.0799 C 114.807,530.00999 122.85164,528.30461 125.79062,527.8998 z M 163.36776,569.21684 196.88273,594.90542 C 200.92616,598.01917 200.55905,600.48534 201.34892,607.13279 L 202.34826,690.74825 C 202.52429,696.91803 201.39675,701.6492 197.36419,699.79068 L 161.93349,670.05443 C 157.84117,666.18076 156.5838,663.75665 156.21515,658.29408 L 153.72376,577.17768 C 153.41961,568.00751 159.3624,567.52308 163.36776,569.21684 z M 388.40038,846.33563 463.40646,819.43855 C 467.57191,817.78729 472.06503,819.06778 471.69114,825.03543 L 463.35446,896.73389 C 463.19599,901.26063 462.1334,904.15761 458.87115,905.94375 L 384.61364,935.66387 C 380.60828,936.19443 377.56022,933.51575 377.83016,929.35029 L 381.4733,858.78272 C 381.444,852.89215 384.39502,847.9869 388.40038,846.33563 z"
       inkscape:connector-curvature="0" />
  </g>
</svg>
