<?xml version="1.0" encoding="UTF-8" standalone="no"?>
<!-- Created with Inkscape (http://www.inkscape.org/) -->

<svg
   xmlns:dc="http://purl.org/dc/elements/1.1/"
   xmlns:cc="http://creativecommons.org/ns#"
   xmlns:rdf="http://www.w3.org/1999/02/22-rdf-syntax-ns#"
   xmlns:svg="http://www.w3.org/2000/svg"
   xmlns="http://www.w3.org/2000/svg"
   xmlns:sodipodi="http://sodipodi.sourceforge.net/DTD/sodipodi-0.dtd"
   xmlns:inkscape="http://www.inkscape.org/namespaces/inkscape"
   width="779.10443"
   height="779.52753"
   id="svg4637"
   version="1.1"
   inkscape:version="0.48.2 r9819"
   sodipodi:docname="prodigy.svg">
  <defs
     id="defs4639" />
  <sodipodi:namedview
     id="base"
     pagecolor="#ffffff"
     bordercolor="#666666"
     borderopacity="1.0"
     inkscape:pageopacity="0.0"
     inkscape:pageshadow="2"
     inkscape:zoom="1.0660303"
     inkscape:cx="389.55221"
     inkscape:cy="389.76378"
     inkscape:document-units="px"
     inkscape:current-layer="layer1"
     showgrid="false"
     fit-margin-top="0"
     fit-margin-left="0"
     fit-margin-right="0"
     fit-margin-bottom="0"
     inkscape:window-width="1920"
     inkscape:window-height="1011"
     inkscape:window-x="0"
     inkscape:window-y="0"
     inkscape:window-maximized="1" />
  <metadata
     id="metadata4642">
    <rdf:RDF>
      <cc:Work
         rdf:about="">
        <dc:format>image/svg+xml</dc:format>
        <dc:type
           rdf:resource="http://purl.org/dc/dcmitype/StillImage" />
        <dc:title></dc:title>
      </cc:Work>
    </rdf:RDF>
  </metadata>
  <g
     inkscape:label="Layer 1"
     inkscape:groupmode="layer"
     id="layer1"
     transform="translate(1764.514,60.413378)">
    <path
       id="path4729"
       d="m -1308.5035,758.11625 c 23.7219,-3.3598 56.4854,-11.89244 85.3032,-22.21559 59.4843,-21.30866 131.1351,-69.87452 170.1527,-115.33163 58.82314,-68.53169 95.55744,-146.08824 107.40701,-226.76707 4.48998,-30.5695 4.51317,-98.89827 0.0445,-129.66606 -5.0861,-35.01708 -21.16142,-87.74251 -35.6052,-116.7811 -48.00107,-96.505844 -117.42537,-167.363621 -202.90277,-207.092971 -73.6087,-34.212743 -115.5639,-43.849389 -190.9079,-43.849389 -62.8137,0 -95.6694,5.813564 -149.8015,26.506139 -66.3841,25.37619 -105.43,50.624402 -155.4682,100.530033 -48.0356,47.908226 -77.6371,93.758868 -101.4185,157.089438 -20.5125,54.62497 -25.9874,85.94105 -25.9644,148.51112 0.027,75.38245 9.6658,117.32787 43.8651,190.90785 22.4762,48.35744 58.7404,96.22389 99.8158,131.75094 50.7997,43.93749 94.7478,70.06367 145.9355,86.75579 47.7632,15.57527 66.9933,19.55592 113.076,23.40679 16.7265,1.39775 76.5236,-0.92937 96.469,-3.75429 z"
       style="fill:#ff6600"
       inkscape:connector-curvature="0" />
  </g>
</svg>
