<?xml version="1.0" encoding="UTF-8" standalone="no"?>
<!-- Created with Inkscape (http://www.inkscape.org/) -->

<svg
   xmlns:dc="http://purl.org/dc/elements/1.1/"
   xmlns:cc="http://creativecommons.org/ns#"
   xmlns:rdf="http://www.w3.org/1999/02/22-rdf-syntax-ns#"
   xmlns:svg="http://www.w3.org/2000/svg"
   xmlns="http://www.w3.org/2000/svg"
   xmlns:sodipodi="http://sodipodi.sourceforge.net/DTD/sodipodi-0.dtd"
   xmlns:inkscape="http://www.inkscape.org/namespaces/inkscape"
   width="779.10443"
   height="779.52753"
   id="svg4637"
   version="1.1"
   inkscape:version="0.48.2 r9819"
   sodipodi:docname="New document 10">
  <defs
     id="defs4639" />
  <sodipodi:namedview
     id="base"
     pagecolor="#ffffff"
     bordercolor="#666666"
     borderopacity="1.0"
     inkscape:pageopacity="0.0"
     inkscape:pageshadow="2"
     inkscape:zoom="1.0660303"
     inkscape:cx="389.55221"
     inkscape:cy="389.76378"
     inkscape:document-units="px"
     inkscape:current-layer="layer1"
     showgrid="false"
     fit-margin-top="0"
     fit-margin-left="0"
     fit-margin-right="0"
     fit-margin-bottom="0"
     inkscape:window-width="1920"
     inkscape:window-height="1011"
     inkscape:window-x="0"
     inkscape:window-y="0"
     inkscape:window-maximized="1" />
  <metadata
     id="metadata4642">
    <rdf:RDF>
      <cc:Work
         rdf:about="">
        <dc:format>image/svg+xml</dc:format>
        <dc:type
           rdf:resource="http://purl.org/dc/dcmitype/StillImage" />
        <dc:title></dc:title>
      </cc:Work>
    </rdf:RDF>
  </metadata>
  <g
     inkscape:label="Layer 1"
     inkscape:groupmode="layer"
     id="layer1"
     transform="translate(1764.514,60.413378)">
    <path
       id="path4689"
       style="fill:#008000"
       d="m -1202.7755,372.39382 c 1.2042,-11.24473 1.0908,-11.705 -5.1033,-20.69848 -6.1809,-8.97438 -6.4703,-9.15431 -11.9048,-7.40031 -12.3028,3.97068 -13.1925,4.63464 -15.004,11.19522 -1.7284,6.25953 -1.5074,6.89006 4.6801,13.3509 5.3044,5.53877 20.3336,14.52876 24.9981,14.95289 0.6063,0.0552 1.6567,-5.07496 2.3339,-11.40022 z m 3.3793,231.76865 c -2.9512,-1.28492 -9.4376,-5.95271 -14.4145,-10.37286 -4.9768,-4.42015 -10.1912,-8.03664 -11.5875,-8.03664 -1.3963,0 -4.6983,-2.44494 -7.3376,-5.4332 -7.1944,-8.14536 -45.8687,-36.44364 -51.2966,-37.53418 -2.6038,-0.52309 -5.1441,-2.24315 -5.6453,-3.82237 -0.5013,-1.57919 -9.108,-6.94768 -19.1259,-11.92997 -22.3708,-11.12577 -24.68,-14.30964 -21.8197,-30.084 1.6138,-8.89882 1.3373,-12.98594 -1.9095,-28.23196 -2.088,-9.80475 -5.5235,-21.74216 -7.6343,-26.52761 -4.9669,-11.26048 -21.0495,-39.00141 -29.9887,-51.72768 -6.9718,-9.92553 -7.0111,-9.95008 -10.2306,-6.39265 -1.7774,1.96413 -8.342,6.40619 -14.5879,9.87125 -17.8074,9.87918 -24.9471,16.70504 -31.3782,29.99887 l -5.7612,11.90886 -8.8604,1.14822 c -14.2747,1.84992 -26.6507,5.87872 -48.7602,15.87323 -31.347,14.17024 -58.2842,36.45274 -70.1838,58.05626 -6.1034,11.08081 -19.1894,30.7972 -31.5938,47.60215 -3.4299,4.64668 -10.4205,11.14413 -15.5348,14.43877 l -9.2984,5.99026 -5.8537,-4.46485 -5.8537,-4.46483 3.8412,-5.66717 c 2.1126,-3.11694 5.3225,-8.95805 7.1331,-12.98026 1.8106,-4.02219 4.712,-7.76376 6.4475,-8.3146 4.1939,-1.33111 18.4338,-17.29975 22.4541,-25.18004 1.7604,-3.45048 5.267,-7.21507 7.7925,-8.36579 5.7517,-2.62068 10.8603,-13.80976 12.8083,-28.05338 2.2202,-16.23467 9.0347,-21.91566 45.7711,-38.15778 6.3566,-2.81043 14.1873,-5.67943 17.4016,-6.37557 13.6676,-2.96012 38.4676,-18.89399 49.2243,-31.62636 12.2001,-14.44099 20.9054,-27.79133 28.2988,-43.39899 10.2953,-21.73366 9.5718,-24.8809 -3.1314,-13.61906 -42.7043,37.85929 -57.1302,48.7792 -83.3389,63.08473 -31.0979,16.97421 -59.5656,22.6822 -84.0578,16.85427 -13.5232,-3.21784 -17.3085,-5.13908 -28.5341,-14.48227 -21.3261,-17.75023 -32.6716,-51.02665 -28.4285,-83.38138 4.6182,-35.21529 9.538,-49.19999 18.4412,-52.4194 3.2657,-1.1809 9.7818,-5.18575 14.4802,-8.89962 5.0513,-3.99283 13.9824,-8.57854 21.8528,-11.22059 7.3206,-2.45745 17.779,-6.70507 23.2408,-9.43914 18.4348,-9.22809 58.9341,-15.66722 77.437,-12.312 21.0694,3.82059 43.1245,18.82525 55.4277,37.70882 9.1132,13.98747 11.5555,12.63362 8.675,-4.80878 -2.3783,-14.40018 -4.8864,-19.762 -19.3828,-41.43426 -16.2454,-24.28724 -43.6378,-47.72726 -87.4699,-74.84924 -38.9049,-24.07328 -68.5103,-38.22594 -91.3177,-43.65389 l -9.1359,-2.17424 0,-7.657157 c 0,-6.99087 0.3756,-7.65716 4.3153,-7.65716 4.222,0 13.9704,3.17938 24.3974,7.95718 19.854,9.097207 34.5373,13.501937 66.9577,20.086087 10.1567,2.0627 28.0699,10.50142 37.1861,17.51804 3.9747,3.05921 16.6691,14.73294 28.2102,25.94161 23.5704,22.89175 34.2932,30.50067 45.3112,32.15292 5.6488,0.84708 7.8316,2.06924 8.6772,4.85818 3.595,11.85944 31.3617,69.72686 34.8439,72.61682 1.3265,1.101 8.4836,3.13685 15.9046,4.52411 7.4207,1.38725 15.3223,3.70549 17.5587,5.15166 2.2365,1.44614 4.5199,2.17581 5.0743,1.62148 0.5543,-0.55435 6.2507,-21.5641 12.6585,-46.68837 11.1241,-43.61586 15.7021,-59.99541 19.2347,-68.81947 0.8801,-2.19848 1.6002,-5.52654 1.6002,-7.39568 0,-2.77955 1.2136,-3.39845 6.664,-3.39845 3.6653,0 16.7817,-2.7833 29.1477,-6.18513 35.601,-9.79364 50.9211,-13.06887 67.9398,-14.52465 19.9353,-1.70525 21.6396,-2.87607 42.6549,-29.30393 23.3475,-29.360897 30.1502,-35.867357 35.9722,-34.406117 6.125,1.5373 7.6035,4.02146 6.5766,11.05053 -0.947,6.48121 -7.0142,14.44363 -29.1421,38.244287 -8.2903,8.91689 -17.2956,20.46598 -20.0119,25.66464 -3.9614,7.58166 -5.7997,9.45744 -9.2891,9.47909 -15.395,0.0955 -61.7067,14.45211 -81.6705,25.3178 -18.4025,10.01591 -32.305,26.31678 -35.6494,41.79975 -1.4482,6.70374 4.0208,33.4095 7.7423,37.80646 0.6531,0.77172 3.5639,-0.59644 6.4684,-3.04038 9.9989,-8.41356 54.1317,-35.62014 72.9473,-44.96999 25.2597,-12.5519 43.03,-19.34483 64.9651,-24.83359 16.0801,-4.02371 20.2449,-4.4261 34.7237,-3.355 14.4585,1.06959 18.2016,2.08471 30.8879,8.37647 7.9398,3.93768 14.4358,8.14143 14.4358,9.34171 0,6.10847 -14.3918,9.3742 -55.6851,12.63594 -25.1144,1.98375 -37.6117,5.69203 -67.3089,19.97205 -34.9228,16.79287 -53.9863,34.33171 -49.0625,45.13854 l 1.962,4.30596 4.0403,-4.80162 c 4.7623,-5.65963 21.1106,-14.67396 31.7401,-17.5011 9.2411,-2.45794 15.6191,-0.71246 31.7132,8.67909 8.9839,5.24248 13.197,9.2401 20.0118,18.98818 4.7477,6.79121 10.2959,12.78747 12.3292,13.32503 5.5922,1.4784 7.8731,8.43475 9.4074,28.69348 0.767,10.12711 2.2931,21.74984 3.3914,25.8283 1.7617,6.54249 2.4724,7.29599 6.0381,6.40106 4.7729,-1.19794 6.1179,2.11216 6.155,15.1483 0.042,14.88944 -2.9569,22.94484 -9.7487,26.18363 -3.3039,1.5755 -6.2939,2.86456 -6.6445,2.86456 -0.3506,0 -1.5675,-3.87657 -2.7042,-8.61461 -1.1365,-4.73804 -3.1318,-9.49867 -4.4336,-10.57917 -3.446,-2.85992 -11.0556,1.2783 -16.0949,8.75282 -7.7295,11.46418 -1.3641,22.82619 14.6502,26.15075 l 9.3381,1.93858 0,7.46703 0,7.46705 -10.876,1.06452 c -5.9818,0.5855 -18.034,1.58261 -26.7827,2.21582 l -15.9064,1.15127 -1.2745,-5.89086 c -1.8865,-8.72031 -8.5454,-20.94306 -14.1696,-26.0089 -10.9392,-9.85328 -24.7131,-17.69516 -32.6528,-18.59007 l -7.9553,-0.89667 -3.4779,-11.52051 c -2.6795,-8.87567 -4.7414,-12.39712 -8.9813,-15.33888 -5.0743,-3.52067 -5.8899,-3.61843 -10.4622,-1.25401 -4.5977,2.37757 -4.8777,3.09925 -3.8437,9.90891 2.7819,18.32077 10.063,32.97649 22.8503,45.99399 12.4136,12.63702 23.7732,19.24845 43.0383,25.04872 9.5803,2.8844 19.1488,5.94975 21.2632,6.81187 4.7251,1.92652 9.3772,10.78987 14.4783,27.58424 5.3811,17.71621 16.0878,28.39274 39.9211,39.8087 l 17.2998,8.28656 -5.6841,6.77031 -5.684,6.77032 -9.4656,-2.18522 c -5.2061,-1.20188 -15.7302,-5.12953 -23.3869,-8.72811 -7.6567,-3.5986 -15.6832,-7.08862 -17.8367,-7.75562 -2.1534,-0.667 -3.9154,-1.82693 -3.9154,-2.57761 0,-0.75069 -3.9687,-7.32422 -8.8194,-14.60786 -9.6143,-14.43651 -24.387,-29.0039 -34.8,-34.3162 -3.6388,-1.85645 -8.5481,-5.14767 -10.9095,-7.31381 -2.3614,-2.16613 -12.3301,-8.24533 -22.1528,-13.50932 -24.5734,-13.16884 -28.563,-17.59674 -52.2433,-57.98015 -5.9117,-10.08164 -13.7097,-18.99297 -11.6575,-13.32178 2.0191,5.57956 5.0271,22.55029 7.4018,41.75986 4.8846,39.51405 12.9468,69.00706 21.7654,79.62201 1.812,2.18112 5.4999,4.75542 8.1954,5.72071 2.6954,0.96527 6.818,4.85449 9.1611,8.6427 2.3431,3.78821 5.587,7.30875 7.2085,7.8234 1.6216,0.51467 3.9359,3.31996 5.1428,6.234 2.1362,5.15711 26.1378,25.66602 41.0645,35.08886 12.1827,7.6906 24.7006,23.58179 27.3808,34.75912 1.2931,5.3929 0.6637,5.60402 -6.8947,2.31301 z m -115.7348,111.19566 c 21.3563,-3.02475 50.8525,-10.70648 76.7964,-20.00017 53.5524,-19.18368 118.0579,-62.90637 153.1845,-103.83033 52.9571,-61.69745 86.02813,-131.51978 96.69601,-204.15302 4.04222,-27.521 4.0631,-89.03576 0.04,-116.73528 -4.57889,-31.52505 -19.05111,-78.9925 -32.05451,-105.13526 -43.2142,-86.881917 -105.7152,-150.673493 -182.6686,-186.440885 -66.2681,-30.800921 -104.0394,-39.476563 -171.8698,-39.476563 -56.5497,0 -86.1289,5.233812 -134.8627,23.862846 -59.7641,22.845582 -94.9162,45.5759492 -139.9644,90.504805 -43.2453,43.13064 -69.8948,84.408887 -91.3047,141.423897 -18.4668,49.17756 -23.3958,77.37069 -23.3751,133.70104 0.024,67.86503 8.7019,105.6275 39.4907,171.86981 20.2348,43.53506 52.8826,86.62809 89.8619,118.61225 45.7337,39.55588 85.2991,63.07666 131.3822,78.10417 43.0001,14.02206 60.3124,17.60574 101.7996,21.07259 15.0585,1.25836 68.8924,-0.83669 86.8488,-3.3799 z"
       inkscape:connector-curvature="0" />
  </g>
</svg>
