<?xml version="1.0" encoding="UTF-8" standalone="no"?>
<!-- Created with Inkscape (http://www.inkscape.org/) -->

<svg
   xmlns:dc="http://purl.org/dc/elements/1.1/"
   xmlns:cc="http://creativecommons.org/ns#"
   xmlns:rdf="http://www.w3.org/1999/02/22-rdf-syntax-ns#"
   xmlns:svg="http://www.w3.org/2000/svg"
   xmlns="http://www.w3.org/2000/svg"
   xmlns:sodipodi="http://sodipodi.sourceforge.net/DTD/sodipodi-0.dtd"
   xmlns:inkscape="http://www.inkscape.org/namespaces/inkscape"
   width="850.39368"
   height="17716.535"
   id="svg3960"
   version="1.1"
   inkscape:version="0.48.2 r9819"
   sodipodi:docname="pixotosco_longo_150mm.svg">
  <defs
     id="defs3962" />
  <sodipodi:namedview
     id="base"
     pagecolor="#ffffff"
     bordercolor="#666666"
     borderopacity="1.0"
     inkscape:pageopacity="0.0"
     inkscape:pageshadow="2"
     inkscape:zoom="0.40536537"
     inkscape:cx="874.30838"
     inkscape:cy="492.66471"
     inkscape:document-units="px"
     inkscape:current-layer="layer1"
     showgrid="false"
     units="cm"
     inkscape:window-width="1920"
     inkscape:window-height="1011"
     inkscape:window-x="0"
     inkscape:window-y="0"
     inkscape:window-maximized="1" />
  <metadata
     id="metadata3965">
    <rdf:RDF>
      <cc:Work
         rdf:about="">
        <dc:format>image/svg+xml</dc:format>
        <dc:type
           rdf:resource="http://purl.org/dc/dcmitype/StillImage" />
        <dc:title></dc:title>
      </cc:Work>
    </rdf:RDF>
  </metadata>
  <g
     inkscape:label="Layer 1"
     inkscape:groupmode="layer"
     id="layer1"
     transform="translate(0,16664.174)">
    <path
       style="fill:none;stroke:#ff0000"
       d="m 457.5,12191.625 0,47.187 -23.59375,0 0,47.188 -23.59375,0 0,47.188 -23.625,0 0,47.218 -23.59375,0 0,47.188 -23.59375,0 0,94.375 23.59375,0 0,-47.188 23.59375,0 0,-47.187 23.625,0 0,-47.188 23.59375,0 0,47.188 c -0.60922,0.01 -19.11448,0.03 -23.59375,0.03 l 0,23.594 23.59375,0 0,23.593 -23.59375,0 0,23.594 23.59375,0 0,23.594 -23.59375,0 0,23.594 23.59375,0 0,23.594 -23.59375,0 0,23.593 23.59375,0 0,23.594 -23.59375,0 0,23.594 23.59375,0 0,23.593 -23.59375,0 0,23.594 24.75,0 c 0,5.899 1.19518,11.81 2.375,17.719 l -23.59375,5.875 4.71875,22.438 23.59375,-4.719 c 1.17982,5.899 3.53893,12.976 4.71875,18.875 l -21.25,8.25 9.4375,22.406 21.25,-9.438 c 3.53947,5.9 5.89803,11.82 9.4375,17.719 l -20.0625,11.781 11.8125,20.063 20.0625,-11.781 c 3.53947,4.719 7.06196,10.603 11.78125,15.312 l -18.875,14.156 12.96875,20.063 18.875,-14.156 c 4.71929,5.899 9.46053,11.788 13,17.687 l -20.0625,11.813 11.78125,21.25 20.0625,-13 c 4.7193,7.079 7.08553,14.171 10.625,21.25 l -22.40625,8.25 8.25,22.406 22.40625,-8.25 c 1.17982,7.079 3.53893,15.335 4.71875,23.594 l -22.40625,0 0,23.593 23.59375,0 c 0,8.249 -0.008,16.515 -1.1875,23.594 l -23.59375,-3.531 -3.53125,22.406 22.40625,3.531 c -2.35965,8.249 -4.71053,16.515 -8.25,23.594 l -20.0625,-10.625 -11.78125,21.25 21.21875,10.625 c -3.53947,7.079 -7.08553,12.966 -10.625,18.875 l -20.03125,-13 -13,18.875 18.875,13 -11.78125,17.688 -18.875,-12.969 -14.15625,18.875 18.875,14.156 c -3.53947,4.72 -5.89803,10.601 -9.4375,16.5 l -21.25,-11.781 -10.625,21.219 21.25,10.625 c -3.53947,5.899 -5.89036,11.819 -8.25,17.719 l -22.4375,-7.094 -7.0625,23.594 22.40625,5.906 c -1.17982,5.899 -2.35142,12.966 -3.53125,18.875 l -23.59375,-1.188 -2.375,23.594 23.59375,1.187 c -1.17983,7.079 -1.15625,14.14 -1.15625,21.219 l -23.59375,0.03 0,23.594 24.75,0 c 0,5.899 1.19518,11.779 2.375,17.688 l -23.59375,5.906 4.71875,22.406 23.59375,-4.718 c 1.17982,5.897 3.53893,12.978 4.71875,18.874 l -21.25,8.282 9.4375,22.406 21.25,-9.438 c 3.53947,5.9 5.89803,11.789 9.4375,17.688 l -20.0625,11.812 11.8125,20.063 20.0625,-11.813 c 3.53947,4.72 7.06196,10.635 11.78125,15.344 l -18.875,14.156 12.96875,20.063 18.875,-14.156 c 4.71929,5.899 9.46053,11.788 13,17.687 l -20.0625,11.813 11.78125,21.219 20.0625,-12.969 c 4.7193,7.079 7.08553,14.171 10.625,21.25 l -22.40625,8.25 8.25,22.406 22.40625,-8.25 c 1.17982,7.079 3.53893,15.335 4.71875,23.594 l -22.40625,0 0,23.593 23.59375,0 c 0,8.249 -0.008,16.484 -1.1875,23.563 l -23.59375,-3.531 -3.53125,22.437 22.40625,3.531 c -2.35965,8.249 -4.71053,16.515 -8.25,23.594 l -20.0625,-10.625 -11.78125,21.219 21.21875,10.625 c -3.53947,7.079 -7.08553,12.966 -10.625,18.875 l -20.03125,-12.969 -13,18.875 18.875,12.969 -11.78125,17.719 -18.875,-13 -14.15625,18.875 18.875,14.156 c -3.53947,4.719 -5.89803,10.632 -9.4375,16.531 l -21.25,-11.812 -10.625,21.25 21.25,10.625 c -3.53947,5.899 -5.89036,11.788 -8.25,17.687 l -22.4375,-7.062 -7.0625,23.562 22.40625,5.906 c -1.17982,5.9 -2.35142,12.998 -3.53125,18.907 l -23.59375,-1.188 -2.375,23.594 23.59375,1.156 c -1.17983,7.079 -1.15625,14.171 -1.15625,21.25 -6.81297,0.07 -16.08597,0.03 -23.59375,0.03 l 0,23.594 24.75,0 c 0,5.909 1.19518,11.81 2.375,17.719 l -23.59375,5.875 4.71875,22.438 23.59375,-4.719 c 1.17982,5.909 3.53893,12.976 4.71875,18.875 l -21.25,8.25 9.4375,22.406 21.25,-9.438 c 3.53947,5.9 5.89803,11.82 9.4375,17.719 l -20.0625,11.781 11.8125,20.063 20.0625,-11.813 c 3.53947,4.72 7.06196,10.635 11.78125,15.344 l -18.875,14.156 12.96875,20.063 18.875,-14.156 c 4.71929,5.909 9.46053,11.788 13,17.687 l -20.0625,11.813 11.78125,21.219 20.0625,-12.969 c 4.7193,7.079 7.08553,14.171 10.625,21.25 l -22.40625,8.25 8.25,22.406 22.40625,-8.25 c 1.17982,7.069 3.53893,15.335 4.71875,23.594 l -22.40625,0 0,23.593 23.59375,0 c 0,8.264 -0.008,16.515 -1.1875,23.594 l -23.59375,-3.562 -3.53125,22.437 22.40625,3.531 c -2.35965,8.249 -4.71053,16.515 -8.25,23.594 l -20.0625,-10.625 -11.78125,21.25 21.21875,10.594 c -3.53947,7.079 -7.08553,12.976 -10.625,18.875 l -20.03125,-12.969 -13,18.875 18.875,13 -11.78125,17.688 -18.875,-12.969 -14.15625,18.875 18.875,14.156 c -3.53947,4.719 -5.89803,10.601 -9.4375,16.5 l -21.25,-11.781 -10.625,21.219 21.25,10.625 c -3.53947,5.899 -5.89036,11.788 -8.25,17.687 l -22.4375,-7.062 -7.0625,23.594 22.40625,5.906 c -1.17982,5.899 -2.35142,12.966 -3.53125,18.875 l -23.59375,-1.188 -2.375,23.594 23.59375,1.187 c -1.17983,7.089 -1.15625,14.14 -1.15625,21.219 l -23.59375,0 0,23.594 0,0.03 22.40625,0 c -1.17982,8.259 -2.35911,16.515 -4.71875,23.594 l -22.40625,-7.094 -7.09375,21.25 21.25,8.25 c -2.35964,7.079 -5.89803,14.154 -9.4375,20.063 l -20.0625,-11.781 -13,20.031 21.25,11.812 c -4.71929,5.909 -8.24946,11.779 -12.96875,17.688 l -18.875,-12.969 -14.15625,18.875 20.03125,14.156 c -3.53947,4.729 -8.24178,10.626 -11.78125,16.531 l -20.0625,-13 -12.96875,20.063 21.21875,12.969 c -3.53947,4.719 -5.89803,10.623 -9.4375,15.344 l -22.40625,-8.25 -8.25,21.218 21.21875,9.469 c -1.17983,5.899 -3.5466,11.783 -5.90625,17.687 l -22.40625,-4.718 -4.71875,23.594 22.40625,4.718 c -1.17983,5.899 -2.34375,12.984 -2.34375,20.063 l -23.59375,-1.188 -1.1875,23.594 23.59375,1.156 c 0,7.089 0.008,12.976 1.1875,18.875 l -24.78125,3.563 3.53125,23.593 23.59375,-3.562 c 1.17982,7.079 2.38267,12.988 3.5625,20.062 l -21.25,7.094 5.90625,22.406 22.40625,-7.062 c 2.35964,5.899 4.74178,12.966 8.28125,18.875 l -21.25,10.594 11.8125,21.25 20.03125,-11.813 c 3.53947,5.909 7.09321,11.81 11.8125,17.719 l -20.0625,14.156 14.15625,18.875 18.875,-13 11.8125,17.719 -18.875,12.969 14.15625,20.062 18.875,-14.156 c 3.53947,7.079 8.24178,12.984 11.78125,20.062 l -21.21875,9.438 9.4375,21.219 21.21875,-9.438 c 3.53947,7.069 5.91392,14.147 7.09375,22.407 l -22.40625,4.718 3.53125,22.406 23.59375,-3.531 c 1.17982,5.899 1.1875,14.171 1.1875,21.25 l 0,0.03 0,1.157 -23.59375,-2.344 -2.375,23.625 23.59375,2.344 c -2.35965,9.438 -4.71821,17.713 -9.4375,25.968 l -18.875,-12.968 -12.96875,18.875 20.0625,14.156 c -4.7193,7.079 -11.81964,12.976 -17.71875,18.875 l -12.96875,-18.875 -20.0625,12.969 12.96875,20.031 c -7.07894,3.539 -15.33499,7.109 -23.59375,9.469 l -5.875,-22.438 -22.4375,4.719 4.71875,22.406 -9.4375,0 -11.78125,0 -2.375,-21.219 -23.59375,2.344 2.375,22.438 c -7.07894,1.17 -12.97588,2.328 -18.875,4.687 l -8.28125,-22.406 -22.40625,8.281 8.25,22.406 c -5.89911,2.362 -11.78838,5.904 -17.6875,8.25 l -12.96875,-18.874 -18.90625,12.968 13,18.875 c -5.89912,4.71 -10.62446,8.281 -15.34375,13 l -17.6875,-16.531 -16.53125,16.531 17.6875,17.688 c -3.53947,4.719 -8.24178,9.447 -11.78125,15.343 l -20.0625,-12.968 -11.78125,20.031 20.03125,13 c -3.53947,5.899 -5.89036,12.952 -8.25,20.031 l -23.59375,-7.062 -5.875,22.406 22.40625,7.094 c -1.17983,5.899 -2.35143,11.778 -3.53125,17.687 l -23.625,-1.187 -1.15625,23.594 23.59375,1.187 0,1.187 c 0,5.9 0.008,12.971 1.1875,18.876 l -23.625,4.687 3.5625,23.594 23.59375,-4.719 c 1.17982,7.089 3.54661,12.976 5.90625,18.875 l -21.25,9.469 9.4375,21.218 20.0625,-8.25 c 3.53947,4.73 5.89803,10.604 9.4375,16.5 l -18.875,13 14.15625,20.032 18.875,-14.156 c 3.53947,4.727 8.24946,10.658 12.96875,15.374 l -15.34375,16.5 17.71875,15.344 15.34375,-16.531 c 4.7193,3.539 10.60089,8.272 16.5,11.813 l -10.625,18.874 20.0625,10.626 10.625,-18.876 c 7.07894,3.541 12.97589,5.896 18.875,8.25 l -4.71875,21.25 22.40625,4.688 5.90625,-20.062 c 7.07894,1.179 12.98356,2.377 20.0625,2.374 l 0,23.594 23.59375,0 0,-23.594 24.75,0 0,23.594 23.59375,0 0,-23.594 23.59375,0 0,23.594 23.625,0 0,-23.594 23.59375,0 0,23.594 23.59375,0 0,-23.594 23.59375,0 0,23.594 23.59375,0 0,-23.594 23.59375,0 0,23.594 23.59375,0 0,-23.594 24.78125,0 0,23.594 23.59375,0 0,-23.594 14.15625,0 c 3.53947,0 7.08553,0 10.625,1.188 l -3.53125,21.219 22.40625,4.719 4.71875,-22.407 c 7.07894,2.36 15.32731,5.898 22.40625,9.438 l -12.96875,20.031 20.0625,11.812 11.78125,-18.874 c 7.07894,5.906 12.97588,12.983 18.875,20.062 L 697,15672.031 l 12.96875,20.063 18.875,-11.782 c 3.53947,8.264 7.07785,16.499 9.4375,25.938 l -23.59375,3.531 3.53125,23.594 22.40625,-4.687 0,2.343 c 0,8.269 -1.16393,16.524 -2.34375,24.781 l -21.25,-5.906 -7.0625,22.406 21.21875,5.907 c -3.53947,8.249 -8.25714,16.515 -14.15625,23.593 l -15.3125,-15.343 -16.53125,17.719 16.53125,15.312 c -7.07894,5.899 -14.17874,10.624 -22.4375,15.344 l -8.25,-21.219 -22.40625,9.437 9.4375,20.063 c -8.25877,3.539 -16.53016,4.695 -25.96875,5.875 l 0,-23.594 -23.59375,0 0,23.594 c -7.07894,1.18 -12.98356,2.387 -20.0625,3.562 l -5.90625,-23.593 -22.40625,5.906 5.90625,23.594 c -5.89911,1.189 -11.81963,3.525 -17.71875,5.875 l -11.78125,-21.219 -20.0625,10.625 10.625,21.219 c -5.89912,3.539 -11.81195,7.085 -16.53125,10.625 l -15.3125,-17.688 -17.71875,15.313 15.34375,17.719 c -4.71929,4.718 -9.42927,9.446 -12.96875,14.156 l -20.0625,-14.156 -14.15625,18.874 18.875,14.157 c -3.53947,4.719 -5.89803,10.601 -9.4375,16.5 l -22.40625,-10.594 -9.4375,22.406 22.40625,9.438 c -2.35965,7.079 -4.72643,12.983 -5.90625,20.062 l -23.59375,-4.719 -4.71875,22.407 23.59375,4.719 c -1.06615,7.459 -1.15006,14.004 -1.15625,21.281 l -0.0625,0 0,2.343 -23.53125,0 1.15625,23.594 23.59375,-1.187 c 1.17982,7.079 2.38267,12.983 3.5625,20.062 l -22.4375,7.094 5.90625,22.406 23.59375,-7.062 c 2.35965,5.899 4.7341,11.778 7.09375,17.687 l -20.0625,11.782 11.78125,20.062 20.0625,-10.625 c 3.53947,4.729 7.0932,9.445 11.8125,15.344 l -17.71875,15.343 16.53125,17.688 16.53125,-16.5 c 4.71929,4.719 9.41339,9.429 15.3125,12.969 l -12.96875,20.062 18.875,12.969 12.96875,-18.875 c 5.89912,2.36 11.81963,5.9 17.71875,8.25 l -8.25,21.25 22.40625,8.25 8.25,-21.25 c 5.89912,2.369 12.97588,4.759 18.875,5.937 l -2.34375,22.407 23.59375,2.343 2.34375,-22.406 c 4.71929,1.18 9.43695,1.188 14.15625,1.188 l 8.28125,0 -4.71875,22.406 23.59375,4.719 4.71875,-23.594 c 8.25876,3.539 16.52249,5.906 24.78125,10.625 l -13,18.875 20.0625,12.969 11.8125,-18.875 c 7.07894,5.899 12.97588,12.952 18.875,20.031 l -18.875,10.625 11.78125,21.25 18.875,-11.813 c 4.7193,8.273 7.07785,16.531 9.4375,25.969 l -23.59375,1.188 1.1875,23.593 24.78125,-1.187 0,1.187 c 0,8.264 -1.17161,17.679 -3.53125,25.938 l -22.4375,-8.25 -7.0625,22.406 22.40625,8.282 c -3.53947,8.258 -8.25714,15.317 -14.15625,22.406 l -15.34375,-15.344 -16.5,16.5 15.3125,16.531 c -5.89912,4.71 -11.79606,9.446 -18.875,14.157 l -8.25,-20.063 -22.40625,8.25 8.25,21.25 c -8.25876,2.36 -16.53016,4.719 -25.96875,4.719 l 0,-22.406 -23.59375,0 0,23.562 -23.59375,0 0,-23.562 -23.59375,0 0,23.562 -23.59375,0 0,-23.562 -24.78125,0 0,23.562 -23.59375,0 0,-23.562 -23.59375,0 0,23.562 -23.59375,0 0,-130.938 c 0,-103.814 -86.1152,-188.75 -188.75,-188.75 l -13,0 c -104.99445,0 -188.75,86.117 -188.75,188.75 l 0,12.969 c 0,104.985 84.92554,188.781 188.75,188.781 l 12.96875,0 94.40625,0 0,10.594 23.59375,0 0,23.625 -24.78125,0 -1.1875,22.438 23.59375,1.187 c -2.35965,9.429 -4.71821,18.899 -9.4375,27.156 l -18.875,-11.812 -11.8125,21.25 18.875,10.594 c -5.89912,7.089 -11.79606,14.163 -18.875,20.062 l -11.78125,-18.875 -20.0625,12.969 12.96875,18.875 c -8.25877,4.719 -16.52249,7.08 -24.78125,9.437 l -4.71875,-22.406 -23.59375,4.719 4.71875,22.406 -8.25,0 c -4.71929,0 -9.43695,0.02 -14.15625,1.188 l -2.375,-22.407 -23.5625,2.344 2.34375,22.406 c -5.89912,1.184 -12.97588,3.539 -18.875,4.719 l -8.25,-20.062 -22.4375,8.281 8.28125,21.219 c -5.89912,2.35 -11.81964,5.921 -17.71875,8.281 l -12.96875,-18.906 -18.875,12.968 12.96875,20.063 c -5.89911,3.539 -10.62446,8.281 -15.34375,13 l -16.5,-16.531 -16.53125,17.687 17.71875,15.344 c -4.71929,5.909 -8.27303,10.632 -11.8125,16.531 l -20.0625,-11.812 -11.78125,20.062 20.0625,11.813 c -2.359647,5.909 -4.734103,11.788 -7.09375,17.687 l -23.59375,-7.094 -7.0625,22.438 23.59375,7.062 c -1.179823,7.081 -2.351427,12.984 -3.53125,20.063 l -23.59375,-1.187 -1.1875,23.593 23.59375,1.188 c 0,5.909 0.0077,12.976 1.1875,18.875 l -23.59375,4.718 3.53125,22.407 23.59375,-4.719 c 2.359647,7.079 3.546603,14.14 5.90625,21.219 l -21.25,9.437 9.4375,22.406 21.25,-9.437 c 3.539471,4.729 5.89803,10.622 9.4375,16.531 l -18.875,14.156 14.15625,18.876 18.875,-14.157 c 4.71929,4.71 9.43696,9.446 14.15625,14.157 l -15.34375,17.687 17.6875,15.344 15.34375,-17.688 c 4.7193,3.53 10.62445,7.064 15.34375,10.594 l -10.625,21.25 21.25,10.625 10.625,-21.25 c 5.89911,3.549 12.97588,5.924 18.875,7.094 l -4.71875,22.406 22.40625,5.906 L 218,17059.5 c 7.07894,1.18 15.32731,2.351 22.40625,3.531 l -1.1875,22.407 23.59375,0 1.1875,-22.407 c 8.25876,1.18 16.52248,3.542 24.78125,5.907 l -8.25,20.062 22.40625,9.438 8.25,-20.063 c 7.07894,3.549 14.17106,9.445 21.25,15.344 l -16.53125,16.5 16.53125,16.531 15.34375,-16.531 c 5.89911,7.079 9.42928,15.338 12.96875,23.593 l -21.25,7.094 7.09375,22.406 L 369,17156.25 c 1.17982,8.259 2.375,16.522 2.375,24.781 l -23.59375,0 0,23.625 -23.59375,0 0,23.594 -23.59375,0 0,70.781 47.1875,0 c 0,95.566 -15.35585,186.384 -46.03125,270.157 l -21.21875,-8.25 -8.25,22.406 22.40625,8.25 c -3.53947,7.079 -5.89035,12.983 -8.25,20.062 l -21.25,-9.437 -10.625,21.25 22.4375,9.437 c -2.35965,7.079 -5.89803,14.14 -9.4375,21.219 l 43.65625,21.25 9.4375,-21.281 -21.25,-10.594 c 2.35965,-7.089 5.89803,-14.171 9.4375,-21.25 l 21.25,8.25 8.25,-21.219 -21.25,-9.437 c 2.35965,-7.069 5.92161,-15.349 8.28125,-22.438 l 22.40625,7.094 7.0625,-22.406 -22.40625,-7.094 c 2.35965,-7.069 4.7341,-15.327 7.09375,-22.406 l 22.40625,7.094 5.90625,-22.407 -22.4375,-7.093 c 2.35965,-8.259 3.5466,-15.335 5.90625,-23.594 l 22.40625,5.906 5.90625,-22.406 -23.59375,-5.906 c 1.17983,-8.249 2.35143,-16.515 3.53125,-23.594 l 23.625,4.687 3.53125,-23.562 L 363.125,17417 c 1.17983,-8.259 2.35143,-15.335 3.53125,-23.594 l 22.40625,2.344 3.5625,-23.594 -23.625,-2.344 c 0,-8.244 1.1875,-16.514 1.1875,-23.593 l 23.59375,1.187 1.1875,-23.594 -23.59375,-1.187 0,-23.594 46,0 0,22.438 24.78125,0 0,24.75 -23.59375,-1.157 -1.1875,23.594 23.59375,1.156 -1.15625,24.782 -23.59375,-1.156 -1.1875,23.593 23.59375,0 -1.1875,24.75 -23.59375,-2.343 -1.1875,23.593 23.59375,2.344 -2.34375,22.437 -23.59375,-2.374 -2.375,23.593 24.78125,2.375 -2.34375,23.563 -24.78125,-2.344 -2.375,23.594 24.78125,2.343 -3.53125,23.594 -24.78125,-2.344 -1.1875,23.594 23.59375,1.188 -3.53125,23.562 -23.59375,-3.531 -3.53125,23.594 23.59375,3.531 -3.53125,21.25 23.5625,3.531 c 20.057,-122.692 30.6875,-248.94 30.6875,-377.531 l 0,-94.375 -23.59375,0 0,-23.594 c 0,-103.814 -84.92554,-188.781 -188.75,-188.781 -64.89029,0 -118,-53.078 -118,-117.969 0,-64.9 53.10971,-117.969 118,-117.969 103.81462,0 188.75,-83.776 188.75,-188.781 l 0,-34.219 47.1875,0 133.3125,0 c 103.81462,0 188.78125,-84.956 188.78125,-188.781 0,-104.994 -84.95679,-188.75 -188.78125,-188.75 -64.01225,0 -116.52796,-51.653 -117.9375,-115.343 0.006,-1.648 0.005,-3.321 0,-4.969 1.24456,-63.833 53.82073,-115.688 117.9375,-115.688 103.81462,0 188.78125,-84.915 188.78125,-188.75 0,-103.805 -84.95679,-188.75 -188.78125,-188.75 l -306.71875,0 c -64.89029,0 -118,-53.078 -118,-117.969 0,-64.888 53.10971,-117.999 118,-118 103.40641,0 188.05445,-84.272 188.71875,-187.531 0.003,-0.407 0.0312,-0.809 0.0312,-1.219 l -0.0312,0 0,-0.03 0.0312,0 c 0,-0.558 -0.0283,-1.101 -0.0312,-1.656 -0.84006,-154.245 -117.96875,-179.305 -117.96875,-305.094 0,-126.231 118,-152.193 118,-306.75 0,-127.411 117.96875,-153.373 117.96875,-306.75 0,-152.178 -116.15143,-178.904 -117.9375,-303.812 l 0,-1.25 -0.0312,-1.657 0,-0.03 c 0,-127.421 117.96875,-153.383 117.96875,-306.75 0,-153.367 -117.96875,-179.306 -117.96875,-306.719 l 0,-0.03 c 0,-127.421 117.96875,-153.35 117.96875,-306.719 0,-153.367 -117.96875,-179.338 -117.96875,-306.75 l 0,-235.937 0,-0.03 0,-47.188 23.59375,0 0,47.188 23.59375,0 0,47.187 23.59375,0 0,47.188 23.59375,0 0,-94.375 -23.59375,0 0,-47.188 -23.59375,0 0,-47.218 -23.59375,0 0,-47.188 -23.59375,0 0,-47.188 -23.59375,0 0,-47.187 z m -217.09375,4021.969 -1.1875,22.406 23.59375,0 1.1875,-22.406 c 8.25876,1.18 16.52248,3.515 24.78125,5.875 l -8.25,20.062 22.40625,9.438 8.25,-20.063 c 7.07894,3.55 14.17106,9.445 21.25,15.344 l -16.53125,16.531 16.53125,16.531 15.34375,-16.531 c 5.89911,7.079 9.42928,15.335 12.96875,23.594 l -21.25,7.063 7.09375,22.437 22.40625,-7.094 c 1.17982,8.259 2.375,16.525 2.375,24.781 l 0,0.03 -23.59375,0 0,23.562 23.59375,0 0,23.625 -23.59375,0 0,23.594 23.59375,0 0,23.563 -23.59375,0 0,13 -23.59375,0 0,23.562 -23.59375,0 0,-23.562 -23.59375,0 0,23.562 -23.59375,0 0,-22.406 -23.625,0 0,22.406 c -8.25876,-1.19 -17.67873,-2.377 -25.9375,-5.906 l 9.4375,-20.032 -22.40625,-9.468 -8.28125,20.062 c -7.07894,-3.539 -14.13981,-9.437 -21.21875,-14.156 l 16.5,-16.5 -16.5,-17.719 -15.34375,16.531 c -5.89912,-7.065 -10.61678,-15.317 -14.15625,-22.406 l 22.40625,-8.281 -7.0625,-22.406 -22.4375,8.281 c -1.17983,-8.259 -2.34375,-16.53 -2.34375,-25.969 l 22.40625,1.188 0,-23.594 -22.40625,-1.187 c 1.17982,-8.264 2.36678,-16.523 5.90625,-24.782 l 20.03125,8.25 9.4375,-22.406 -20.03125,-8.25 c 3.52964,-7.079 9.41554,-14.161 14.125,-21.25 l 16.53125,16.531 17.6875,-16.531 -16.5,-15.344 c 7.07895,-5.889 15.32731,-9.43 22.40625,-12.968 l 8.25,21.25 22.4375,-7.094 -8.28125,-22.406 c 8.25877,-1.184 16.53016,-2.344 25.96875,-2.344 z m 107.375,235.937 23.59375,0 0,12.969 -23.59375,0 z m -23.625,802.281 23.625,0 0,23.594 -23.625,0 z"
       transform="translate(0,-16664.174)"
       id="path3322"
       inkscape:connector-curvature="0"
       sodipodi:nodetypes="ccccccccccccccccccccccccccccccccccccccccccccccccccccccccccccccccccccccccccccccccccccccccccccccccccccccccccccccccccccccccccccccccccccccccccccccccccccccccccccccccccccccccccccccccccccccccccccccccccccccccccccccccccccccccccccccccccccccccccccccccccccccccccccccccccccccccccccccccccccccccsccccccccccccccccccccccccccccccccccccccccccccccsccccccccccccccccccccccccccccccccccccccccccccccccccccsccccccccccccccccsccccccccccccccccccccccccccccccccccccccccccccccccccccccccccccccccccccccsccccccccccccccccscccccccccccccccccccccccccccccssssssccccccccccccccccccccsccccccccccccccccccccccccccccccccccccccccccccccccccccccccccccccccccccccccccccccccccccccccccccccccccccccccccccccccccccccccccccccccccccccccccccccccccccccsccsssssccsssccssssscccccccssscccssssssccccccccccccccccccccccccccccccccccccccscccccccccccccccccccccccccccccccccccccccccccccccccccccccccccc" />
  </g>
</svg>
